<?xml version="1.0" standalone="no"?>
<!DOCTYPE svg PUBLIC "-//W3C//DTD SVG 1.1//EN" "http://www.w3.org/Graphics/SVG/1.1/DTD/svg11.dtd" >
<svg xmlns="http://www.w3.org/2000/svg" xmlns:xlink="http://www.w3.org/1999/xlink" version="1.1">
<metadata>
Created by FontForge 20200314 at Thu Mar 13 08:05:54 2025
 By User Azfonts
</metadata>
<defs>
<font id="BloodDrippingRegular" horiz-adv-x="274" >
  <font-face 
    font-family="Blood Dripping"
    font-weight="400"
    font-stretch="normal"
    units-per-em="1000"
    panose-1="0 0 0 0 0 0 0 0 0 0"
    ascent="800"
    descent="-200"
    x-height="654.805"
    cap-height="655.499"
    bbox="-13.0005 -59.7891 543.437 728.003"
    underline-thickness="0"
    underline-position="0"
    unicode-range="U+000A-201D"
  />
<missing-glyph horiz-adv-x="527" 
d="M50 700h427v-700h-427v700zM78 680l185 -309l186 309h-371zM251 350l-180 300v-601zM264 329l-185 -308h370zM276 350l181 -303v605z" />
    <glyph glyph-name=".notdef" horiz-adv-x="527" 
d="M50 700h427v-700h-427v700zM78 680l185 -309l186 309h-371zM251 350l-180 300v-601zM264 329l-185 -308h370zM276 350l181 -303v605z" />
    <glyph glyph-name=".null" horiz-adv-x="0" 
 />
    <glyph glyph-name=".null" horiz-adv-x="0" 
 />
    <glyph glyph-name="LF" unicode="&#xa;" horiz-adv-x="0" 
 />
    <glyph glyph-name="controlCR" unicode="&#xd;" horiz-adv-x="0" 
 />
    <glyph glyph-name="space" unicode=" " horiz-adv-x="227" 
 />
    <glyph glyph-name="exclam" unicode="!" horiz-adv-x="150" 
d="M123.513 199.455c-0.0478516 -50.8936 -100.556 -50.75 -100.513 0c0.126953 145.577 0.253906 291.154 0.375977 436.731c0.0478516 50.8936 100.556 50.75 100.513 0c-0.126953 -145.577 -0.253906 -291.154 -0.375977 -436.731zM76.415 156.653
c21.1543 0 50.6445 -13.0254 50.2568 -38.1934c-0.387695 -25.083 -28.333 -38.1924 -50.2568 -38.1924c-21.1543 0 -50.6445 13.0195 -50.2568 38.1934c0.387695 25.083 28.333 38.1924 50.2568 38.1924z" />
    <glyph glyph-name="numbersign" unicode="#" horiz-adv-x="547" 
d="M483.874 204.03c21.1543 -0.00488281 50.6367 -13.0117 50.2549 -38.1855c-0.381836 -25.0781 -28.332 -38.1982 -50.2559 -38.1934c-15.8711 0.00488281 -31.7471 0.00976562 -47.6182 0.00976562c-0.0263672 -40.2959 -0.0585938 -80.5859 -0.0849609 -120.876
c-0.0371094 -50.8936 -100.55 -50.75 -100.513 0c0.0263672 40.3008 0.0585938 80.6016 0.0849609 120.897c-42.3135 0.0107422 -84.627 0.015625 -126.94 0.0263672c-0.0263672 -40.3057 -0.0585938 -80.6172 -0.0849609 -120.924
c-0.0371094 -50.8936 -100.55 -50.75 -100.513 0c0.0263672 40.3164 0.0585938 80.6328 0.0849609 120.944c-15.3398 0.00488281 -30.6846 0.00976562 -46.0244 0.00976562c-21.1543 0.00488281 -50.6445 13.0137 -50.2568 38.1924
c0.387695 25.0781 28.333 38.1982 50.2568 38.1934c15.3613 -0.00488281 30.7168 -0.00976562 46.0781 -0.00976562c0.0322266 48.3076 0.0644531 96.6211 0.101562 144.929c-15.3984 0.00488281 -30.791 0.00976562 -46.1836 0.00976562
c-21.1543 0.00488281 -50.6445 13.0137 -50.2568 38.1924c0.387695 25.0781 28.333 38.1934 50.2568 38.1934c15.4141 -0.00488281 30.8232 -0.00976562 46.2373 -0.00976562c0.0214844 35.9199 0.0478516 71.835 0.0742188 107.755
c0.0371094 50.8936 100.55 50.7559 100.513 0c-0.0214844 -35.9258 -0.0478516 -71.8516 -0.0742188 -107.777c42.3135 -0.0107422 84.627 -0.0214844 126.94 -0.0263672c0.0263672 35.9307 0.0527344 71.8672 0.0791016 107.804
c0.0371094 50.8936 100.55 50.7559 100.513 0c-0.0263672 -35.9414 -0.0527344 -71.8828 -0.0791016 -107.83c15.8018 -0.00488281 31.6035 -0.00488281 47.4053 -0.00976562c21.1543 -0.00488281 50.6445 -13.0137 50.2568 -38.1924
c-0.381836 -25.0781 -28.332 -38.1934 -50.2559 -38.1934c-15.8174 0.00488281 -31.6406 0.00976562 -47.458 0.00976562c-0.0322266 -48.3076 -0.0693359 -96.6152 -0.101562 -144.929c15.8545 -0.00488281 31.709 -0.00488281 47.5635 -0.00976562zM335.793 204.064
c0.0371094 48.3076 0.0693359 96.6211 0.101562 144.929c-42.3135 0.00488281 -84.627 0.015625 -126.94 0.0263672c-0.0322266 -48.3135 -0.0693359 -96.6211 -0.101562 -144.929c42.3135 -0.0107422 84.627 -0.0214844 126.94 -0.0263672z" />
    <glyph glyph-name="dollar" unicode="$" horiz-adv-x="388" 
d="M267.289 280.203c69.8496 -31.6992 124.575 -97.8916 100.188 -178.19c-16.2002 -53.3311 -65.124 -87.335 -118.142 -98.6982c0 -3.18555 -0.00488281 -6.36621 -0.00488281 -9.54688c-0.0371094 -50.8936 -100.55 -50.75 -100.513 0
c0.00488281 5.15039 0.00488281 10.3008 0.00976562 15.4561c-57.2178 18.9189 -104.214 63.1221 -122.171 122.745c-15.7012 52.1416 82.9219 66.7969 96.9238 20.3105c5.15527 -17.124 13.5498 -33.8125 25.3105 -47.3047
c0.0322266 45.2812 0.0585938 90.5625 0.0908203 135.839c-57.2969 23.4424 -112.868 55.4863 -128.261 120.711c-19.7207 83.5645 41.6172 151.874 120.706 168.652c2.58594 0.546875 5.17188 1.02441 7.75781 1.4541c0 3.40918 0.00488281 6.82324 0.00488281 10.2324
c0.0371094 50.8936 100.55 50.75 100.513 0c-0.00488281 -7.50293 -0.00976562 -15 -0.0146484 -22.5029c36.7168 -15.4404 68.7979 -42.2754 90.8916 -76.7412c31.6836 -49.4287 -60.8438 -79.0361 -86.7871 -38.5547c-1.35938 2.12402 -2.75586 4.22168 -4.17383 6.30273
c-0.0322266 -40.9756 -0.0585938 -81.9561 -0.0849609 -122.932c6.29199 -2.36328 12.2764 -4.74707 17.7559 -7.23242zM149.05 331.902c0.0263672 38.8037 0.0537109 77.6074 0.0800781 116.411c-16.582 -8.79297 -30.1328 -23.3359 -32.2783 -47.6387
c-2.77148 -31.4287 11.0713 -52.8486 32.1982 -68.7725zM249.951 89.8848c23.9785 19.7686 30.0166 56.3105 15.6748 83.5703c-4.30078 8.17676 -9.82812 14.9307 -16.1631 20.7021c-0.0214844 -34.8955 -0.0478516 -69.791 -0.0693359 -104.687
c0.180664 0.148438 0.376953 0.265625 0.557617 0.414062z" />
    <glyph glyph-name="percent" unicode="%" horiz-adv-x="556" 
d="M420.249 561.848c18.9932 -4.01953 46.0947 -24.3027 35.1035 -46.9863c-83.8408 -173.018 -167.682 -346.04 -251.522 -519.058c-11.0977 -22.9004 -37.5459 -31.8105 -61.8223 -26.6758c-18.998 4.01953 -46.0986 24.2979 -35.1025 46.9863
c83.8408 173.018 167.682 346.04 251.522 519.058c11.0977 22.9004 37.5449 31.8105 61.8213 26.6758zM174.531 346.697c-60.9395 -4.03516 -120.168 40.6836 -124.305 103.609c-3.74902 57.0156 39.918 107.395 95.2139 116.347
c1.84766 0.296875 3.79102 0.503906 5.77148 0.663086c2.5752 0.37207 5.11816 0.616211 7.58691 0.701172c61.7734 2.10254 118.391 -43.3701 122.846 -106.349c4.29004 -60.6475 -49.1309 -111.133 -107.113 -114.972zM165.241 422.456
c-5.4375 -0.143555 -2.08691 -0.860352 0 0zM157.521 433.012c0.928711 -1.38574 6.46094 -6.91895 8.96191 -9.39355c1.00879 3.3291 8.05469 8.4209 10.0986 12.377c3.92383 7.60352 5.64453 17.2305 4.55078 25.6787c-1.08301 8.41602 -4.6084 17.2139 -10.4492 23.6172
c-1.77832 1.9541 -3.69531 3.49902 -5.71875 4.94336c-10.0244 -6.34473 -14.3682 -21.4668 -14.4688 -33.1162c-0.0742188 -8.66016 2.19336 -16.9062 7.02539 -24.1064zM167.735 422.382c0.817383 -2.40527 4.31152 -0.100586 -0.0693359 0.0693359zM505.439 78.5771
c4.29004 -60.6475 -49.1309 -111.131 -107.118 -114.97c-60.9346 -4.03027 -120.165 40.6826 -124.307 103.613c-3.74902 57.0156 39.9238 107.389 95.2139 116.346c1.85352 0.296875 3.79688 0.503906 5.78223 0.663086
c2.57031 0.366211 5.11914 0.610352 7.58301 0.695312c61.7734 2.1084 118.391 -43.3691 122.846 -106.348zM389.034 39.3672c-5.44238 -0.148438 -2.08691 -0.860352 0 0zM391.529 39.2871c0.817383 -2.40039 4.3125 -0.0966797 -0.0683594 0.0683594zM400.376 52.9004
c3.92383 7.60352 5.64453 17.2295 4.5459 25.6777c-1.08301 8.4209 -4.6084 17.2139 -10.4492 23.6172c-1.77832 1.9541 -3.69531 3.49902 -5.71875 4.94336c-10.0244 -6.34473 -14.3682 -21.4717 -14.4688 -33.1162c-0.0693359 -8.66016 2.19238 -16.9062 7.0293 -24.1064
c0.928711 -1.38574 6.46191 -6.91309 8.96289 -9.39258c1.00879 3.3291 8.05469 8.41602 10.0986 12.377z" />
    <glyph glyph-name="ampersand" unicode="&#x26;" horiz-adv-x="417" 
d="M372.237 263.595c23.4746 -4.96973 40.0576 -22.6934 35.0986 -46.9805c-9.70117 -47.5488 -29.4961 -91.9014 -57.9824 -129.191c12.0264 -11.75 23.9678 -23.5908 36.0684 -35.2666c45.1748 -43.5771 -35.374 -88.4551 -71.0713 -54.0166
c-9.73828 9.3877 -19.4229 18.834 -29.1182 28.2637c-18.5312 -12.6367 -38.7715 -23.2188 -60.7852 -31.0723c-57.9189 -20.665 -134.782 -26.1338 -174.956 30.6006c-33.3662 47.1182 -25.1094 118.029 4.21582 164.829c9.62109 15.3613 21.6582 27.3242 34.8896 37.71
c-19.8584 25.3223 -36.6904 52.4766 -48.8975 84.2393c-17.5703 45.7275 -31.2168 103.02 -9.60059 149.756c30.584 66.1221 118.02 84.9658 182.183 62.415c118.811 -41.7559 123.786 -213.998 37.5664 -289.221c-8.60156 -7.50293 -18.5254 -13.9756 -28.8955 -20.1406
c4.84766 -4.91113 9.70605 -9.80664 14.5166 -14.7129c15.165 -15.4619 30.5205 -30.7324 45.8232 -46.0566c13.7207 25.4756 23.3154 53.7021 29.124 82.168c4.96484 24.335 42.6533 30.7334 61.8213 26.6768zM127.02 442.155
c-21.6689 -34.1631 1.08789 -89.6494 14.9883 -122.395c6.20215 -14.623 14.1191 -28.1094 23.1348 -40.8418c1.44434 1.05664 2.89355 2.08105 4.31641 3.16992c37.6885 28.752 47.3896 80.8721 34.4707 125.149c-5.66504 19.4121 -15.8438 43.7256 -37.2207 49.5928
c-14.373 3.94531 -31.5713 -1.87402 -39.6895 -14.6758zM167.633 59.6689c21.1807 5.54883 39.8721 14.8506 56.2471 26.9199c-25.5137 25.3008 -50.8203 50.8145 -75.957 76.4873c-3.19629 -4.15234 -6.0957 -8.56445 -8.50586 -13.4014
c-11.0176 -22.0723 -15.249 -52.9541 -6.75391 -76.3545c7.34375 -20.2197 15.9082 -18.6426 34.9697 -13.6514z" />
    <glyph glyph-name="parenleft" unicode="(" 
d="M117.83 249.375c3.49414 -80.8828 40.5488 -159.197 97.8994 -215.969c18.0898 -17.915 -0.308594 -44.2676 -18.0322 -52.2588c-24.0635 -10.8477 -50.6387 -4.2373 -68.7607 13.7041c-68.793 68.1074 -110.161 166.646 -111.882 263.107
c-1.92188 107.984 45.3721 210.128 122.156 284.448c34.8369 33.7217 112.269 -8.29395 74.0176 -50.8936c0.233398 0.185547 -0.0585938 -0.180664 -1.38574 -1.62988c-2.07617 -2.26758 -4.27441 -4.42871 -6.36621 -6.68555
c-5.51172 -5.94727 -10.7998 -12.1064 -15.8809 -18.4248c-11.9043 -14.8086 -23.0439 -30.5889 -32.2881 -47.208c-28.5186 -51.2598 -42.0049 -109.693 -39.4775 -168.19z" />
    <glyph glyph-name="parenright" unicode=")" 
d="M134.4 542.408c76.7783 -74.3154 124.076 -176.468 122.154 -284.441c-1.7207 -96.4668 -43.083 -194.994 -111.881 -263.107c-18.207 -18.0215 -44.4424 -24.6582 -68.7607 -13.7041c-17.9258 8.08105 -35.8457 34.6191 -18.0312 52.2578
c57.3506 56.7773 94.4072 135.091 97.9014 215.969c2.52246 58.4863 -10.959 116.931 -39.4775 168.19c-9.61621 17.2783 -21.25 33.6641 -33.7275 48.9775c-4.64062 5.69727 -9.44629 11.2617 -14.4424 16.6562c-2.0918 2.25684 -4.2793 4.42285 -6.36621 6.68457
c-1.64648 1.77832 -1.99121 2.20312 -1.69922 1.95312c-37.5771 42.5039 39.626 84.1533 74.3301 50.5645z" />
    <glyph glyph-name="asterisk" unicode="*" horiz-adv-x="440" 
d="M425.131 390.009c-0.387695 -25.0352 -28.333 -38.2627 -50.2461 -38.1826c-14.1396 0.0419922 -28.2744 0.0898438 -42.4141 0.131836c17.4531 -17.501 34.9111 -35.002 52.3643 -52.5029c17.957 -18.0107 -0.191406 -44.2139 -18.0322 -52.2578
c-23.9629 -10.7998 -50.7666 -4.33789 -68.7617 13.7041c-9.4668 9.48828 -18.9287 18.9824 -28.3955 28.4707c-0.0263672 -15.6055 -0.0585938 -31.2051 -0.0849609 -46.8105c-0.0957031 -50.8994 -100.608 -50.7451 -100.513 0
c0.0263672 14.665 0.0527344 29.3252 0.0791016 43.9902c-13.1738 -12.5518 -26.3477 -25.1035 -39.5156 -37.6553c-35.9473 -34.2588 -116.501 10.7256 -71.0713 54.0156c17.4053 16.582 34.8057 33.1699 52.2109 49.752
c-15.499 0.0478516 -30.9932 0.100586 -46.4873 0.148438c-21.1484 0.0634766 -50.6436 12.9658 -50.2559 38.1924c0.387695 25.0303 28.333 38.2617 50.2568 38.1924c22.041 -0.0742188 44.082 -0.143555 66.123 -0.212891
c-23.2354 23.2939 -46.4707 46.5879 -69.7012 69.8818c-17.9629 18.0107 0.191406 44.2139 18.0322 52.2578c23.9629 10.7998 50.7666 4.33789 68.7617 -13.7041c7.35352 -7.375 14.7129 -14.75 22.0664 -22.125c0.015625 7.7207 0.0263672 15.4414 0.0419922 23.1621
c0.0957031 50.8994 100.608 50.7451 100.513 0l-0.0644531 -34.0078c11.3154 10.7842 22.6357 21.5684 33.9512 32.3525c35.9521 34.2588 116.501 -10.7256 71.0713 -54.0156c-19.0303 -18.1328 -38.0605 -36.2705 -57.0908 -54.4033
c18.9668 -0.0634766 37.9385 -0.12207 56.9053 -0.180664c21.1543 -0.0693359 50.6445 -12.9717 50.2568 -38.1934z" />
    <glyph glyph-name="plus" unicode="+" horiz-adv-x="467" 
d="M366.58 358.756c21.1484 -0.0693359 50.6436 -12.9629 50.2559 -38.1895c-0.381836 -25.0303 -28.332 -38.2676 -50.2559 -38.1934c-27.6582 0.0898438 -55.3115 0.185547 -82.9697 0.28125c-0.0527344 -32.0547 -0.111328 -64.1094 -0.164062 -96.1641
c-0.0898438 -50.8936 -100.603 -50.7451 -100.513 0c0.0527344 32.166 0.111328 64.3379 0.164062 96.5039c-27.6104 0.0957031 -55.2266 0.185547 -82.8369 0.28125c-21.1484 0.0693359 -50.6436 12.9668 -50.2559 38.1934
c0.381836 25.0303 28.332 38.2676 50.2559 38.1934c27.6533 -0.0957031 55.3115 -0.185547 82.9697 -0.28125c0.0527344 32.0498 0.111328 64.1045 0.164062 96.1592c0.0898438 50.8994 100.603 50.751 100.513 0.000976562
c-0.0527344 -32.166 -0.111328 -64.3379 -0.164062 -96.5039c27.6104 -0.0898438 55.2266 -0.185547 82.8369 -0.28125z" />
    <glyph glyph-name="comma" unicode="," horiz-adv-x="159" 
d="M132.482 164.175c16.2002 -48.4668 14.0586 -140.809 -44.5557 -161.246c-20.1396 -7.02441 -45.748 -2.21875 -49.7783 21.707c-3.31836 19.6777 6.98828 37.1572 1.93848 57.9072c-4.83691 19.8848 -16.3486 37.6348 -22.168 57.626
c-18.0264 61.9062 96.3984 78.3506 114.563 24.0059z" />
    <glyph glyph-name="hyphen" unicode="-" horiz-adv-x="304" 
d="M240.51 332.876c21.1484 -0.0898438 50.6436 -12.9502 50.2559 -38.1924c-0.381836 -25.0195 -28.332 -38.2881 -50.2559 -38.1924c-59.0811 0.254883 -118.168 0.509766 -177.249 0.759766c-21.1484 0.0898438 -50.6436 12.9502 -50.2559 38.1924
c0.381836 25.0195 28.332 38.2881 50.2559 38.1924c59.0811 -0.254883 118.168 -0.509766 177.249 -0.759766z" />
    <glyph glyph-name="period" unicode="." horiz-adv-x="127" 
d="M63.2607 145.49c21.1543 0 50.6445 -13.0195 50.2568 -38.1934c-0.387695 -25.083 -28.333 -38.1924 -50.2568 -38.1924c-21.1543 0 -50.6445 13.0195 -50.2568 38.1934c0.387695 25.083 28.333 38.1924 50.2568 38.1924z" />
    <glyph glyph-name="slash" unicode="/" horiz-adv-x="483" 
d="M395.21 562.373c18.207 -3.84961 47.124 -24.7441 35.1025 -46.9814c-93.5205 -173.012 -187.035 -346.023 -280.55 -519.035c-12.165 -22.5029 -36.6318 -32.0078 -61.8213 -26.6768c-18.207 3.85449 -47.124 24.7432 -35.1025 46.9854
c93.5205 173.007 187.035 346.024 280.55 519.031c12.165 22.4971 36.6318 32.002 61.8213 26.6768z" />
    <glyph glyph-name="zero" unicode="0" horiz-adv-x="434" 
d="M225.559 692.735c7.17871 -1.15234 158.448 -72.6484 188.374 -245.56c19.9541 -115.274 -23.1875 -222.6 -57.0635 -257.861c-7.15723 -7.44434 -18.6953 -16.6729 -28.8525 -35.4004c-19.2109 -35.4375 -14.2568 -71.082 -33.0801 -75.8447
c-1.49707 -0.376953 -5.78711 -1.46582 -10.7041 0c-19.8633 5.91504 -15.3867 43.1523 -36.7002 51.2285c-1.24805 0.472656 -10.54 3.85449 -16.5557 -0.504883c-11.1396 -8.07031 -0.456055 -35.0068 -12.8809 -43.0771
c-0.976562 -0.636719 -2.83984 -1.84766 -5.22363 -1.65625c-9.1377 0.72168 -11.2773 20.8984 -15.9072 20.9727c-8.71289 0.132812 -6.03711 -71.2939 -35.0654 -82.1416c-1.44434 -0.541992 -9.23926 -3.45703 -16.3115 0
c-22.7471 11.1182 2.60156 68.3838 -24.3936 118.349c-11.1504 20.6338 -28.0615 28.0039 -35.7656 38.3848c-65.2354 87.8711 -84.9287 207.106 -60.0098 312.431c21.4883 90.8232 79.6406 191.475 180.562 200.777c3.29199 0.499023 6.5625 0.727539 9.70605 0.610352
c3.14355 0.100586 6.4834 -0.165039 9.87109 -0.707031zM273.331 234.271c38.7715 66.1641 53.1543 152.913 37.459 227.918c-7.75781 37.0781 -20.7402 75.3086 -41.5654 107.172c-8.7666 13.4014 -18.5576 26.4951 -31.0781 36.5674
c-4.96484 3.99316 -9.30273 6.97168 -14.9258 9.31348c-2.19336 0.913086 -6.62695 1.5127 -7.74707 1.72461c-1.34375 -0.361328 -9.03711 -2.08691 -12.1328 -3.75977c-5.1084 -2.76074 -11.751 -7.86328 -16.6523 -12.4346
c-12.5625 -11.7188 -22.9805 -26.793 -31.4756 -41.6709c-20.6816 -36.2334 -34.1631 -79.3799 -38.6445 -120.79c-8.45312 -78.0049 11.708 -166.518 61.8428 -228.18c7.74121 -9.52539 18.6045 -20.5107 27.541 -25.7041
c7.18945 -4.17871 8.17676 -2.93652 12.7002 -4.98047c-3.25488 1.47656 0.541992 0.197266 0.97168 0.292969c3.78027 0.828125 15.3398 6.94531 23.7822 14.8779c11.835 11.1133 21.7695 25.7363 29.9248 39.6533z" />
    <glyph glyph-name="one" unicode="1" horiz-adv-x="250" 
d="M128.896 700.275c19.5664 32.0234 93.5605 22.749 93.6562 -19.2773c0.28125 -131.039 6.49316 -354.897 1.10938 -519.643c-0.0527344 -1.64062 -1.57617 -48.5732 -12.2803 -50.0654c-6.94531 -0.966797 -13.6514 17.7393 -18.3506 16.3105
c-8.09766 -2.46387 8.74512 -58.9961 -7.13672 -67.2842c-5.8252 -3.04199 -13.668 1.66797 -14.2734 2.04004c-19.9805 12.3398 -3.68457 54.2969 -21.4082 65.2451c-8.78809 5.42676 -16.2324 -2.7666 -24.4678 0c-29.793 9.99805 -9.45117 143.107 -2.03906 228.36
c5.06055 58.2002 8.0127 139.089 -1.48145 237.775c-2.91016 -0.759766 -5.84668 -1.47168 -8.80957 -2.08203c-21.4199 -4.42871 -54.1123 2.78711 -61.8223 26.6758c-7.64648 23.6973 13.582 42.5361 35.1025 46.9854c19.9912 4.13086 31.8633 18.042 42.2012 34.959z" />
    <glyph glyph-name="two" unicode="2" horiz-adv-x="385" 
d="M321.779 182.481c21.1484 0 50.6377 -13.0176 50.2607 -38.1855c-0.265625 -17.3203 -27.7012 -33.3818 -50.2568 -38.1924c-26.9893 -5.75586 -36.5254 6.72168 -47.5488 -0.918945c-27.3877 -18.9824 13.3379 -108.595 -11.2139 -122.336
c-6.24414 -3.49414 -13.9326 -0.526367 -15.292 -0.000976562c-32.4639 12.542 -9.12793 99.9404 -46.8965 120.298c-3.0957 1.66699 -11.4375 6.16406 -18.3506 2.95703c-20.1982 -9.36621 -1.74121 -72.1807 -22.4277 -81.457
c-5.8252 -2.6123 -12.25 0.148438 -14.2734 1.01953c-23.0918 9.93457 -6.69043 50.3574 -31.6621 80.4375c-19.1045 23.0127 -48.9873 20.6875 -48.9609 38.7197c0.0107422 8.66504 4.00391 17.8457 13.4238 26.4844c83.5225 76.6143 145.004 187.599 166.838 299.193
c9.88184 50.4902 9.54688 114.876 -25.8477 156.345c-15.1172 17.708 -29.1084 17.9199 -45.9775 1.00293c-23.0547 -23.1133 -25.7578 -57.9189 -21.5098 -88.4443c3.47266 -24.9502 -31.582 -38.1924 -50.2559 -38.1924c-24.1914 0 -46.79 13.29 -50.2568 38.1924
c-11.7129 84.1855 43.0361 166.927 130.021 176.877c68.7871 7.86328 122.463 -33.2129 149.787 -93.4893c28.4658 -62.793 22.1367 -134.612 4.57715 -199.444c-23.8779 -88.1787 -66.7861 -170.586 -124.582 -240.865h110.405z" />
    <glyph glyph-name="three" unicode="3" horiz-adv-x="392" 
d="M328.965 485.773c-10.5342 -17.1934 -24.1719 -30.8477 -39.7988 -41.2441c96.4561 -133.194 96.6416 -201.472 77.792 -239.325c-13.1836 -26.4746 -30.8438 -28.3545 -53.2881 -72.6377c-32.1826 -63.4941 -28.1211 -123.239 -51.8232 -126.802
c-7.82129 -1.17871 -14.6553 4.35938 -16.8213 6.11719c-22.0615 17.8721 0.169922 59.9141 -21.4092 77.9883c-6.49414 5.4375 -17.0234 8.7666 -23.3633 5.10254c-13.1787 -7.61426 -1.18945 -41.3945 -15.6318 -49.4492c-5.94141 -3.31348 -13.2002 -0.509766 -14.5273 0
c-19.5664 7.55566 -20.9951 44.7188 -24.085 64.0352c-13.7842 86.1182 -93.5732 115.349 -95.8984 145.608c-3.86523 50.2354 96.6055 50.8145 100.514 0c0.12207 -1.55566 0.249023 -3.12207 0.488281 -4.66699c0.180664 -1.15234 0.291992 -1.91211 0.361328 -2.41699
c1.7041 -8.15039 3.94434 -16.1895 6.7959 -24.0156c7.0459 -19.3486 18.8916 -39.7803 38.4736 -48.5518c51.8438 -23.2197 77.9893 48.748 77.166 87.4668c-0.908203 42.4941 -15.6318 86.0605 -44.915 117.346c-21.5791 23.0547 -41.5225 34.8848 -71.2305 44.543
c-19.9326 6.47754 -30.1699 29.6387 -20.5645 47.6973c11.1875 21.0264 37.8477 25.3057 59.2881 22.1143c52.3115 -7.77832 59.9365 70.625 46.8477 104.092c-5.54297 14.1826 -17.7344 33.7227 -33.0957 36.3936c-18.8975 3.29199 -36.7012 -18.3027 -44.3945 -33.8975
c-11.2676 -22.8369 -37.3965 -31.8418 -61.8213 -26.6758c-18.8711 3.99316 -46.2637 24.3662 -35.1025 46.9854c25.8584 52.4121 74.6172 89.4102 134.787 90.0312c56.166 0.579102 106.051 -30.0312 130.964 -80.1338c22.71 -45.6738 20.9951 -102.148 -5.70703 -145.704z
" />
    <glyph glyph-name="four" unicode="4" horiz-adv-x="386" 
d="M329.306 690.347c43.4863 -304.227 3.43262 -347.62 29.5723 -453.666c3.9502 -16.0352 14.6973 -54.9551 -3.88672 -88.9316c-10.2217 -18.6953 -18.6748 -16.4336 -26.4434 -34.0303c-18.207 -41.2568 14.9199 -83.958 -1.78418 -97.2432
c-5.1875 -4.12598 -13.9219 -4.41797 -19.8789 -1.5293c-21.542 10.4443 -1.07324 59.7773 -28.9551 105.876c-8.62793 14.2568 -23.4629 15.627 -23.4521 26.9258c0.0322266 32.0498 -36.0264 74.1396 0.196289 190.704
c-83.1611 20.8193 -112.656 13.8369 -121.099 -0.233398c-7.91113 -13.1787 0.265625 -36.584 -12.2393 -43.4277c-7.72559 -4.22656 -17.9307 0.823242 -20.3887 2.03906c-17.5117 8.65527 -12.0059 25.418 -32.3105 50.3369
c-9.79688 12.0264 -17.1406 15.5576 -18.4473 26.2568c-1.24219 10.1523 3.95605 18.5684 6.26562 22.2051c56.0869 88.2314 105.695 164.569 115.853 180.536c45.4404 71.416 43.9912 103.673 87.0742 125.666c24.4941 12.5049 48.9717 14.3369 66.2021 13.8271
c0.743164 -4.92188 2.10254 -13.9912 3.72168 -25.3115zM254.755 414.843c0.0371094 36.8867 0.0732422 73.7725 0.116211 110.654c-24.4775 -36.9287 -48.9502 -73.8633 -73.4277 -110.798c24.4355 0.0478516 48.8711 0.0957031 73.3115 0.143555z" />
    <glyph glyph-name="five" unicode="5" horiz-adv-x="357" 
d="M246.376 504.813c62.4424 -30.8711 90.1504 -171.356 90.0234 -288.25c-0.0849609 -73.1152 -10.9697 -194.846 -47.5273 -201.105c-6.00488 -1.03027 -11.4531 1.27441 -13.2529 2.03906c-33.2393 14.0762 -18.9238 88.0088 -44.8564 96.8496
c-9.38184 3.19629 -19.5127 -3.65332 -22.8896 -5.93652c-41.543 -28.083 -7.77832 -126.085 -37.2637 -137.809c-5.3418 -2.12402 -10.5186 -0.53125 -12.2334 0c-33.0479 10.1787 0.456055 94.2051 -43.3438 147.907c-27.2656 33.4297 -64.418 32.5908 -92.2305 80.251
c-29.6074 50.7295 62.5801 80.0342 86.7871 38.5547c22.3115 -38.2305 65.5166 -77.4326 105.403 -37.3232c19.874 19.9912 33.1855 50.2676 38.458 77.8467c9.54199 49.8848 -4.22656 113.894 -42.2227 149.602c-31.2158 29.3418 -68.9414 16.9277 -96.4883 -5.30371
c-24.8496 -20.0605 -85.7207 -12.7705 -85.7949 27.0049c-0.132812 72.9824 -0.265625 145.965 -0.398438 218.952c-0.0214844 10.4863 4.27441 18.7646 11.0391 24.9238c9.27051 13.7412 28.624 20.8457 44.7549 20.8613l183.472 0.208008
c48.4834 0.0527344 49.5352 -34.1846 50.2568 -38.1934c1.99121 -11.0068 -2.44238 -25.4814 -12.3877 -32.4424c-14.1934 -9.93457 -29.6396 2.4375 -37.8643 -5.75c-13.041 -12.9824 14.8613 -54.9717 4.2207 -63.0586
c-4.74707 -3.60547 -14.3311 1.68262 -16.8213 3.05762c-24.4941 13.5186 -19.4873 43.8691 -35.1719 59.9473c-11.1553 11.4424 -35.208 18.1436 -90.9336 -0.100586c0.0742188 -40.1152 0.143555 -80.2305 0.217773 -120.34
c39.1543 8.62793 80.5488 5.64941 117.048 -12.3926z" />
    <glyph glyph-name="six" unicode="6" horiz-adv-x="410" 
d="M209.418 468.941c28.54 -1.13086 121.081 -21.9668 162.077 -104.963c26.4639 -53.5752 30.6904 -131.538 -2.86719 -156.765c-11.3945 -8.56445 -18.1807 -4.31641 -25.4443 -13.3486c-25.832 -32.1182 42.5303 -107.452 18.3496 -136.098
c-7.23145 -8.56445 -21.7852 -11.835 -30.583 -7.64551c-20.458 9.74902 -8.85645 59.416 -29.0547 67.2852c-7.53418 2.93652 -15.7061 -1.42773 -17.0703 -2.19238c-33.6904 -18.8125 3.39258 -117.165 -27.2764 -133.912
c-12.4199 -6.78027 -29.7295 3.20703 -32.1133 4.58789c-32.3467 18.6748 -15.7168 65.2197 -52.1943 112.901c-14.0811 18.3984 -33.5039 33.6162 -41.0859 29.3154c-11.8037 -6.69531 13.5557 -55.874 -9.1748 -77.9893
c-2.36816 -2.30469 -8.08691 -7.86426 -15.292 -7.64648c-10.5771 0.324219 -28.1953 13.2061 -61.8643 155.714c-7.38086 31.2314 -16.3379 72.1006 -25.0508 120.536c-0.93457 3.79102 -1.04102 7.92188 -0.186523 12.377
c-0.0214844 3.76953 -0.0322266 7.5293 -0.0166016 11.2617c0.324219 73.7041 2.16699 151.046 15.2822 223.635c9.4668 52.3701 37.5557 100.98 81.8975 131.782c117.854 81.8604 273.143 -22.1416 244.284 -160.853c-5.06055 -24.3242 -42.5742 -30.749 -61.8223 -26.6768
c-23.2197 4.91113 -39.8555 22.4277 -35.1885 46.4121c-0.0634766 -0.318359 -0.126953 -0.631836 -0.201172 -1.00391c0.435547 3.18555 0.743164 6.38184 0.93457 9.59375c0.0898438 4.0459 0.296875 7.99121 0.164062 12.0586
c-0.451172 13.6885 -3.76465 26.8564 -10.4229 38.9365c-7.25293 13.1572 -15.1533 22.0352 -27.9287 29.5273c-29.8301 17.4902 -56.8623 -14.6445 -72.7539 -37.4023c-25.4336 -36.4141 -24.9082 -86.8037 -27.5527 -129.229
c-0.579102 -9.2334 -1.16895 -18.4834 -1.75879 -27.7334c25.5605 12.2285 53.9834 18.7168 83.9141 17.5332zM267.844 216.882c23.6182 37.9219 27.1328 91.9375 4.40723 131.081c-12.4727 21.4727 -35.4316 44.2305 -66.998 44.7559
c-40.2588 0.668945 -69.6797 -36.6953 -84.0107 -70.7256c1.34375 -57.7695 13.54 -130.434 73.7422 -148.327c30.2812 -9 58.1465 19.5928 72.8594 43.2158z" />
    <glyph glyph-name="seven" unicode="7" horiz-adv-x="442" 
d="M341.481 709.78c44.2246 0 49.4307 -28.7539 50.2646 -38.1836c0.621094 -7.10449 -2.65527 -13.333 -5.72949 -17.6494c-0.0585938 -0.211914 -0.701172 -2.52734 -0.764648 -2.75c-150.632 -541.338 -164.331 -488.235 -170.225 -533.777
c-0.536133 -4.1416 -3.72754 -30.1064 -13.2529 -31.6035c-8.54297 -1.33789 -15.9346 17.9844 -21.4092 16.3115c-9.77539 -2.98438 8.81348 -66.1699 -10.1953 -76.46c-4.30664 -2.33105 -8.99512 -1.10938 -13.2539 0c-30.0156 7.82617 -43.7256 57.127 -44.9629 91.4336
c-0.165039 4.44434 -2.0127 11.3525 0.605469 19.6465c29.6074 93.7324 59.8193 187.269 90.5625 280.63c-16.5029 -0.191406 -33.0107 -0.0849609 -49.5244 0.318359c-21.457 0.525391 -50.2568 12.6104 -50.2568 38.1924c0 24.7061 28.6191 38.7295 50.2559 38.1934
c25.0303 -0.616211 50.0439 -0.546875 75.0527 0.212891c15.457 46.4072 31.0469 92.7773 46.7793 139.1h-175.167c-21.1543 0 -50.6445 13.0195 -50.2568 38.1934c0.387695 25.083 28.333 38.1924 50.2568 38.1924h241.221z" />
    <glyph glyph-name="eight" unicode="8" horiz-adv-x="354" 
d="M268.7 405.416c30.7969 -26.9043 52.1777 -65.5137 61.2197 -106.935c19.6455 -90.1221 -27.7812 -184.269 -61.6895 -191.097c-3.89746 -0.786133 -13.3545 -1.57227 -18.3828 -8.6875c-8.95215 -12.6641 4.3916 -33.7012 -3.51465 -39.3936
c-3.04785 -2.19824 -7.48145 -0.833984 -10.1943 0c-14.4951 4.44922 -17.8877 23.0176 -21.127 22.5078c-8.12891 -1.29004 17.1562 -117.765 -13.5342 -132.616c-8.41016 -4.06738 -20.5371 -0.270508 -27.5244 6.11719
c-27.6904 25.3008 15.8809 99.7168 -6.32422 114.658c-5.72363 3.84375 -14.8887 3.13184 -20.1826 -0.478516c-13.7412 -9.38184 -1.86328 -38.6016 -15.9336 -48.1064c-4.69922 -3.1748 -12.25 -4.125 -17.9316 -1.39062
c-19.0244 9.16504 -1.01367 51.9346 -26.2822 86.1934c-7.07227 9.58984 -12.3818 11.5283 -20.9092 18.8818c-48.6475 41.9736 -45.748 125.682 -45.3555 137.098c2.6123 75.4834 46.2314 125.544 59.166 139.376c-4.35352 3.61035 -8.55371 7.46484 -12.5361 11.6221
c-90.9287 94.9277 -47.1504 297.053 92.1455 313.741c4.39648 0.908203 8.80859 1.27441 12.9922 1.01465c4.71484 0.165039 9.84375 -0.456055 14.9678 -1.73535c67.6934 -11.4004 113.989 -69.9609 129.653 -136.062c15.8174 -66.7646 2.13965 -136.837 -48.7227 -184.709
zM173.692 651.595c-0.0214844 0 -0.0419922 -0.00585938 -0.0634766 -0.0166016c0.494141 0.0322266 0.897461 0.0585938 1.18457 0.0908203c-0.376953 -0.0263672 -0.749023 -0.0585938 -1.12109 -0.0742188zM118.812 546.487
c-0.993164 -25.0459 4.28711 -50.2256 17.4443 -71.8252c7.06738 -11.5967 21.6953 -32.7139 37.168 -31.6621c17.9785 1.22168 33.5996 27.9082 39.918 41.9521c10.8633 24.1436 13.0186 50.8193 8.8291 76.8584c-3.39844 21.1113 -11.4004 43.0088 -23.0078 60.998
c-5.40527 8.37891 -11.6553 16.7998 -19.5186 22.9541c-2.54883 1.99609 -6.9502 3.68945 -9.02051 4.73047c-3.56836 -1.90625 -7.46582 -4.75195 -10.5615 -7.53418c-7.48145 -6.7168 -13.8955 -15.2549 -19.1895 -23.7979
c-13.3164 -21.4883 -21.0635 -47.4795 -22.0615 -72.6738zM220.496 190.203c13.041 23.5322 16.6172 49.5869 14.1221 76.0771c-2.26172 24 -11.0439 48.9346 -24.377 69.043c-5.7666 8.69727 -12.1963 17.166 -20.3623 23.7344
c-2.60742 2.09766 -10.0088 4.77344 -12.6797 6.29199c-1.2793 -0.15918 -2.10742 -0.0957031 -0.833008 0.499023c-4.35352 -2.04395 -7.06152 -3.90234 -10.8213 -6.79102c-9.65332 -7.42285 -17.4424 -17.8779 -23.75 -28.168
c-13.5293 -22.0615 -21.4141 -48.6211 -22.2852 -74.4424c-0.817383 -24.2705 4.68359 -48.9131 16.7637 -70.1572c7.50781 -13.2051 23.0127 -35.9736 40.5293 -35.3154c18.5996 0.701172 35.665 24.7383 43.6934 39.2285z" />
    <glyph glyph-name="nine" unicode="9" horiz-adv-x="426" 
d="M343.53 680.81c27.8281 -22.9541 51.7939 -53.6201 60.9639 -88.9834c12.7383 -49.1367 7.19531 -88.4609 -5.19727 -143.342c-41.4268 -183.446 -78.876 -338.581 -129.791 -340.487c-5.8252 -0.217773 -16.9805 1.375 -24.3877 -5.88867
c-16.5713 -16.2529 5.65039 -57.2012 -6.11621 -64.2256c-5.31543 -3.1748 -15.707 1.68359 -21.4102 8.15625c-13.8906 15.7598 1.96387 38.8887 -12.2344 58.1104c-5.89355 7.98047 -12.9023 9.78613 -16.3115 12.2344c-15.5518 11.1611 -5.28809 70.9863 94.1631 269.438
c-27.1221 5.1875 -40.832 -0.791016 -48.292 -6.92383c-23.5801 -19.3809 -13.1143 -63.5576 -30.5781 -68.8145c-7.75195 -2.33594 -16.1152 4.48145 -19.3701 7.13672c-21.9824 17.9258 -7.4502 49.2266 -25.376 74.708
c-12.1914 17.3311 -31.333 14.9414 -44.4746 25.4014c-66.6162 53.002 -86.6396 153.043 -38.8203 224.884c58.0137 87.1484 187.321 104.512 267.232 38.5967zM305.542 481.879c8.47461 46.2588 10.21 94.3916 -20.002 131.81
c-10.6406 13.1738 -31.9375 31.1045 -54.5254 31.7998c-28.0459 0.865234 -55.8955 -20.8838 -69.4834 -44.2939c-24.1484 -41.5967 -10.5928 -106.481 29.6074 -133.588c35.8887 -24.207 82.7041 -7.16797 114.403 14.2725z" />
    <glyph glyph-name="colon" unicode=":" horiz-adv-x="133" 
d="M66.2607 214.475c-21.1543 0 -50.6445 13.0195 -50.2568 38.1934c0.387695 25.083 28.333 38.1924 50.2568 38.1924c21.1543 0 50.6445 -13.0195 50.2568 -38.1934c-0.387695 -25.083 -28.333 -38.1924 -50.2568 -38.1924zM66.2607 160.688
c21.1484 0 50.6387 -13.0254 50.2568 -38.1934c-0.387695 -25.083 -28.333 -38.1924 -50.2568 -38.1924c-21.1543 0 -50.6445 13.0195 -50.2568 38.1934c0.387695 25.083 28.333 38.1924 50.2568 38.1924z" />
    <glyph glyph-name="semicolon" unicode=";" horiz-adv-x="161" 
d="M73.9922 214.475c-21.1543 0 -50.6445 13.0195 -50.2568 38.1934c0.387695 25.083 28.333 38.1924 50.2568 38.1924c21.1543 0 50.6445 -13.0195 50.2568 -38.1934c-0.387695 -25.083 -28.333 -38.1924 -50.2568 -38.1924zM133.482 179.839
c16.2051 -48.4727 14.0635 -140.809 -44.5557 -161.246c-20.1396 -7.02441 -45.748 -2.21875 -49.7783 21.707c-3.31836 19.6777 6.98828 37.1572 1.93848 57.9072c-4.83691 19.8848 -16.3486 37.6348 -22.168 57.626c-18.0264 61.9062 96.3984 78.3506 114.563 24.0059z
" />
    <glyph glyph-name="less" unicode="&#x3c;" horiz-adv-x="425" 
d="M386.876 140.276c20.2832 -9.64258 33.0176 -31.9785 18.0332 -52.2617c-14.665 -19.8369 -47.4521 -23.8301 -68.7598 -13.6992c-87.2549 41.4854 -174.504 82.9707 -261.759 124.456c-24.6689 11.7295 -34.9326 41.5332 -10.1738 59.9902
c86.3154 64.333 172.625 128.666 258.94 192.999c19.7949 14.75 51.3613 15.207 71.0713 0c18.4199 -14.209 18.9297 -39.9082 0.000976562 -54.0166c-71.2568 -53.1074 -142.508 -106.216 -213.765 -159.323c68.8037 -32.7129 137.607 -65.4258 206.411 -98.1445z" />
    <glyph glyph-name="greater" unicode="&#x3e;" horiz-adv-x="425" 
d="M360.089 258.763c24.7588 -18.4512 14.501 -48.2529 -10.168 -59.9873c-87.2549 -41.4854 -174.504 -82.9707 -261.759 -124.456c-21.0322 -9.99805 -54.3193 -6.11621 -68.7617 13.6992c-14.6445 20.1025 -2.26758 42.6055 18.0312 52.2588
c68.8037 32.7188 137.607 65.4316 206.411 98.1445c-71.2568 53.1074 -142.508 106.216 -213.765 159.323c-19.126 14.251 -18.584 39.6689 0 54.0156c19.7783 15.2656 51.2227 14.793 71.0703 0c86.3154 -64.3379 172.625 -128.665 258.94 -192.998z" />
    <glyph glyph-name="question" unicode="?" horiz-adv-x="417" 
d="M252.047 41.3506c21.1484 0 50.6387 -13.0195 50.2568 -38.1934c-0.387695 -25.083 -28.333 -38.1924 -50.2568 -38.1924c-21.1543 0 -50.6445 13.0195 -50.2568 38.1934c0.387695 25.083 28.333 38.1924 50.2568 38.1924zM408.785 427.697
c4.08887 -57.584 -19.3809 -117.417 -55.2529 -161.317c-45.2119 -55.333 -62.8135 -112.471 -58.2998 -184.067c3.1748 -50.4004 -97.3115 -50.8467 -100.514 -0.000976562c-4.76855 75.6738 13.0244 149.691 61.0879 209.437
c33.6367 41.8145 64.8789 95.4854 49.7197 151.88c-7.16309 26.6553 -28.9062 45.3291 -49.8164 51.0156c-4.13672 1.12012 -8.32617 1.77344 -12.5156 2.62793c-0.536133 0.106445 -1.67773 0.254883 -2.94141 0.398438
c-1.94336 0.0898438 -3.97168 0.179688 -4.68848 0.164062c-3.85449 -0.100586 -7.69922 -0.0478516 -11.543 -0.307617c0.196289 -0.254883 -12.0215 -2.33594 -13.8379 -2.8877c-5.80859 -1.77832 -11.6865 -4.07715 -16.9326 -7.23633
c-12.042 -7.25293 -22.3008 -18.3818 -29.2246 -30.5469c-10.667 -18.7432 -14.4844 -40.3799 -13.2471 -61.6768c2.92578 -50.4473 -97.5605 -50.8506 -100.513 0.000976562c-3.98242 68.5967 36.9824 132.855 98.8086 161.416
c103.418 47.7773 250.832 -4.04004 259.71 -128.898z" />
    <glyph glyph-name="at" unicode="@" horiz-adv-x="559" 
d="M439.017 516.863c107.676 -68.2354 134.984 -213.306 68.3203 -318.693c-36.9502 -58.4121 -122.182 -90.9023 -181.125 -42.8545c-4.94824 4.03027 -9.13184 8.65527 -12.7852 13.6465c-27.0801 -29.1611 -63.8711 -44.2305 -107.438 -21.2822
c-72.9824 38.4473 -82.9961 141.631 -43.8369 206.483c20.9043 34.6143 55.3857 60.6953 95.8613 66.1533c39.3555 5.30469 72.4297 -9.91797 99.7168 -36.3281c14.7559 -3.9082 27.9023 -12.9668 32.7393 -27.7705c3.8125 -11.6709 1.54492 -25.168 0.886719 -37.0986
c-1.03516 -18.7588 -1.7041 -37.5498 -0.817383 -56.3359c0.525391 -11.1504 1.28516 -22.582 3.28711 -33.584c0.828125 -4.5293 4.18359 -11.8516 5.54297 -17.4961c1.05664 0.764648 2.15039 1.64062 3.08008 2.59082c8.38379 8.57031 15.8018 17.6123 21.5254 28.3008
c6.25 11.6758 10.832 24.584 14.6494 37.2373c1.30664 4.32715 4.30176 21.7959 4.25879 18.0312c2.80859 31.667 0.185547 61.7148 -12.0479 91.6455c-13.9697 34.1787 -40.5029 63.749 -74.4111 78.9561c-13.9111 6.2334 -29.8984 10.6035 -44.3301 12.0742
c-7.01953 0.716797 -14.2305 0.673828 -21.2656 0.556641c-1.93848 -0.0322266 -12.1279 -0.664062 -12.7227 -0.541992c-114.68 -13.7148 -169.444 -143.267 -160.322 -243.016c13.0674 -142.922 166.168 -196.534 282.329 -133.269
c46.6143 25.3916 108.229 -34.6406 50.7295 -65.957c-132.377 -72.0957 -326.793 -42.457 -403.381 96.5625c-56.6865 102.897 -33.1641 240.86 41.6768 328.582c85.4922 100.211 237.939 124.344 349.879 53.4062zM269.318 345.483
c-0.520508 0.40918 -0.939453 0.717773 -1.21582 0.887695c-0.0800781 -0.0214844 -0.169922 -0.0429688 -0.254883 -0.0644531c0.361328 -0.589844 0.913086 -0.818359 1.4707 -0.823242zM268.088 346.387c-0.270508 0.169922 -0.397461 0.197266 -0.307617 0.0273438
c0.015625 -0.0429688 0.0419922 -0.0644531 0.0634766 -0.0966797c0.0849609 0.0263672 0.15918 0.0478516 0.244141 0.0693359zM230.05 208.479c-0.923828 -0.499023 -1.64062 -1.84277 0 0zM257.841 260.705c9.33984 24 16.6113 48.6533 24.5654 73.1104
c-1.22168 1.12012 -2.41113 2.28809 -3.53711 3.51953c-0.0107422 0.0107422 -3.80176 3.36133 -6.95605 6.0166c-0.525391 -0.457031 -1.05664 -0.929688 -1.57129 -1.42383c-14.5752 -14.0283 -25.1367 -29.5967 -29.7881 -49.7471
c-4.42871 -19.1943 -1.24316 -39.334 6.4502 -57.3184c3.70117 7.91699 7.74707 17.8994 10.8369 25.8428z" />
    <glyph glyph-name="A" unicode="A" horiz-adv-x="378" 
d="M297.515 655.292c40.959 -48.2021 44.8096 -101.737 52.7109 -184.399c11.5059 -120.388 34.8789 -315.351 -6.75488 -336.351c-3.13281 -1.57715 -12.9873 -5.37891 -22.1729 -15.292c-16.6885 -18.0107 -14.6074 -38.3096 -22.1738 -39.7588
c-4.54492 -0.871094 -12.3984 5.0918 -26.7617 37.5127c-2.86719 -23.6123 -9.53613 -43.46 -23.7021 -48.9873c-6.46191 -2.5166 -8.96289 0.0957031 -14.5273 -3.05859c-17.4482 -9.88184 -7.5459 -43.8906 -22.1738 -51.2285
c-6.83398 -3.4248 -15.3457 0.801758 -18.3506 2.29395c-31.4287 15.6055 -28.2217 80.7031 -38.2783 80.6875c-5.23047 -0.0107422 -7.01465 -17.6387 -18.2979 -19.5186c-4.55566 -0.759766 -8.41016 1.42773 -9.93945 2.29297
c-14.0498 7.96973 -14.2783 31.6992 -15.9404 31.5244c-2.38965 -0.25 8.53809 -47.793 -10.8213 -61.3438c-0.631836 -0.44043 -8.74023 -5.95215 -16.0566 -3.05859c-17.0703 6.74902 -0.753906 47.7246 -18.0957 96.585
c-10.5078 29.6016 -21.1484 27.6689 -38.4902 65.5117c-6.02148 13.1309 -19.5449 42.6426 -21.4561 76.46c-4.07227 72.0527 45.584 143.495 104.824 172.709c45.7324 22.5449 94.8105 22.6777 139.009 6.45605c-0.594727 10.9756 -1.18945 21.9453 -1.88477 32.9043
c-2.19336 34.5713 -5.13477 69.2334 -23.3096 99.8066c-10.3066 17.3359 -24.8447 38.7764 -43.71 31.9697c-22.7578 -8.21387 -40.2002 -32.458 -49.8213 -53.2725c-9.78027 -21.1543 -14.8828 -42.2393 -16.7197 -60.3506c-5.15527 -50.835 -105.557 -49.7734 -100.513 0
c6.1748 60.9346 30.9238 120.897 81.0264 158.591c63.7012 47.9199 149.841 43.1465 202.381 -18.6855zM239.247 198.255c4.99609 5.58008 11.0303 9.93457 17.625 13.083c-0.276367 50.9736 -1.00391 101.974 -2.55957 152.937
c-4.4707 2.72949 -8.66016 6.00586 -12.3984 9.86035c-66.2393 68.2246 -135.261 -19.5928 -135.171 -88.9648c0.0957031 -69.4355 67.667 -159.393 132.504 -86.915z" />
    <glyph glyph-name="A" unicode="&#xc5;" horiz-adv-x="378" 
d="M297.515 655.292c40.959 -48.2021 44.8096 -101.737 52.7109 -184.399c11.5059 -120.388 34.8789 -315.351 -6.75488 -336.351c-3.13281 -1.57715 -12.9873 -5.37891 -22.1729 -15.292c-16.6885 -18.0107 -14.6074 -38.3096 -22.1738 -39.7588
c-4.54492 -0.871094 -12.3984 5.0918 -26.7617 37.5127c-2.86719 -23.6123 -9.53613 -43.46 -23.7021 -48.9873c-6.46191 -2.5166 -8.96289 0.0957031 -14.5273 -3.05859c-17.4482 -9.88184 -7.5459 -43.8906 -22.1738 -51.2285
c-6.83398 -3.4248 -15.3457 0.801758 -18.3506 2.29395c-31.4287 15.6055 -28.2217 80.7031 -38.2783 80.6875c-5.23047 -0.0107422 -7.01465 -17.6387 -18.2979 -19.5186c-4.55566 -0.759766 -8.41016 1.42773 -9.93945 2.29297
c-14.0498 7.96973 -14.2783 31.6992 -15.9404 31.5244c-2.38965 -0.25 8.53809 -47.793 -10.8213 -61.3438c-0.631836 -0.44043 -8.74023 -5.95215 -16.0566 -3.05859c-17.0703 6.74902 -0.753906 47.7246 -18.0957 96.585
c-10.5078 29.6016 -21.1484 27.6689 -38.4902 65.5117c-6.02148 13.1309 -19.5449 42.6426 -21.4561 76.46c-4.07227 72.0527 45.584 143.495 104.824 172.709c45.7324 22.5449 94.8105 22.6777 139.009 6.45605c-0.594727 10.9756 -1.18945 21.9453 -1.88477 32.9043
c-2.19336 34.5713 -5.13477 69.2334 -23.3096 99.8066c-10.3066 17.3359 -24.8447 38.7764 -43.71 31.9697c-22.7578 -8.21387 -40.2002 -32.458 -49.8213 -53.2725c-9.78027 -21.1543 -14.8828 -42.2393 -16.7197 -60.3506c-5.15527 -50.835 -105.557 -49.7734 -100.513 0
c6.1748 60.9346 30.9238 120.897 81.0264 158.591c63.7012 47.9199 149.841 43.1465 202.381 -18.6855zM239.247 198.255c4.99609 5.58008 11.0303 9.93457 17.625 13.083c-0.276367 50.9736 -1.00391 101.974 -2.55957 152.937
c-4.4707 2.72949 -8.66016 6.00586 -12.3984 9.86035c-66.2393 68.2246 -135.261 -19.5928 -135.171 -88.9648c0.0957031 -69.4355 67.667 -159.393 132.504 -86.915z" />
    <glyph glyph-name="A" unicode="&#xc4;" horiz-adv-x="378" 
d="M297.515 655.292c40.959 -48.2021 44.8096 -101.737 52.7109 -184.399c11.5059 -120.388 34.8789 -315.351 -6.75488 -336.351c-3.13281 -1.57715 -12.9873 -5.37891 -22.1729 -15.292c-16.6885 -18.0107 -14.6074 -38.3096 -22.1738 -39.7588
c-4.54492 -0.871094 -12.3984 5.0918 -26.7617 37.5127c-2.86719 -23.6123 -9.53613 -43.46 -23.7021 -48.9873c-6.46191 -2.5166 -8.96289 0.0957031 -14.5273 -3.05859c-17.4482 -9.88184 -7.5459 -43.8906 -22.1738 -51.2285
c-6.83398 -3.4248 -15.3457 0.801758 -18.3506 2.29395c-31.4287 15.6055 -28.2217 80.7031 -38.2783 80.6875c-5.23047 -0.0107422 -7.01465 -17.6387 -18.2979 -19.5186c-4.55566 -0.759766 -8.41016 1.42773 -9.93945 2.29297
c-14.0498 7.96973 -14.2783 31.6992 -15.9404 31.5244c-2.38965 -0.25 8.53809 -47.793 -10.8213 -61.3438c-0.631836 -0.44043 -8.74023 -5.95215 -16.0566 -3.05859c-17.0703 6.74902 -0.753906 47.7246 -18.0957 96.585
c-10.5078 29.6016 -21.1484 27.6689 -38.4902 65.5117c-6.02148 13.1309 -19.5449 42.6426 -21.4561 76.46c-4.07227 72.0527 45.584 143.495 104.824 172.709c45.7324 22.5449 94.8105 22.6777 139.009 6.45605c-0.594727 10.9756 -1.18945 21.9453 -1.88477 32.9043
c-2.19336 34.5713 -5.13477 69.2334 -23.3096 99.8066c-10.3066 17.3359 -24.8447 38.7764 -43.71 31.9697c-22.7578 -8.21387 -40.2002 -32.458 -49.8213 -53.2725c-9.78027 -21.1543 -14.8828 -42.2393 -16.7197 -60.3506c-5.15527 -50.835 -105.557 -49.7734 -100.513 0
c6.1748 60.9346 30.9238 120.897 81.0264 158.591c63.7012 47.9199 149.841 43.1465 202.381 -18.6855zM239.247 198.255c4.99609 5.58008 11.0303 9.93457 17.625 13.083c-0.276367 50.9736 -1.00391 101.974 -2.55957 152.937
c-4.4707 2.72949 -8.66016 6.00586 -12.3984 9.86035c-66.2393 68.2246 -135.261 -19.5928 -135.171 -88.9648c0.0957031 -69.4355 67.667 -159.393 132.504 -86.915z" />
    <glyph glyph-name="A" unicode="&#xc3;" horiz-adv-x="378" 
d="M297.515 655.292c40.959 -48.2021 44.8096 -101.737 52.7109 -184.399c11.5059 -120.388 34.8789 -315.351 -6.75488 -336.351c-3.13281 -1.57715 -12.9873 -5.37891 -22.1729 -15.292c-16.6885 -18.0107 -14.6074 -38.3096 -22.1738 -39.7588
c-4.54492 -0.871094 -12.3984 5.0918 -26.7617 37.5127c-2.86719 -23.6123 -9.53613 -43.46 -23.7021 -48.9873c-6.46191 -2.5166 -8.96289 0.0957031 -14.5273 -3.05859c-17.4482 -9.88184 -7.5459 -43.8906 -22.1738 -51.2285
c-6.83398 -3.4248 -15.3457 0.801758 -18.3506 2.29395c-31.4287 15.6055 -28.2217 80.7031 -38.2783 80.6875c-5.23047 -0.0107422 -7.01465 -17.6387 -18.2979 -19.5186c-4.55566 -0.759766 -8.41016 1.42773 -9.93945 2.29297
c-14.0498 7.96973 -14.2783 31.6992 -15.9404 31.5244c-2.38965 -0.25 8.53809 -47.793 -10.8213 -61.3438c-0.631836 -0.44043 -8.74023 -5.95215 -16.0566 -3.05859c-17.0703 6.74902 -0.753906 47.7246 -18.0957 96.585
c-10.5078 29.6016 -21.1484 27.6689 -38.4902 65.5117c-6.02148 13.1309 -19.5449 42.6426 -21.4561 76.46c-4.07227 72.0527 45.584 143.495 104.824 172.709c45.7324 22.5449 94.8105 22.6777 139.009 6.45605c-0.594727 10.9756 -1.18945 21.9453 -1.88477 32.9043
c-2.19336 34.5713 -5.13477 69.2334 -23.3096 99.8066c-10.3066 17.3359 -24.8447 38.7764 -43.71 31.9697c-22.7578 -8.21387 -40.2002 -32.458 -49.8213 -53.2725c-9.78027 -21.1543 -14.8828 -42.2393 -16.7197 -60.3506c-5.15527 -50.835 -105.557 -49.7734 -100.513 0
c6.1748 60.9346 30.9238 120.897 81.0264 158.591c63.7012 47.9199 149.841 43.1465 202.381 -18.6855zM239.247 198.255c4.99609 5.58008 11.0303 9.93457 17.625 13.083c-0.276367 50.9736 -1.00391 101.974 -2.55957 152.937
c-4.4707 2.72949 -8.66016 6.00586 -12.3984 9.86035c-66.2393 68.2246 -135.261 -19.5928 -135.171 -88.9648c0.0957031 -69.4355 67.667 -159.393 132.504 -86.915z" />
    <glyph glyph-name="A" unicode="&#xc2;" horiz-adv-x="378" 
d="M297.515 655.292c40.959 -48.2021 44.8096 -101.737 52.7109 -184.399c11.5059 -120.388 34.8789 -315.351 -6.75488 -336.351c-3.13281 -1.57715 -12.9873 -5.37891 -22.1729 -15.292c-16.6885 -18.0107 -14.6074 -38.3096 -22.1738 -39.7588
c-4.54492 -0.871094 -12.3984 5.0918 -26.7617 37.5127c-2.86719 -23.6123 -9.53613 -43.46 -23.7021 -48.9873c-6.46191 -2.5166 -8.96289 0.0957031 -14.5273 -3.05859c-17.4482 -9.88184 -7.5459 -43.8906 -22.1738 -51.2285
c-6.83398 -3.4248 -15.3457 0.801758 -18.3506 2.29395c-31.4287 15.6055 -28.2217 80.7031 -38.2783 80.6875c-5.23047 -0.0107422 -7.01465 -17.6387 -18.2979 -19.5186c-4.55566 -0.759766 -8.41016 1.42773 -9.93945 2.29297
c-14.0498 7.96973 -14.2783 31.6992 -15.9404 31.5244c-2.38965 -0.25 8.53809 -47.793 -10.8213 -61.3438c-0.631836 -0.44043 -8.74023 -5.95215 -16.0566 -3.05859c-17.0703 6.74902 -0.753906 47.7246 -18.0957 96.585
c-10.5078 29.6016 -21.1484 27.6689 -38.4902 65.5117c-6.02148 13.1309 -19.5449 42.6426 -21.4561 76.46c-4.07227 72.0527 45.584 143.495 104.824 172.709c45.7324 22.5449 94.8105 22.6777 139.009 6.45605c-0.594727 10.9756 -1.18945 21.9453 -1.88477 32.9043
c-2.19336 34.5713 -5.13477 69.2334 -23.3096 99.8066c-10.3066 17.3359 -24.8447 38.7764 -43.71 31.9697c-22.7578 -8.21387 -40.2002 -32.458 -49.8213 -53.2725c-9.78027 -21.1543 -14.8828 -42.2393 -16.7197 -60.3506c-5.15527 -50.835 -105.557 -49.7734 -100.513 0
c6.1748 60.9346 30.9238 120.897 81.0264 158.591c63.7012 47.9199 149.841 43.1465 202.381 -18.6855zM239.247 198.255c4.99609 5.58008 11.0303 9.93457 17.625 13.083c-0.276367 50.9736 -1.00391 101.974 -2.55957 152.937
c-4.4707 2.72949 -8.66016 6.00586 -12.3984 9.86035c-66.2393 68.2246 -135.261 -19.5928 -135.171 -88.9648c0.0957031 -69.4355 67.667 -159.393 132.504 -86.915z" />
    <glyph glyph-name="A" unicode="&#xc1;" horiz-adv-x="378" 
d="M297.515 655.292c40.959 -48.2021 44.8096 -101.737 52.7109 -184.399c11.5059 -120.388 34.8789 -315.351 -6.75488 -336.351c-3.13281 -1.57715 -12.9873 -5.37891 -22.1729 -15.292c-16.6885 -18.0107 -14.6074 -38.3096 -22.1738 -39.7588
c-4.54492 -0.871094 -12.3984 5.0918 -26.7617 37.5127c-2.86719 -23.6123 -9.53613 -43.46 -23.7021 -48.9873c-6.46191 -2.5166 -8.96289 0.0957031 -14.5273 -3.05859c-17.4482 -9.88184 -7.5459 -43.8906 -22.1738 -51.2285
c-6.83398 -3.4248 -15.3457 0.801758 -18.3506 2.29395c-31.4287 15.6055 -28.2217 80.7031 -38.2783 80.6875c-5.23047 -0.0107422 -7.01465 -17.6387 -18.2979 -19.5186c-4.55566 -0.759766 -8.41016 1.42773 -9.93945 2.29297
c-14.0498 7.96973 -14.2783 31.6992 -15.9404 31.5244c-2.38965 -0.25 8.53809 -47.793 -10.8213 -61.3438c-0.631836 -0.44043 -8.74023 -5.95215 -16.0566 -3.05859c-17.0703 6.74902 -0.753906 47.7246 -18.0957 96.585
c-10.5078 29.6016 -21.1484 27.6689 -38.4902 65.5117c-6.02148 13.1309 -19.5449 42.6426 -21.4561 76.46c-4.07227 72.0527 45.584 143.495 104.824 172.709c45.7324 22.5449 94.8105 22.6777 139.009 6.45605c-0.594727 10.9756 -1.18945 21.9453 -1.88477 32.9043
c-2.19336 34.5713 -5.13477 69.2334 -23.3096 99.8066c-10.3066 17.3359 -24.8447 38.7764 -43.71 31.9697c-22.7578 -8.21387 -40.2002 -32.458 -49.8213 -53.2725c-9.78027 -21.1543 -14.8828 -42.2393 -16.7197 -60.3506c-5.15527 -50.835 -105.557 -49.7734 -100.513 0
c6.1748 60.9346 30.9238 120.897 81.0264 158.591c63.7012 47.9199 149.841 43.1465 202.381 -18.6855zM239.247 198.255c4.99609 5.58008 11.0303 9.93457 17.625 13.083c-0.276367 50.9736 -1.00391 101.974 -2.55957 152.937
c-4.4707 2.72949 -8.66016 6.00586 -12.3984 9.86035c-66.2393 68.2246 -135.261 -19.5928 -135.171 -88.9648c0.0957031 -69.4355 67.667 -159.393 132.504 -86.915z" />
    <glyph glyph-name="A" unicode="&#xc0;" horiz-adv-x="378" 
d="M297.515 655.292c40.959 -48.2021 44.8096 -101.737 52.7109 -184.399c11.5059 -120.388 34.8789 -315.351 -6.75488 -336.351c-3.13281 -1.57715 -12.9873 -5.37891 -22.1729 -15.292c-16.6885 -18.0107 -14.6074 -38.3096 -22.1738 -39.7588
c-4.54492 -0.871094 -12.3984 5.0918 -26.7617 37.5127c-2.86719 -23.6123 -9.53613 -43.46 -23.7021 -48.9873c-6.46191 -2.5166 -8.96289 0.0957031 -14.5273 -3.05859c-17.4482 -9.88184 -7.5459 -43.8906 -22.1738 -51.2285
c-6.83398 -3.4248 -15.3457 0.801758 -18.3506 2.29395c-31.4287 15.6055 -28.2217 80.7031 -38.2783 80.6875c-5.23047 -0.0107422 -7.01465 -17.6387 -18.2979 -19.5186c-4.55566 -0.759766 -8.41016 1.42773 -9.93945 2.29297
c-14.0498 7.96973 -14.2783 31.6992 -15.9404 31.5244c-2.38965 -0.25 8.53809 -47.793 -10.8213 -61.3438c-0.631836 -0.44043 -8.74023 -5.95215 -16.0566 -3.05859c-17.0703 6.74902 -0.753906 47.7246 -18.0957 96.585
c-10.5078 29.6016 -21.1484 27.6689 -38.4902 65.5117c-6.02148 13.1309 -19.5449 42.6426 -21.4561 76.46c-4.07227 72.0527 45.584 143.495 104.824 172.709c45.7324 22.5449 94.8105 22.6777 139.009 6.45605c-0.594727 10.9756 -1.18945 21.9453 -1.88477 32.9043
c-2.19336 34.5713 -5.13477 69.2334 -23.3096 99.8066c-10.3066 17.3359 -24.8447 38.7764 -43.71 31.9697c-22.7578 -8.21387 -40.2002 -32.458 -49.8213 -53.2725c-9.78027 -21.1543 -14.8828 -42.2393 -16.7197 -60.3506c-5.15527 -50.835 -105.557 -49.7734 -100.513 0
c6.1748 60.9346 30.9238 120.897 81.0264 158.591c63.7012 47.9199 149.841 43.1465 202.381 -18.6855zM239.247 198.255c4.99609 5.58008 11.0303 9.93457 17.625 13.083c-0.276367 50.9736 -1.00391 101.974 -2.55957 152.937
c-4.4707 2.72949 -8.66016 6.00586 -12.3984 9.86035c-66.2393 68.2246 -135.261 -19.5928 -135.171 -88.9648c0.0957031 -69.4355 67.667 -159.393 132.504 -86.915z" />
    <glyph glyph-name="B" unicode="B" horiz-adv-x="349" 
d="M276.946 395.928c13.168 -8.42676 79.1904 -65.4404 69.8721 -148.983c-8.13965 -72.9932 -69.0684 -123.686 -87.4883 -120.568c-1.65625 0.28125 -6.95508 1.67285 -11.7236 -1.01953c-9.53613 -5.38965 -7.60352 -21.8389 -11.7236 -22.4287
c-4.74121 -0.679688 -8.90918 20.8408 -13.2529 20.708c-10.3223 -0.318359 1.40723 -119.734 -42.3135 -140.495c-8.25098 -3.91895 -16.4014 -1.98633 -18.3496 -1.5293c-28.8262 6.8125 -46.2842 60.0801 -45.5088 134.215
c-11.5752 1.74121 -26.0918 2.04395 -33.2441 -6.44141c-5.0332 -5.97363 -4.20508 -13.1367 -2.29395 -31.4287c3.45703 -33.0635 5.82031 -58.1621 -6.11621 -67.2842c-3.91309 -2.99512 -10.1045 -4.83203 -15.292 -3.05859
c-18.3447 6.26562 -18.3496 55.6777 -18.3496 68.8145c0 18.3447 2.35742 25.5664 -1.83203 39.2705c-5.1875 16.9756 -17.3311 26.7451 -17.3311 29.6279c0.180664 174.711 0.361328 349.428 0.541992 524.145c0.0371094 35.9199 50.0762 46.3799 79.5234 31.6133
c49.2588 9.55176 101.645 -0.180664 143.836 -29.002c47.75 -32.6172 73.9854 -91.6826 63.3867 -148.672c-9.27637 -49.874 -39.4092 -84.9023 -78.584 -105.972c16.1631 -5.06055 31.7422 -12.2236 46.2432 -21.5107zM123.008 624.97
c-0.0527344 -52.1895 -0.107422 -104.373 -0.166016 -156.557c39.8867 -3.76465 75.2871 20.4102 85.9229 59.5322c15.8818 58.4014 -32.6543 107.602 -85.7568 97.0244zM246.383 249.678c7.0459 30.292 -4.2959 62.9531 -27.7061 83.1035
c-26.1396 22.4863 -58.0352 20.9521 -87.1377 5.87207c-2.89355 -1.50293 -5.8457 -2.67676 -8.82422 -3.56348c-0.0478516 -47.5322 -0.100586 -95.0703 -0.148438 -142.608c1.8584 -0.546875 3.68457 -1.1416 5.44727 -1.81641
c52.0195 -20.0439 106.269 6.98828 118.369 59.0127z" />
    <glyph glyph-name="C" unicode="C" horiz-adv-x="357" 
d="M257.458 261.268c13.4336 46.7734 111.925 31.9365 96.9297 -20.2842c-7.77344 -27.0693 -17.7295 -78.3291 -61.4922 -101.937c-22.1309 -11.9365 -29.4902 -4.49805 -39.4355 -16.3809c-18.5996 -22.2266 -0.349609 -57.2705 -20.9463 -72.2119
c-2.1875 -1.59277 -8.62793 -6.25977 -15.292 -4.58691c-23.6865 5.94141 -32.6338 69.3662 -35.1875 68.7715c-1.45508 -0.339844 4.49707 -20.7188 -4.07812 -27.1758c-0.419922 -0.313477 -3.19727 -2.3418 -6.61133 -1.83691
c-9.9082 1.45996 -12.3662 22.375 -15.1592 22.0303c-3.25 -0.40332 -2.45898 -29.0068 -2.17188 -47.5215c0.849609 -54.4668 -1.93848 -65.7979 -10.1953 -72.3818c-6 -4.78906 -16.8154 -8.60156 -24.4668 -4.58789c-21.3555 11.1875 -15.9609 82.1357 -8.15527 107.633
c1.44922 4.74121 4.5293 12.9551 1.17383 20.7285c-1.84277 4.25879 -6.33984 13.8535 -11.6865 18.5312c-5.50586 5.86719 -9.57324 7.69922 -15.3926 11.6494c-61.8262 41.9199 -73.5762 153.451 -77.0967 195.281c-6.70117 79.6084 1.67188 165.021 29.0488 240.371
c29.373 80.8301 92.7178 147.887 187.029 126.223c92.8887 -21.335 121.742 -124.716 108.696 -208.514c-3.89746 -25.0195 -25.4766 -38.1934 -50.2568 -38.1934c-18.8125 0 -54.1064 13.4707 -50.2568 38.1924c3.82324 24.5732 4.32812 51.4932 -0.174805 75.9443
c-4.24805 23.0703 -19.917 68.7822 -51.1064 58.248c-3.30273 -1.11523 -13.2422 -10.4551 -13.8154 -11.1455c-5.78223 -6.99316 -14.3252 -19.1738 -16.9961 -24c-13.625 -24.6211 -22.2959 -52.4551 -29.0127 -79.6514
c-14.915 -60.3613 -18.0957 -124.684 -11.8145 -186.446c4.7041 -46.2266 15.6523 -104.373 50.2295 -135.122c49.5293 -44.0498 85.6191 26.3252 97.6934 68.373z" />
    <glyph glyph-name="C" unicode="&#xc7;" horiz-adv-x="357" 
d="M257.458 261.268c13.4336 46.7734 111.925 31.9365 96.9297 -20.2842c-7.77344 -27.0693 -17.7295 -78.3291 -61.4922 -101.937c-22.1309 -11.9365 -29.4902 -4.49805 -39.4355 -16.3809c-18.5996 -22.2266 -0.349609 -57.2705 -20.9463 -72.2119
c-2.1875 -1.59277 -8.62793 -6.25977 -15.292 -4.58691c-23.6865 5.94141 -32.6338 69.3662 -35.1875 68.7715c-1.45508 -0.339844 4.49707 -20.7188 -4.07812 -27.1758c-0.419922 -0.313477 -3.19727 -2.3418 -6.61133 -1.83691
c-9.9082 1.45996 -12.3662 22.375 -15.1592 22.0303c-3.25 -0.40332 -2.45898 -29.0068 -2.17188 -47.5215c0.849609 -54.4668 -1.93848 -65.7979 -10.1953 -72.3818c-6 -4.78906 -16.8154 -8.60156 -24.4668 -4.58789c-21.3555 11.1875 -15.9609 82.1357 -8.15527 107.633
c1.44922 4.74121 4.5293 12.9551 1.17383 20.7285c-1.84277 4.25879 -6.33984 13.8535 -11.6865 18.5312c-5.50586 5.86719 -9.57324 7.69922 -15.3926 11.6494c-61.8262 41.9199 -73.5762 153.451 -77.0967 195.281c-6.70117 79.6084 1.67188 165.021 29.0488 240.371
c29.373 80.8301 92.7178 147.887 187.029 126.223c92.8887 -21.335 121.742 -124.716 108.696 -208.514c-3.89746 -25.0195 -25.4766 -38.1934 -50.2568 -38.1934c-18.8125 0 -54.1064 13.4707 -50.2568 38.1924c3.82324 24.5732 4.32812 51.4932 -0.174805 75.9443
c-4.24805 23.0703 -19.917 68.7822 -51.1064 58.248c-3.30273 -1.11523 -13.2422 -10.4551 -13.8154 -11.1455c-5.78223 -6.99316 -14.3252 -19.1738 -16.9961 -24c-13.625 -24.6211 -22.2959 -52.4551 -29.0127 -79.6514
c-14.915 -60.3613 -18.0957 -124.684 -11.8145 -186.446c4.7041 -46.2266 15.6523 -104.373 50.2295 -135.122c49.5293 -44.0498 85.6191 26.3252 97.6934 68.373z" />
    <glyph glyph-name="D" unicode="D" horiz-adv-x="365" 
d="M61.8213 698.338c90.3613 18.9766 186.826 -7.14258 240.406 -85.7051c49.7256 -72.8975 63.7109 -169.146 57.127 -255.907c-4.78418 -63.0107 -10.0674 -130.322 -57.0371 -172.137c-20.1133 -17.9043 -40.5449 -24.5947 -48.9287 -50.3525
c-7.08301 -21.7588 -10.6562 -72.8008 -18.0527 -89.4258c-0.886719 -1.99121 -3.06348 -6.73242 -6.62598 -7.13574c-3.70605 -0.419922 -7.01953 4.06641 -8.15625 5.60645c-13.1201 17.7822 2.97852 66.6533 -11.7715 76.2852
c-4.29004 2.80371 -11.0488 2.19824 -15.2383 -0.461914c-17.7822 -11.3096 -2.44727 -68.3418 -13.2578 -73.7793c-3.78027 -1.90625 -7.64551 -1.5293 -7.64551 -1.5293s-3.42969 0.334961 -6.62598 2.54883c-10.0566 6.9668 -3.93945 64.0039 -12.9873 66.6855
c-2.00684 0.594727 -4.18945 -1.65137 -7.90137 -5.45801c-11.6709 -11.9785 -9.14844 -24.7852 -18.8701 -29.6221c-0.5625 -0.28125 -3.53027 -1.70996 -7.13574 -1.5293c-10.4336 0.525391 -20.0811 14.1875 -24.4404 34.168
c0.568359 -68.2197 -7.74707 -118.54 -19.9062 -124.392c-10.8213 -5.20312 -19.8799 -3.05762 -19.8799 -3.05762s-4.59863 1.08887 -8.5918 3.94043c-16.6836 11.8994 2.49512 75.2334 -14.8408 142.561c-1.90137 7.38574 -4.93848 10.959 -5.16699 17.0117
c-6.56836 171.558 -7.02539 343.269 -1.37012 514.857c0.583984 17.7129 13.0986 29.1982 29.1025 34.5557c2.56445 0.956055 5.17676 1.7207 7.79492 2.27246zM125.531 184.286c107.963 -7.10938 136.2 125.745 134.756 215.41
c-1.45996 90.8809 -33.2598 223.242 -135.817 228.085c-4.17871 -147.817 -3.82324 -295.704 1.06152 -443.495z" />
    <glyph glyph-name="E" unicode="E" horiz-adv-x="305" 
d="M258.281 187.026c21.1543 0 50.6426 -13.0146 50.2607 -38.1934c-0.254883 -16.7578 -25.8955 -35.1299 -50.2568 -38.1934c-27.9932 -3.52539 -51.5576 13.4395 -60.9238 2.65527c-4.90137 -5.64453 -3.06445 -15.6113 -6.11719 -15.9727
c-3.65332 -0.435547 -6.41406 13.8154 -9.37207 13.6191c-7.70996 -0.504883 1.35938 -97.8906 -22.2373 -104.353c-3.93457 -1.07812 -7.54004 0.710938 -8.15625 1.01855c-16.8584 8.38379 -2.59082 53.6328 -20.3887 62.6963
c-3.44629 1.75195 -4.24805 0.196289 -8.66602 2.03906c-12.7695 5.3252 -17.4795 23.1289 -19.4072 38.2881c-14.0703 -51.7969 -27.8223 -89.0762 -34.6504 -92.7295c-3.28125 -1.75781 -6.59961 -2.13965 -6.59961 -2.13965
c-2.62305 -1.7207 -4.99609 -2.30469 -7.13574 -2.03906c-9.80664 1.22168 -22.5762 21.2285 -28.2891 119.533c-0.148438 8.38965 -0.296875 16.7842 -0.44043 25.1738c-4.93262 167.898 -5.20312 335.888 -0.72168 503.808
c0.865234 32.5166 42.0586 44.1025 71.4375 35.1182c48.6533 -0.457031 97.3066 -0.914062 145.965 -1.37109c21.1484 -0.196289 50.6436 -12.8652 50.2559 -38.1924c-0.381836 -24.9395 -28.3379 -38.3994 -50.2568 -38.1924
c-39.2812 0.37207 -78.5625 0.738281 -117.844 1.11035l-2.13574 -232.471c22.1416 0.117188 44.2832 0.228516 66.4248 0.345703c21.4668 0.111328 50.2559 -13.0996 50.2559 -38.1934c0 -25.1572 -28.6143 -38.0811 -50.2568 -38.1924
c-21.9287 -0.117188 -43.8633 -0.234375 -65.792 -0.345703c0.801758 -41.6123 1.59863 -83.2197 2.40039 -124.827h132.647z" />
    <glyph glyph-name="E" unicode="&#xcb;" horiz-adv-x="305" 
d="M258.281 187.026c21.1543 0 50.6426 -13.0146 50.2607 -38.1934c-0.254883 -16.7578 -25.8955 -35.1299 -50.2568 -38.1934c-27.9932 -3.52539 -51.5576 13.4395 -60.9238 2.65527c-4.90137 -5.64453 -3.06445 -15.6113 -6.11719 -15.9727
c-3.65332 -0.435547 -6.41406 13.8154 -9.37207 13.6191c-7.70996 -0.504883 1.35938 -97.8906 -22.2373 -104.353c-3.93457 -1.07812 -7.54004 0.710938 -8.15625 1.01855c-16.8584 8.38379 -2.59082 53.6328 -20.3887 62.6963
c-3.44629 1.75195 -4.24805 0.196289 -8.66602 2.03906c-12.7695 5.3252 -17.4795 23.1289 -19.4072 38.2881c-14.0703 -51.7969 -27.8223 -89.0762 -34.6504 -92.7295c-3.28125 -1.75781 -6.59961 -2.13965 -6.59961 -2.13965
c-2.62305 -1.7207 -4.99609 -2.30469 -7.13574 -2.03906c-9.80664 1.22168 -22.5762 21.2285 -28.2891 119.533c-0.148438 8.38965 -0.296875 16.7842 -0.44043 25.1738c-4.93262 167.898 -5.20312 335.888 -0.72168 503.808
c0.865234 32.5166 42.0586 44.1025 71.4375 35.1182c48.6533 -0.457031 97.3066 -0.914062 145.965 -1.37109c21.1484 -0.196289 50.6436 -12.8652 50.2559 -38.1924c-0.381836 -24.9395 -28.3379 -38.3994 -50.2568 -38.1924
c-39.2812 0.37207 -78.5625 0.738281 -117.844 1.11035l-2.13574 -232.471c22.1416 0.117188 44.2832 0.228516 66.4248 0.345703c21.4668 0.111328 50.2559 -13.0996 50.2559 -38.1934c0 -25.1572 -28.6143 -38.0811 -50.2568 -38.1924
c-21.9287 -0.117188 -43.8633 -0.234375 -65.792 -0.345703c0.801758 -41.6123 1.59863 -83.2197 2.40039 -124.827h132.647z" />
    <glyph glyph-name="E" unicode="&#xca;" horiz-adv-x="305" 
d="M258.281 187.026c21.1543 0 50.6426 -13.0146 50.2607 -38.1934c-0.254883 -16.7578 -25.8955 -35.1299 -50.2568 -38.1934c-27.9932 -3.52539 -51.5576 13.4395 -60.9238 2.65527c-4.90137 -5.64453 -3.06445 -15.6113 -6.11719 -15.9727
c-3.65332 -0.435547 -6.41406 13.8154 -9.37207 13.6191c-7.70996 -0.504883 1.35938 -97.8906 -22.2373 -104.353c-3.93457 -1.07812 -7.54004 0.710938 -8.15625 1.01855c-16.8584 8.38379 -2.59082 53.6328 -20.3887 62.6963
c-3.44629 1.75195 -4.24805 0.196289 -8.66602 2.03906c-12.7695 5.3252 -17.4795 23.1289 -19.4072 38.2881c-14.0703 -51.7969 -27.8223 -89.0762 -34.6504 -92.7295c-3.28125 -1.75781 -6.59961 -2.13965 -6.59961 -2.13965
c-2.62305 -1.7207 -4.99609 -2.30469 -7.13574 -2.03906c-9.80664 1.22168 -22.5762 21.2285 -28.2891 119.533c-0.148438 8.38965 -0.296875 16.7842 -0.44043 25.1738c-4.93262 167.898 -5.20312 335.888 -0.72168 503.808
c0.865234 32.5166 42.0586 44.1025 71.4375 35.1182c48.6533 -0.457031 97.3066 -0.914062 145.965 -1.37109c21.1484 -0.196289 50.6436 -12.8652 50.2559 -38.1924c-0.381836 -24.9395 -28.3379 -38.3994 -50.2568 -38.1924
c-39.2812 0.37207 -78.5625 0.738281 -117.844 1.11035l-2.13574 -232.471c22.1416 0.117188 44.2832 0.228516 66.4248 0.345703c21.4668 0.111328 50.2559 -13.0996 50.2559 -38.1934c0 -25.1572 -28.6143 -38.0811 -50.2568 -38.1924
c-21.9287 -0.117188 -43.8633 -0.234375 -65.792 -0.345703c0.801758 -41.6123 1.59863 -83.2197 2.40039 -124.827h132.647z" />
    <glyph glyph-name="E" unicode="&#xc9;" horiz-adv-x="305" 
d="M258.281 187.026c21.1543 0 50.6426 -13.0146 50.2607 -38.1934c-0.254883 -16.7578 -25.8955 -35.1299 -50.2568 -38.1934c-27.9932 -3.52539 -51.5576 13.4395 -60.9238 2.65527c-4.90137 -5.64453 -3.06445 -15.6113 -6.11719 -15.9727
c-3.65332 -0.435547 -6.41406 13.8154 -9.37207 13.6191c-7.70996 -0.504883 1.35938 -97.8906 -22.2373 -104.353c-3.93457 -1.07812 -7.54004 0.710938 -8.15625 1.01855c-16.8584 8.38379 -2.59082 53.6328 -20.3887 62.6963
c-3.44629 1.75195 -4.24805 0.196289 -8.66602 2.03906c-12.7695 5.3252 -17.4795 23.1289 -19.4072 38.2881c-14.0703 -51.7969 -27.8223 -89.0762 -34.6504 -92.7295c-3.28125 -1.75781 -6.59961 -2.13965 -6.59961 -2.13965
c-2.62305 -1.7207 -4.99609 -2.30469 -7.13574 -2.03906c-9.80664 1.22168 -22.5762 21.2285 -28.2891 119.533c-0.148438 8.38965 -0.296875 16.7842 -0.44043 25.1738c-4.93262 167.898 -5.20312 335.888 -0.72168 503.808
c0.865234 32.5166 42.0586 44.1025 71.4375 35.1182c48.6533 -0.457031 97.3066 -0.914062 145.965 -1.37109c21.1484 -0.196289 50.6436 -12.8652 50.2559 -38.1924c-0.381836 -24.9395 -28.3379 -38.3994 -50.2568 -38.1924
c-39.2812 0.37207 -78.5625 0.738281 -117.844 1.11035l-2.13574 -232.471c22.1416 0.117188 44.2832 0.228516 66.4248 0.345703c21.4668 0.111328 50.2559 -13.0996 50.2559 -38.1934c0 -25.1572 -28.6143 -38.0811 -50.2568 -38.1924
c-21.9287 -0.117188 -43.8633 -0.234375 -65.792 -0.345703c0.801758 -41.6123 1.59863 -83.2197 2.40039 -124.827h132.647z" />
    <glyph glyph-name="E" unicode="&#xc8;" horiz-adv-x="305" 
d="M258.281 187.026c21.1543 0 50.6426 -13.0146 50.2607 -38.1934c-0.254883 -16.7578 -25.8955 -35.1299 -50.2568 -38.1934c-27.9932 -3.52539 -51.5576 13.4395 -60.9238 2.65527c-4.90137 -5.64453 -3.06445 -15.6113 -6.11719 -15.9727
c-3.65332 -0.435547 -6.41406 13.8154 -9.37207 13.6191c-7.70996 -0.504883 1.35938 -97.8906 -22.2373 -104.353c-3.93457 -1.07812 -7.54004 0.710938 -8.15625 1.01855c-16.8584 8.38379 -2.59082 53.6328 -20.3887 62.6963
c-3.44629 1.75195 -4.24805 0.196289 -8.66602 2.03906c-12.7695 5.3252 -17.4795 23.1289 -19.4072 38.2881c-14.0703 -51.7969 -27.8223 -89.0762 -34.6504 -92.7295c-3.28125 -1.75781 -6.59961 -2.13965 -6.59961 -2.13965
c-2.62305 -1.7207 -4.99609 -2.30469 -7.13574 -2.03906c-9.80664 1.22168 -22.5762 21.2285 -28.2891 119.533c-0.148438 8.38965 -0.296875 16.7842 -0.44043 25.1738c-4.93262 167.898 -5.20312 335.888 -0.72168 503.808
c0.865234 32.5166 42.0586 44.1025 71.4375 35.1182c48.6533 -0.457031 97.3066 -0.914062 145.965 -1.37109c21.1484 -0.196289 50.6436 -12.8652 50.2559 -38.1924c-0.381836 -24.9395 -28.3379 -38.3994 -50.2568 -38.1924
c-39.2812 0.37207 -78.5625 0.738281 -117.844 1.11035l-2.13574 -232.471c22.1416 0.117188 44.2832 0.228516 66.4248 0.345703c21.4668 0.111328 50.2559 -13.0996 50.2559 -38.1934c0 -25.1572 -28.6143 -38.0811 -50.2568 -38.1924
c-21.9287 -0.117188 -43.8633 -0.234375 -65.792 -0.345703c0.801758 -41.6123 1.59863 -83.2197 2.40039 -124.827h132.647z" />
    <glyph glyph-name="F" unicode="F" horiz-adv-x="309" 
d="M267.885 695.227c17.0654 -0.143555 46.1328 -16.2705 50.248 -38.1992c1.41211 -7.48145 0.169922 -18.2549 -6.53613 -25.5029c-12.9502 -13.9961 -33.9922 -1.56641 -43.7139 -12.6904c-12.8066 -14.6494 13.668 -47.6973 0.898438 -60.7109
c-5.98438 -6.10059 -18.4678 -5.63379 -26.7617 -1.5293c-21.6162 10.6934 -12.0059 44.7021 -29.8574 62.6973c-11.1348 11.2246 -34.6357 17.9092 -88.0518 0.72168c-1.9541 -77.2725 -2.80371 -154.561 -2.49023 -231.844
c28.1465 0.132812 56.293 0.265625 84.4453 0.392578c20.373 0.0957031 51.4619 -22.1309 50.2568 -38.1924c-0.902344 -12.0527 -19.5977 -11.7178 -32.3623 -32.7441c-12.8916 -21.2393 -6.44043 -42.377 -13.2852 -43.9326
c-7.80566 -1.77344 -13.2002 26.3633 -35.1719 38.3418c-17.501 9.53613 -38.4482 4.96973 -53.1934 -0.25c0.579102 -82.0088 -3.29199 -137.989 -6.45117 -171.133c-0.636719 -6.7168 -1.95312 -16.4551 -4.58691 -35.9365
c-11.3945 -84.3076 -18.2119 -102.308 -32.1123 -107.809c-2.28809 -0.902344 -8.70801 -3.44531 -14.5273 -0.763672c-14.4004 6.63672 -7.35938 37.0771 -18.085 87.2061c0 0 -3.2334 21.584 -5.68652 21.3613c-1.15234 -0.100586 -0.875977 -6.34473 -4.52344 -15.541
c-1.64062 -4.13672 -3.25977 -8.21973 -4.58691 -8.15625c-5.07129 0.254883 -5.7666 58.1631 -5.7666 58.1631s-3.67969 12.7861 -4.87402 239.225c-0.499023 94.375 0.701172 188.761 3.58398 283.114c0.998047 32.5059 42.1914 44.0811 71.5332 35.1182
c57.2227 -0.466797 114.44 -0.939453 171.658 -1.40625z" />
    <glyph glyph-name="G" unicode="G" horiz-adv-x="381" 
d="M357.553 286.871c-0.106445 -5.32031 -0.34082 -10.6631 -0.75 -16.0098c25.5664 -69.6533 17.209 -108.706 4.11523 -131.691c-7.42285 -13.0244 -12.8867 -14.7871 -19.6143 -30.7588c-19.3701 -45.9873 1.125 -90.3125 -13.0781 -96.9766
c-5.98926 -2.80859 -14.0918 2.96875 -15.292 3.82324c-24.042 17.1348 1.59375 67.7842 -23.0967 92.1084c-7.1416 7.03516 -16.0986 9.51465 -22.0664 10.5342c-3.83398 -0.494141 -9.96094 -1.86914 -14.6816 -6.52051
c-22.7627 -22.4492 22.3115 -86.8086 -0.557617 -109.375c-4.92773 -4.86328 -13.4131 -8.17676 -20.3896 -6.11621c-28.752 8.49023 -20.7822 104.915 -33.0586 105.802c-7.01953 0.509766 -12.335 -30.791 -21.999 -30.3613
c-9.18555 0.40918 -8.88281 28.875 -27.334 37.5244c-10.7363 5.0332 -20.4053 -0.117188 -27.7168 -0.823242c-33.499 -3.24414 -83.0127 80.4316 -104.74 180.318c-13.8848 63.8438 -22.5449 150.647 11.0176 254.219c25.4443 78.5098 79.3271 151.099 167.654 156.689
c93 5.88867 150.297 -73.3594 156.308 -158.342c3.55762 -50.3096 -96.918 -50.8301 -100.513 0c-1.2793 18.1064 -6.02051 39.7334 -17.3564 58.6309c-6.39844 10.6621 -15.7969 21.9453 -28.5293 23.6973c-3.33496 0.461914 -7.07324 -0.457031 -11.6289 -1.69922
c6.23926 1.63574 -5.77637 -2.32031 -7.88965 -3.46191c-45.6904 -24.7168 -63.6582 -94.9805 -73.1631 -141.685c-18.3613 -90.2227 -1.21582 -159.689 3.46777 -178.443c16.1572 -64.6729 46.1094 -114.717 71.75 -119.639
c11.3682 -2.18262 20.9102 1.07715 20.9102 1.07715c13.2051 4.50781 20.4424 15.499 27.1963 26.3994c12.2334 19.7412 17.7871 42.4189 19.7412 65.3779c-0.0527344 0.732422 -0.126953 1.45996 -0.185547 2.1875c-10.4922 -0.738281 -20.9785 -1.86426 -31.4648 -3.52051
c-22.2588 -3.52051 -53.1562 2.1875 -61.8213 26.6758c-8.08691 22.8535 13.8105 43.6201 35.1025 46.9863c40.2002 6.36133 80.4961 8.89453 121.1 5.95801c21.4033 -1.55078 50.2568 -11.8301 50.2568 -38.1934c0 -9.67969 -4.70996 -17.9893 -11.6924 -24.3926z" />
    <glyph glyph-name="H" unicode="H" horiz-adv-x="401" 
d="M364.163 693.203c21.9766 -14.2568 19.2441 -50.0557 16.3027 -108.069c-3.78027 -74.5967 -9.91797 -195.749 -6.80664 -279.335c0.457031 -12.1543 1.92285 -45.8184 1.69434 -92.4805c-0.100586 -20.623 -0.5625 -43.8369 -1.64551 -69.3818
c-3.37695 -79.6992 -13.917 -144.096 -21.791 -143.979s-13.6719 64.7158 -20.3887 64.2275c-5.56445 -0.40332 -0.801758 -44.6758 -21.4092 -54.0312c-4.90039 -2.22461 -11.6602 -2.66504 -17.3311 0c-11.4688 5.40039 -15.4932 22.1152 -18.3496 93.791
c-1.32715 33.2764 -1.24219 39.9932 -1.24219 39.9932c0.541992 44.5117 0.5 110.947 -0.0625 203.969c-49.752 0.132812 -99.5039 0.270508 -149.256 0.40332c-0.429688 -22.4492 -0.621094 -50.6758 0.0263672 -83.2881
c0.891602 -45.0801 2.91992 -75.7969 0.0371094 -121.084c-1.13672 -17.8145 -5.33105 -79.4287 -18.7275 -80.7725c-7.92188 -0.796875 -14.166 18.0156 -20.3887 16.3115c-10.2051 -2.79785 3.45117 -54.5947 -15.8018 -65.7559
c-7.09375 -4.11523 -16.9326 -1.70508 -22.9375 1.52832c-8.86719 4.77344 -23.4375 18.9082 -22.6514 128.687c0.207031 29.5225 1.24219 47.1719 1.24219 47.1719c2.46875 42.1914 1.01367 49.9541 -1.32812 228.871c-2.02344 154.858 -1.17383 145.222 -1.1582 147.568
c0.287109 41.3252 1.08887 66.6846 1.08398 94.6934c-0.015625 50.8887 100.497 50.7559 100.513 0c0.0263672 -79.1787 0.0527344 -158.362 0.0742188 -237.541c49.752 -0.132812 99.5039 -0.270508 149.256 -0.40332c0.891602 28.3643 2.64941 82.7998 5.41016 156.765
c2.1875 58.6299 3.76953 88.9375 26.5059 106.024c16.3008 12.25 42.4463 16.9385 59.1299 6.11719z" />
    <glyph glyph-name="I" unicode="I" horiz-adv-x="147" 
d="M21 655.499c-0.015625 47.5752 100.493 47.4502 100.509 -0.0078125c0.0214844 -63.5205 6.7168 -155.479 5.74512 -291.159c-0.429688 -60.5791 -5.91504 -121.089 -5.58594 -181.668c0.111328 -20.6123 0.775391 -91.1045 -10.3701 -92.4004
c-2.01758 -0.233398 -4.41211 1.80566 -5.09668 2.38477c-6.42969 5.46875 -1.64062 14.416 -5.25684 24.9609c-2.49023 7.25879 -8.94727 15.2129 -12.0537 14.5068c-11.2197 -2.55371 26.124 -116.888 -8.68652 -134.771
c-8.46875 -4.35352 -19.7256 -2.22949 -26.5059 1.90723c-12.0801 7.36426 -14.0234 23.6016 -12.7441 85.7734c0.68457 33.2393 2.18164 74.4424 -5.60742 75.7695c-2.68652 0.457031 -4.94824 -4.09375 -8.15527 -3.33398
c-6.62109 1.55566 -6.07422 23.1348 -6.03223 25.2109c1.3916 68.3945 -0.116211 346.194 -0.15918 472.826z" />
    <glyph glyph-name="I" unicode="&#xcf;" horiz-adv-x="147" 
d="M21 655.499c-0.015625 47.5752 100.493 47.4502 100.509 -0.0078125c0.0214844 -63.5205 6.7168 -155.479 5.74512 -291.159c-0.429688 -60.5791 -5.91504 -121.089 -5.58594 -181.668c0.111328 -20.6123 0.775391 -91.1045 -10.3701 -92.4004
c-2.01758 -0.233398 -4.41211 1.80566 -5.09668 2.38477c-6.42969 5.46875 -1.64062 14.416 -5.25684 24.9609c-2.49023 7.25879 -8.94727 15.2129 -12.0537 14.5068c-11.2197 -2.55371 26.124 -116.888 -8.68652 -134.771
c-8.46875 -4.35352 -19.7256 -2.22949 -26.5059 1.90723c-12.0801 7.36426 -14.0234 23.6016 -12.7441 85.7734c0.68457 33.2393 2.18164 74.4424 -5.60742 75.7695c-2.68652 0.457031 -4.94824 -4.09375 -8.15527 -3.33398
c-6.62109 1.55566 -6.07422 23.1348 -6.03223 25.2109c1.3916 68.3945 -0.116211 346.194 -0.15918 472.826z" />
    <glyph glyph-name="I" unicode="&#xce;" horiz-adv-x="147" 
d="M21 655.499c-0.015625 47.5752 100.493 47.4502 100.509 -0.0078125c0.0214844 -63.5205 6.7168 -155.479 5.74512 -291.159c-0.429688 -60.5791 -5.91504 -121.089 -5.58594 -181.668c0.111328 -20.6123 0.775391 -91.1045 -10.3701 -92.4004
c-2.01758 -0.233398 -4.41211 1.80566 -5.09668 2.38477c-6.42969 5.46875 -1.64062 14.416 -5.25684 24.9609c-2.49023 7.25879 -8.94727 15.2129 -12.0537 14.5068c-11.2197 -2.55371 26.124 -116.888 -8.68652 -134.771
c-8.46875 -4.35352 -19.7256 -2.22949 -26.5059 1.90723c-12.0801 7.36426 -14.0234 23.6016 -12.7441 85.7734c0.68457 33.2393 2.18164 74.4424 -5.60742 75.7695c-2.68652 0.457031 -4.94824 -4.09375 -8.15527 -3.33398
c-6.62109 1.55566 -6.07422 23.1348 -6.03223 25.2109c1.3916 68.3945 -0.116211 346.194 -0.15918 472.826z" />
    <glyph glyph-name="I" unicode="&#xcd;" horiz-adv-x="147" 
d="M21 655.499c-0.015625 47.5752 100.493 47.4502 100.509 -0.0078125c0.0214844 -63.5205 6.7168 -155.479 5.74512 -291.159c-0.429688 -60.5791 -5.91504 -121.089 -5.58594 -181.668c0.111328 -20.6123 0.775391 -91.1045 -10.3701 -92.4004
c-2.01758 -0.233398 -4.41211 1.80566 -5.09668 2.38477c-6.42969 5.46875 -1.64062 14.416 -5.25684 24.9609c-2.49023 7.25879 -8.94727 15.2129 -12.0537 14.5068c-11.2197 -2.55371 26.124 -116.888 -8.68652 -134.771
c-8.46875 -4.35352 -19.7256 -2.22949 -26.5059 1.90723c-12.0801 7.36426 -14.0234 23.6016 -12.7441 85.7734c0.68457 33.2393 2.18164 74.4424 -5.60742 75.7695c-2.68652 0.457031 -4.94824 -4.09375 -8.15527 -3.33398
c-6.62109 1.55566 -6.07422 23.1348 -6.03223 25.2109c1.3916 68.3945 -0.116211 346.194 -0.15918 472.826z" />
    <glyph glyph-name="I" unicode="&#xcc;" horiz-adv-x="147" 
d="M21 655.499c-0.015625 47.5752 100.493 47.4502 100.509 -0.0078125c0.0214844 -63.5205 6.7168 -155.479 5.74512 -291.159c-0.429688 -60.5791 -5.91504 -121.089 -5.58594 -181.668c0.111328 -20.6123 0.775391 -91.1045 -10.3701 -92.4004
c-2.01758 -0.233398 -4.41211 1.80566 -5.09668 2.38477c-6.42969 5.46875 -1.64062 14.416 -5.25684 24.9609c-2.49023 7.25879 -8.94727 15.2129 -12.0537 14.5068c-11.2197 -2.55371 26.124 -116.888 -8.68652 -134.771
c-8.46875 -4.35352 -19.7256 -2.22949 -26.5059 1.90723c-12.0801 7.36426 -14.0234 23.6016 -12.7441 85.7734c0.68457 33.2393 2.18164 74.4424 -5.60742 75.7695c-2.68652 0.457031 -4.94824 -4.09375 -8.15527 -3.33398
c-6.62109 1.55566 -6.07422 23.1348 -6.03223 25.2109c1.3916 68.3945 -0.116211 346.194 -0.15918 472.826z" />
    <glyph glyph-name="J" unicode="J" horiz-adv-x="326" 
d="M298.091 657.708c5.49023 -53.5117 9.59766 -107.175 12.0186 -160.92c2.30957 -51.2598 2.11816 6.85547 -2.41602 -200.001c-2.0127 -91.8105 -3.46191 -129.371 -31.5928 -152.064c-24.3242 -19.6191 -42.5527 -7.11426 -61.6836 -28.7988
c-34.0195 -38.5645 -4.67773 -110.214 -29.0498 -120.037c-6.4248 -2.59082 -13.1738 0.494141 -14.2725 1.01953c-28.752 13.7363 -0.647461 95.6172 -31.6035 113.16c-4.6084 2.6123 -12.7637 5.07031 -17.7227 1.64551
c-11.3252 -7.82129 4.70508 -38.958 -9.80078 -51.6006c-0.801758 -0.701172 -6.62109 -5.63379 -12.2334 -4.07812c-13.625 3.78027 -6.36621 40.4014 -19.0244 73.9482c-11.9199 31.582 -40.6826 35.4102 -53.0703 60.249
c-34.2002 68.5596 -28.0352 152.459 -10.1787 224.496c11.6602 47.0654 110.018 32.543 96.9189 -20.3047c-14.1396 -57.042 -25.0029 -155.835 23.1455 -201.876c52.4922 -50.1924 67.71 81.9512 70.2852 111.064c9.39258 106.062 3.23828 213.998 -6.87695 320.124
l-116.49 -0.890625c-21.1592 -0.165039 -50.6387 13.1465 -50.2568 38.1924c0.387695 25.2002 28.333 38.0234 50.2568 38.1934c52.4229 0.40918 104.852 0.807617 157.28 1.21094c14.543 0.111328 33.0312 -6.14844 43.0352 -18.2119
c7.24219 -6.07422 12.2754 -14.2139 13.332 -24.5205z" />
    <glyph glyph-name="K" unicode="K" horiz-adv-x="344" 
d="M336.592 642.968c-14.5645 -44.8994 19.2637 -80.6553 1.07812 -99.6221c-1.38086 -1.44434 -6.71191 -6.59473 -13.2539 -6.11719c-18.0527 1.30664 -20.0703 43.6201 -33.4141 48.9834c-17.0127 6.83887 -60.0693 -43.2744 -151.2 -206.315
c164.776 -165.935 202.545 -222.34 192.77 -234.144c-4.53418 -5.47949 -18.5254 -0.40332 -32.623 -12.2334c-19.6885 -16.5186 -14.9043 -45.2969 -23.4473 -46.8955c-10.0137 -1.86914 -24.8174 36.1377 -28.4385 44.9834
c-14.75 36.0693 -46.8633 84.6377 -124.73 134.124c12.584 -36.3184 18.1592 -76.7148 3.61621 -114.844c-7.0459 -18.4834 -11.3359 -16.7998 -19.6777 -38.7764c-21.2969 -56.0869 -6.8916 -102.647 -24.4668 -109.083
c-5.88867 -2.15527 -12.1387 1.37598 -13.2539 2.04004c-19.582 11.6279 0.897461 55.2158 -20.3896 108.063c-3.40918 8.45801 -6.41406 13.502 -8.54883 17.5215c-35.3682 66.6533 -18.3613 205.928 -19.5557 311.564c-1.48145 131.564 2.38379 161.198 3.97656 206.889
c1.77832 50.9893 102.275 50.5322 100.513 0c-1.60352 -46.041 -2.67578 -92.0869 -3.31836 -138.139c42.5205 56.8516 85.0518 113.703 127.577 170.555c59.2939 79.2686 91.2744 -24.7119 86.7881 -38.5547z" />
    <glyph glyph-name="L" unicode="L" horiz-adv-x="345" 
d="M307.544 182.137c21.1484 0 50.6396 -13.0205 50.2578 -38.1885c-0.265625 -17.2461 -30.4141 -32.4375 -50.2568 -38.1934c-24.5254 -7.11523 -29.3574 1.24219 -40.9375 -4.8584c-39.2969 -20.708 -4.95898 -128.172 -41.2881 -145.274
c-8.23047 -3.87598 -18.8662 -2.53223 -25.9971 1.5293c-37.1367 21.1484 4.25781 125.442 -33.6426 146.804c-5.95703 3.35547 -15.6367 5.6543 -22.9326 1.79395c-29.251 -15.4668 5.35254 -116.272 -19.8848 -127.194
c-5.68652 -2.45801 -12.0312 0.674805 -13.7627 1.5293c-32.3154 15.9717 -1.41797 108.499 -34.0352 125.665c-10.1523 5.3418 -18.6582 0.626953 -32.4902 9.24512c-9.83887 6.12695 -17.209 15.2598 -17.6709 27.2969c-0.8125 2.72949 -1.31738 5.64453 -1.43945 8.75098
c-6.77539 170.331 -7.24805 340.832 -1.41797 511.2c1.74707 50.9893 102.244 50.5381 100.513 0c-5.47461 -160.003 -5.31543 -320.118 0.323242 -480.105h184.662z" />
    <glyph glyph-name="M" unicode="M" horiz-adv-x="477" 
d="M452.986 662.247c-8.08105 -269.846 7.64648 -263.803 1.25879 -513.854c-1.1416 -44.6973 -3.97656 -119.464 -35.1445 -129.558c-1.84277 -0.599609 -10.0195 -3.24414 -17.3311 0.509766c-21.7754 11.1768 -1.17871 61.2529 -29.5645 107.044
c-7.48633 12.0742 -15.1484 18.6426 -18.4727 22.0039c-25.3916 25.6885 -39.0059 108.525 -4.51367 336.557c-22.8906 -71.5645 -51.9033 -105.191 -75.1973 -122.597c-13.1094 -9.79688 -34.1621 -21.749 -41.4893 -46.3438
c-6.25 -20.9785 0.647461 -40.5342 -11.2148 -48.4248c-5.94727 -3.9502 -15.0693 -3.95508 -21.4092 -0.508789c-20.2031 10.9805 -7.85254 54.5947 -12.6787 95.2783c-3.4834 29.3682 -17.4531 70.126 -65.7559 116.331c-1.22656 -185.283 0 -302.177 4.53418 -334.73
c0.376953 -2.69727 5.4375 -38.2617 -5.61719 -43.0508c-2.19336 -0.950195 -5.33105 -0.823242 -6.88184 -0.764648c-10.917 0.429688 -14.6074 7.47559 -18.0957 6.37109c-8.40527 -2.66504 6.50977 -45.9873 -10.1943 -59.1289
c-7.61426 -5.99512 -18.4141 -3.6748 -18.8604 -3.56836c-6.97656 1.60352 -30.6104 10.959 -42.3076 124.375c-5.4375 52.7041 -4.61426 81.3125 -2.71875 159.031c1.95898 80.209 2.94141 120.313 -0.366211 158.002c-5.36816 61.2002 1.7998 122.873 3.28613 172.594
c0.583984 19.4971 15.6533 31.4492 33.9453 35.9834c5.11328 1.26855 15.9346 5.44238 29.2246 2.56445c24.0215 -5.19824 34.9805 -26.7979 36.5312 -29.9785c36.1436 -63.9502 72.2871 -127.896 108.436 -191.841c40.9219 66.7217 81.8438 133.443 122.771 200.165
c2.63379 3.12207 25.7627 29.7715 54.5732 25.3486c24.3291 -3.73828 43.6143 -25.7842 43.2529 -37.8105z" />
    <glyph glyph-name="N" unicode="N" horiz-adv-x="426" 
d="M404.044 662.247c-4.64062 -169.12 -4.31152 -338.317 0.950195 -507.4c-0.435547 -5.81934 -0.871094 -11.6387 -1.31152 -17.458c0.28125 -18.4248 0.860352 -104.31 -23.75 -110.172c-1.24219 -0.296875 -5.40527 -1.06641 -9.25 1.04199
c-18.7061 10.2588 6.74902 68.5068 -14.1445 82.5771c-7.16797 4.82617 -16.2744 2.08594 -17.7881 1.59766c-15.9502 -5.15527 -21.2012 -29.251 -26.1768 -52.0615c-3.14844 -14.4482 -4.20996 -26.6982 -4.58691 -35.1729
c-3.79688 -1.5293 -9.4834 -3.08008 -14.5273 -0.764648c-21.6104 9.91895 2.50684 75.3721 -3.41309 143.969c-4.13672 47.915 -27.3613 88.4443 -73.8105 169.519c-20.8779 36.4404 -51.3818 84.8496 -93.918 138.515
c12.7803 -219.419 3.59961 -302.129 -10.0674 -331.194c-3.35059 -7.12012 -11.1504 -19.9111 -16.8213 -41.2881c-10.3164 -38.8828 -3.87012 -69.2646 -17.585 -74.9297c-4.48633 -1.85352 -9.0791 -0.12793 -11.4688 0.763672
c-32.7773 12.2812 -39.3613 103.465 -40.3486 118.598c-10.2109 156.876 -4.35938 254.172 -4.35938 254.172c-0.211914 84.7324 0.823242 169.465 3.09082 254.187c-2.25684 7.51367 -0.132812 14.6875 4.27441 20.9639c5.63867 10.3008 16.4863 17.0869 28.9805 20.3369
c1.2959 0.40332 2.55957 0.753906 3.77051 1.00879c6.84375 1.44922 13.6562 1.73633 20.2031 0.993164c20.0977 -1.625 38.6816 -11.4854 42.627 -29.5273c58.6729 -107.756 117.351 -215.506 176.023 -323.262c-0.93457 105 0.015625 210.011 2.89355 314.989
c1.39648 50.9785 101.899 50.5859 100.514 0z" />
    <glyph glyph-name="N" unicode="&#xd1;" horiz-adv-x="426" 
d="M404.044 662.247c-4.64062 -169.12 -4.31152 -338.317 0.950195 -507.4c-0.435547 -5.81934 -0.871094 -11.6387 -1.31152 -17.458c0.28125 -18.4248 0.860352 -104.31 -23.75 -110.172c-1.24219 -0.296875 -5.40527 -1.06641 -9.25 1.04199
c-18.7061 10.2588 6.74902 68.5068 -14.1445 82.5771c-7.16797 4.82617 -16.2744 2.08594 -17.7881 1.59766c-15.9502 -5.15527 -21.2012 -29.251 -26.1768 -52.0615c-3.14844 -14.4482 -4.20996 -26.6982 -4.58691 -35.1729
c-3.79688 -1.5293 -9.4834 -3.08008 -14.5273 -0.764648c-21.6104 9.91895 2.50684 75.3721 -3.41309 143.969c-4.13672 47.915 -27.3613 88.4443 -73.8105 169.519c-20.8779 36.4404 -51.3818 84.8496 -93.918 138.515
c12.7803 -219.419 3.59961 -302.129 -10.0674 -331.194c-3.35059 -7.12012 -11.1504 -19.9111 -16.8213 -41.2881c-10.3164 -38.8828 -3.87012 -69.2646 -17.585 -74.9297c-4.48633 -1.85352 -9.0791 -0.12793 -11.4688 0.763672
c-32.7773 12.2812 -39.3613 103.465 -40.3486 118.598c-10.2109 156.876 -4.35938 254.172 -4.35938 254.172c-0.211914 84.7324 0.823242 169.465 3.09082 254.187c-2.25684 7.51367 -0.132812 14.6875 4.27441 20.9639c5.63867 10.3008 16.4863 17.0869 28.9805 20.3369
c1.2959 0.40332 2.55957 0.753906 3.77051 1.00879c6.84375 1.44922 13.6562 1.73633 20.2031 0.993164c20.0977 -1.625 38.6816 -11.4854 42.627 -29.5273c58.6729 -107.756 117.351 -215.506 176.023 -323.262c-0.93457 105 0.015625 210.011 2.89355 314.989
c1.39648 50.9785 101.899 50.5859 100.514 0z" />
    <glyph glyph-name="O" unicode="O" horiz-adv-x="412" 
d="M214.553 695.295c7.17871 -1.15234 158.448 -72.6484 188.379 -245.555c19.9541 -115.269 -23.1875 -222.594 -57.0635 -257.855c-7.15723 -7.44922 -18.6953 -16.6777 -28.8525 -35.4053c-19.2109 -35.4375 -14.2568 -71.0762 -33.0801 -75.8447
c-1.49707 -0.376953 -5.78711 -1.46582 -10.7041 0c-19.8633 5.91992 -15.3867 43.1514 -36.7002 51.2275c-1.24805 0.472656 -10.54 3.85449 -16.5557 -0.504883c-11.1396 -8.07031 -0.456055 -35.0068 -12.8809 -43.0771
c-0.976562 -0.631836 -2.83984 -1.84766 -5.22363 -1.65625c-9.1377 0.727539 -11.2773 20.9043 -15.9072 20.9736c-8.71289 0.137695 -6.03711 -71.2939 -35.0654 -82.1416c-1.44434 -0.541992 -9.23926 -3.45703 -16.3115 0
c-22.7471 11.124 2.60156 68.3896 -24.3936 118.354c-11.1504 20.6338 -28.0615 28.0039 -35.7656 38.3848c-65.2354 87.8652 -84.9287 207.101 -60.0098 312.425c21.4834 90.8174 79.6406 191.474 180.558 200.771c3.29199 0.499023 6.5625 0.727539 9.70605 0.610352
c3.14355 0.100586 6.4834 -0.15918 9.87109 -0.706055zM262.325 236.831c38.7715 66.1699 53.1543 152.917 37.4531 227.928c-7.75781 37.0781 -20.7402 75.3086 -41.5654 107.172c-8.7666 13.4072 -18.5576 26.4961 -31.0781 36.5742
c-4.96484 3.9873 -9.30273 6.96582 -14.9258 9.30762c-2.19336 0.913086 -6.62695 1.5127 -7.74707 1.72461c-1.34375 -0.355469 -9.03711 -2.08105 -12.1328 -3.75879c-5.1084 -2.7666 -11.751 -7.86426 -16.6514 -12.4355
c-12.5625 -11.7236 -22.9805 -26.7979 -31.4756 -41.6758c-20.6816 -36.2285 -34.1631 -79.3809 -38.6445 -120.791c-8.44824 -78.0049 11.7129 -166.513 61.8477 -228.18c7.74121 -9.52539 18.6045 -20.5166 27.541 -25.7041
c7.18945 -4.17871 8.17676 -2.93066 12.7002 -4.98047c-3.25488 1.47656 0.541992 0.197266 0.97168 0.292969c3.78027 0.828125 15.3398 6.94531 23.7822 14.8779c11.835 11.1084 21.7695 25.7314 29.9248 39.6484z" />
    <glyph glyph-name="O" unicode="&#xd8;" horiz-adv-x="412" 
d="M214.553 695.295c7.17871 -1.15234 158.448 -72.6484 188.379 -245.555c19.9541 -115.269 -23.1875 -222.594 -57.0635 -257.855c-7.15723 -7.44922 -18.6953 -16.6777 -28.8525 -35.4053c-19.2109 -35.4375 -14.2568 -71.0762 -33.0801 -75.8447
c-1.49707 -0.376953 -5.78711 -1.46582 -10.7041 0c-19.8633 5.91992 -15.3867 43.1514 -36.7002 51.2275c-1.24805 0.472656 -10.54 3.85449 -16.5557 -0.504883c-11.1396 -8.07031 -0.456055 -35.0068 -12.8809 -43.0771
c-0.976562 -0.631836 -2.83984 -1.84766 -5.22363 -1.65625c-9.1377 0.727539 -11.2773 20.9043 -15.9072 20.9736c-8.71289 0.137695 -6.03711 -71.2939 -35.0654 -82.1416c-1.44434 -0.541992 -9.23926 -3.45703 -16.3115 0
c-22.7471 11.124 2.60156 68.3896 -24.3936 118.354c-11.1504 20.6338 -28.0615 28.0039 -35.7656 38.3848c-65.2354 87.8652 -84.9287 207.101 -60.0098 312.425c21.4834 90.8174 79.6406 191.474 180.558 200.771c3.29199 0.499023 6.5625 0.727539 9.70605 0.610352
c3.14355 0.100586 6.4834 -0.15918 9.87109 -0.706055zM262.325 236.831c38.7715 66.1699 53.1543 152.917 37.4531 227.928c-7.75781 37.0781 -20.7402 75.3086 -41.5654 107.172c-8.7666 13.4072 -18.5576 26.4961 -31.0781 36.5742
c-4.96484 3.9873 -9.30273 6.96582 -14.9258 9.30762c-2.19336 0.913086 -6.62695 1.5127 -7.74707 1.72461c-1.34375 -0.355469 -9.03711 -2.08105 -12.1328 -3.75879c-5.1084 -2.7666 -11.751 -7.86426 -16.6514 -12.4355
c-12.5625 -11.7236 -22.9805 -26.7979 -31.4756 -41.6758c-20.6816 -36.2285 -34.1631 -79.3809 -38.6445 -120.791c-8.44824 -78.0049 11.7129 -166.513 61.8477 -228.18c7.74121 -9.52539 18.6045 -20.5166 27.541 -25.7041
c7.18945 -4.17871 8.17676 -2.93066 12.7002 -4.98047c-3.25488 1.47656 0.541992 0.197266 0.97168 0.292969c3.78027 0.828125 15.3398 6.94531 23.7822 14.8779c11.835 11.1084 21.7695 25.7314 29.9248 39.6484z" />
    <glyph glyph-name="O" unicode="&#xd6;" horiz-adv-x="412" 
d="M214.553 695.295c7.17871 -1.15234 158.448 -72.6484 188.379 -245.555c19.9541 -115.269 -23.1875 -222.594 -57.0635 -257.855c-7.15723 -7.44922 -18.6953 -16.6777 -28.8525 -35.4053c-19.2109 -35.4375 -14.2568 -71.0762 -33.0801 -75.8447
c-1.49707 -0.376953 -5.78711 -1.46582 -10.7041 0c-19.8633 5.91992 -15.3867 43.1514 -36.7002 51.2275c-1.24805 0.472656 -10.54 3.85449 -16.5557 -0.504883c-11.1396 -8.07031 -0.456055 -35.0068 -12.8809 -43.0771
c-0.976562 -0.631836 -2.83984 -1.84766 -5.22363 -1.65625c-9.1377 0.727539 -11.2773 20.9043 -15.9072 20.9736c-8.71289 0.137695 -6.03711 -71.2939 -35.0654 -82.1416c-1.44434 -0.541992 -9.23926 -3.45703 -16.3115 0
c-22.7471 11.124 2.60156 68.3896 -24.3936 118.354c-11.1504 20.6338 -28.0615 28.0039 -35.7656 38.3848c-65.2354 87.8652 -84.9287 207.101 -60.0098 312.425c21.4834 90.8174 79.6406 191.474 180.558 200.771c3.29199 0.499023 6.5625 0.727539 9.70605 0.610352
c3.14355 0.100586 6.4834 -0.15918 9.87109 -0.706055zM262.325 236.831c38.7715 66.1699 53.1543 152.917 37.4531 227.928c-7.75781 37.0781 -20.7402 75.3086 -41.5654 107.172c-8.7666 13.4072 -18.5576 26.4961 -31.0781 36.5742
c-4.96484 3.9873 -9.30273 6.96582 -14.9258 9.30762c-2.19336 0.913086 -6.62695 1.5127 -7.74707 1.72461c-1.34375 -0.355469 -9.03711 -2.08105 -12.1328 -3.75879c-5.1084 -2.7666 -11.751 -7.86426 -16.6514 -12.4355
c-12.5625 -11.7236 -22.9805 -26.7979 -31.4756 -41.6758c-20.6816 -36.2285 -34.1631 -79.3809 -38.6445 -120.791c-8.44824 -78.0049 11.7129 -166.513 61.8477 -228.18c7.74121 -9.52539 18.6045 -20.5166 27.541 -25.7041
c7.18945 -4.17871 8.17676 -2.93066 12.7002 -4.98047c-3.25488 1.47656 0.541992 0.197266 0.97168 0.292969c3.78027 0.828125 15.3398 6.94531 23.7822 14.8779c11.835 11.1084 21.7695 25.7314 29.9248 39.6484z" />
    <glyph glyph-name="O" unicode="&#xd5;" horiz-adv-x="412" 
d="M214.553 695.295c7.17871 -1.15234 158.448 -72.6484 188.379 -245.555c19.9541 -115.269 -23.1875 -222.594 -57.0635 -257.855c-7.15723 -7.44922 -18.6953 -16.6777 -28.8525 -35.4053c-19.2109 -35.4375 -14.2568 -71.0762 -33.0801 -75.8447
c-1.49707 -0.376953 -5.78711 -1.46582 -10.7041 0c-19.8633 5.91992 -15.3867 43.1514 -36.7002 51.2275c-1.24805 0.472656 -10.54 3.85449 -16.5557 -0.504883c-11.1396 -8.07031 -0.456055 -35.0068 -12.8809 -43.0771
c-0.976562 -0.631836 -2.83984 -1.84766 -5.22363 -1.65625c-9.1377 0.727539 -11.2773 20.9043 -15.9072 20.9736c-8.71289 0.137695 -6.03711 -71.2939 -35.0654 -82.1416c-1.44434 -0.541992 -9.23926 -3.45703 -16.3115 0
c-22.7471 11.124 2.60156 68.3896 -24.3936 118.354c-11.1504 20.6338 -28.0615 28.0039 -35.7656 38.3848c-65.2354 87.8652 -84.9287 207.101 -60.0098 312.425c21.4834 90.8174 79.6406 191.474 180.558 200.771c3.29199 0.499023 6.5625 0.727539 9.70605 0.610352
c3.14355 0.100586 6.4834 -0.15918 9.87109 -0.706055zM262.325 236.831c38.7715 66.1699 53.1543 152.917 37.4531 227.928c-7.75781 37.0781 -20.7402 75.3086 -41.5654 107.172c-8.7666 13.4072 -18.5576 26.4961 -31.0781 36.5742
c-4.96484 3.9873 -9.30273 6.96582 -14.9258 9.30762c-2.19336 0.913086 -6.62695 1.5127 -7.74707 1.72461c-1.34375 -0.355469 -9.03711 -2.08105 -12.1328 -3.75879c-5.1084 -2.7666 -11.751 -7.86426 -16.6514 -12.4355
c-12.5625 -11.7236 -22.9805 -26.7979 -31.4756 -41.6758c-20.6816 -36.2285 -34.1631 -79.3809 -38.6445 -120.791c-8.44824 -78.0049 11.7129 -166.513 61.8477 -228.18c7.74121 -9.52539 18.6045 -20.5166 27.541 -25.7041
c7.18945 -4.17871 8.17676 -2.93066 12.7002 -4.98047c-3.25488 1.47656 0.541992 0.197266 0.97168 0.292969c3.78027 0.828125 15.3398 6.94531 23.7822 14.8779c11.835 11.1084 21.7695 25.7314 29.9248 39.6484z" />
    <glyph glyph-name="O" unicode="&#xd4;" horiz-adv-x="412" 
d="M214.553 695.295c7.17871 -1.15234 158.448 -72.6484 188.379 -245.555c19.9541 -115.269 -23.1875 -222.594 -57.0635 -257.855c-7.15723 -7.44922 -18.6953 -16.6777 -28.8525 -35.4053c-19.2109 -35.4375 -14.2568 -71.0762 -33.0801 -75.8447
c-1.49707 -0.376953 -5.78711 -1.46582 -10.7041 0c-19.8633 5.91992 -15.3867 43.1514 -36.7002 51.2275c-1.24805 0.472656 -10.54 3.85449 -16.5557 -0.504883c-11.1396 -8.07031 -0.456055 -35.0068 -12.8809 -43.0771
c-0.976562 -0.631836 -2.83984 -1.84766 -5.22363 -1.65625c-9.1377 0.727539 -11.2773 20.9043 -15.9072 20.9736c-8.71289 0.137695 -6.03711 -71.2939 -35.0654 -82.1416c-1.44434 -0.541992 -9.23926 -3.45703 -16.3115 0
c-22.7471 11.124 2.60156 68.3896 -24.3936 118.354c-11.1504 20.6338 -28.0615 28.0039 -35.7656 38.3848c-65.2354 87.8652 -84.9287 207.101 -60.0098 312.425c21.4834 90.8174 79.6406 191.474 180.558 200.771c3.29199 0.499023 6.5625 0.727539 9.70605 0.610352
c3.14355 0.100586 6.4834 -0.15918 9.87109 -0.706055zM262.325 236.831c38.7715 66.1699 53.1543 152.917 37.4531 227.928c-7.75781 37.0781 -20.7402 75.3086 -41.5654 107.172c-8.7666 13.4072 -18.5576 26.4961 -31.0781 36.5742
c-4.96484 3.9873 -9.30273 6.96582 -14.9258 9.30762c-2.19336 0.913086 -6.62695 1.5127 -7.74707 1.72461c-1.34375 -0.355469 -9.03711 -2.08105 -12.1328 -3.75879c-5.1084 -2.7666 -11.751 -7.86426 -16.6514 -12.4355
c-12.5625 -11.7236 -22.9805 -26.7979 -31.4756 -41.6758c-20.6816 -36.2285 -34.1631 -79.3809 -38.6445 -120.791c-8.44824 -78.0049 11.7129 -166.513 61.8477 -228.18c7.74121 -9.52539 18.6045 -20.5166 27.541 -25.7041
c7.18945 -4.17871 8.17676 -2.93066 12.7002 -4.98047c-3.25488 1.47656 0.541992 0.197266 0.97168 0.292969c3.78027 0.828125 15.3398 6.94531 23.7822 14.8779c11.835 11.1084 21.7695 25.7314 29.9248 39.6484z" />
    <glyph glyph-name="O" unicode="&#xd3;" horiz-adv-x="412" 
d="M214.553 695.295c7.17871 -1.15234 158.448 -72.6484 188.379 -245.555c19.9541 -115.269 -23.1875 -222.594 -57.0635 -257.855c-7.15723 -7.44922 -18.6953 -16.6777 -28.8525 -35.4053c-19.2109 -35.4375 -14.2568 -71.0762 -33.0801 -75.8447
c-1.49707 -0.376953 -5.78711 -1.46582 -10.7041 0c-19.8633 5.91992 -15.3867 43.1514 -36.7002 51.2275c-1.24805 0.472656 -10.54 3.85449 -16.5557 -0.504883c-11.1396 -8.07031 -0.456055 -35.0068 -12.8809 -43.0771
c-0.976562 -0.631836 -2.83984 -1.84766 -5.22363 -1.65625c-9.1377 0.727539 -11.2773 20.9043 -15.9072 20.9736c-8.71289 0.137695 -6.03711 -71.2939 -35.0654 -82.1416c-1.44434 -0.541992 -9.23926 -3.45703 -16.3115 0
c-22.7471 11.124 2.60156 68.3896 -24.3936 118.354c-11.1504 20.6338 -28.0615 28.0039 -35.7656 38.3848c-65.2354 87.8652 -84.9287 207.101 -60.0098 312.425c21.4834 90.8174 79.6406 191.474 180.558 200.771c3.29199 0.499023 6.5625 0.727539 9.70605 0.610352
c3.14355 0.100586 6.4834 -0.15918 9.87109 -0.706055zM262.325 236.831c38.7715 66.1699 53.1543 152.917 37.4531 227.928c-7.75781 37.0781 -20.7402 75.3086 -41.5654 107.172c-8.7666 13.4072 -18.5576 26.4961 -31.0781 36.5742
c-4.96484 3.9873 -9.30273 6.96582 -14.9258 9.30762c-2.19336 0.913086 -6.62695 1.5127 -7.74707 1.72461c-1.34375 -0.355469 -9.03711 -2.08105 -12.1328 -3.75879c-5.1084 -2.7666 -11.751 -7.86426 -16.6514 -12.4355
c-12.5625 -11.7236 -22.9805 -26.7979 -31.4756 -41.6758c-20.6816 -36.2285 -34.1631 -79.3809 -38.6445 -120.791c-8.44824 -78.0049 11.7129 -166.513 61.8477 -228.18c7.74121 -9.52539 18.6045 -20.5166 27.541 -25.7041
c7.18945 -4.17871 8.17676 -2.93066 12.7002 -4.98047c-3.25488 1.47656 0.541992 0.197266 0.97168 0.292969c3.78027 0.828125 15.3398 6.94531 23.7822 14.8779c11.835 11.1084 21.7695 25.7314 29.9248 39.6484z" />
    <glyph glyph-name="O" unicode="&#xd2;" horiz-adv-x="412" 
d="M214.553 695.295c7.17871 -1.15234 158.448 -72.6484 188.379 -245.555c19.9541 -115.269 -23.1875 -222.594 -57.0635 -257.855c-7.15723 -7.44922 -18.6953 -16.6777 -28.8525 -35.4053c-19.2109 -35.4375 -14.2568 -71.0762 -33.0801 -75.8447
c-1.49707 -0.376953 -5.78711 -1.46582 -10.7041 0c-19.8633 5.91992 -15.3867 43.1514 -36.7002 51.2275c-1.24805 0.472656 -10.54 3.85449 -16.5557 -0.504883c-11.1396 -8.07031 -0.456055 -35.0068 -12.8809 -43.0771
c-0.976562 -0.631836 -2.83984 -1.84766 -5.22363 -1.65625c-9.1377 0.727539 -11.2773 20.9043 -15.9072 20.9736c-8.71289 0.137695 -6.03711 -71.2939 -35.0654 -82.1416c-1.44434 -0.541992 -9.23926 -3.45703 -16.3115 0
c-22.7471 11.124 2.60156 68.3896 -24.3936 118.354c-11.1504 20.6338 -28.0615 28.0039 -35.7656 38.3848c-65.2354 87.8652 -84.9287 207.101 -60.0098 312.425c21.4834 90.8174 79.6406 191.474 180.558 200.771c3.29199 0.499023 6.5625 0.727539 9.70605 0.610352
c3.14355 0.100586 6.4834 -0.15918 9.87109 -0.706055zM262.325 236.831c38.7715 66.1699 53.1543 152.917 37.4531 227.928c-7.75781 37.0781 -20.7402 75.3086 -41.5654 107.172c-8.7666 13.4072 -18.5576 26.4961 -31.0781 36.5742
c-4.96484 3.9873 -9.30273 6.96582 -14.9258 9.30762c-2.19336 0.913086 -6.62695 1.5127 -7.74707 1.72461c-1.34375 -0.355469 -9.03711 -2.08105 -12.1328 -3.75879c-5.1084 -2.7666 -11.751 -7.86426 -16.6514 -12.4355
c-12.5625 -11.7236 -22.9805 -26.7979 -31.4756 -41.6758c-20.6816 -36.2285 -34.1631 -79.3809 -38.6445 -120.791c-8.44824 -78.0049 11.7129 -166.513 61.8477 -228.18c7.74121 -9.52539 18.6045 -20.5166 27.541 -25.7041
c7.18945 -4.17871 8.17676 -2.93066 12.7002 -4.98047c-3.25488 1.47656 0.541992 0.197266 0.97168 0.292969c3.78027 0.828125 15.3398 6.94531 23.7822 14.8779c11.835 11.1084 21.7695 25.7314 29.9248 39.6484z" />
    <glyph glyph-name="P" unicode="P" horiz-adv-x="361" 
d="M263.858 669.182c53.4004 -30.5146 108.314 -99.1885 99.2451 -164.27c-8.07617 -57.9824 -59.0283 -56.1562 -68.4746 -124.296c-5.88867 -42.5205 8.01172 -85.9961 -14.9531 -100.29c-1.48145 -0.918945 -7.95898 -4.73633 -16.3115 -4.07812
c-30.4834 2.41016 -45.9189 61.2637 -54.3027 58.5879c-6.14844 -1.95898 -0.366211 -34.3906 -7.63477 -36.1592c-1.03027 -0.25 -2.07129 0.174805 -3.31348 1.01953c-12.4297 8.41016 -9.68457 33.918 -19.1992 41.665
c-6.1543 5.00684 -20.2676 4.90039 -55.0674 -17.1035c-2.33105 -44.4854 -1.40723 -79.9492 -0.154297 -104.082c2.21973 -42.6367 6.49902 -69.3291 -11.0068 -89.8887c-12.0049 -14.0977 -20.4316 -9.06934 -29.7715 -23.2725
c-18.7383 -28.4814 3.02148 -67.1465 -12.2334 -76.46c-5.70801 -3.4834 -13.1787 -0.770508 -15.292 -0.000976562c-30.6689 11.1553 -30.9561 88.959 -31.3174 113.395c-2.12402 142.89 -1.67773 415.539 -2.07031 510.637
c-0.143555 35.251 48.0635 46.0088 77.7559 32.4053c54.5996 15.2705 114.143 10.7363 164.102 -17.8086zM123.523 405.046c65.75 -27.2227 138.473 24.373 139.067 99.8613c0.594727 75.4668 -69.3506 133.258 -139.906 106.358
c0.28125 -68.7402 0.5625 -137.48 0.838867 -206.22z" />
    <glyph glyph-name="Q" unicode="Q" horiz-adv-x="426" 
d="M417.111 452.88c13.3857 -87.7754 -8.75586 -192.103 -63.2441 -265.552c7.66699 -8.03906 15.2754 -16.1367 23.0117 -24.1123c17.665 -18.2178 0.0683594 -44.0977 -18.0322 -52.2588c-23.7402 -10.6992 -51.0537 -4.55566 -68.7617 13.7041
c-0.780273 0.806641 -1.43848 1.48145 -1.89551 1.99121c-6.39258 -94.9434 -13.2744 -130.636 -20.0977 -130.769c-9.74902 -0.191406 -22.668 72.1963 -28.5459 108.074c0.324219 -7.25879 -0.658203 -14.4219 -5.0918 -17.3477
c-3.44629 -2.27246 -7.93262 -1.29004 -9.1748 -1.01953c-12.7695 2.79297 -14.5273 20.6553 -19.8955 20.8037c-12.1963 0.339844 -12.9238 -91.6357 -45.3506 -100.322c-8.07617 -2.16113 -15.4092 1.56641 -16.3115 2.03906
c-28.6992 15.1006 2.08691 82.1416 -31.9004 137.257c-11.0547 17.9199 -25.168 23.6016 -33.7383 34.2207c-68.1289 84.4141 -90.6523 203.294 -66.9707 307.778c21.6475 95.5059 85.1943 199.066 190.571 208.062c3.1748 0.461914 6.3291 0.673828 9.36133 0.567383
c2.99512 0.0898438 6.16016 -0.143555 9.37793 -0.631836c118.37 -10.4121 180.542 -136.635 196.688 -242.484zM286.715 259.089c32.3896 63.9658 42.7422 142.87 26.0166 211.817c-8.85645 36.4883 -22.7676 72.9287 -44.5957 103.688
c-9.24414 13.0352 -19.4707 25.6035 -32.6602 34.8477c-10.46 7.33301 -17.1553 9.9082 -24.4297 10.1631c-8.99512 -0.28125 -20.915 -6.21777 -32.6016 -16.2588c-14.3418 -12.3184 -25.9385 -28.5498 -35.5439 -44.7549
c-21.4092 -36.1172 -35.3896 -79.4814 -39.6797 -121.205c-8.08105 -78.5625 14.9688 -167.421 68.2891 -227.065c9.29199 -10.3965 20.6338 -20.2568 32.9844 -25.5615c3.32422 -1.42871 9.86035 -2.6875 6.22852 -2.37402
c6.5625 -0.568359 2.28809 -1.20508 6.63184 0.0908203c4.2373 1.26367 8.4375 3.23926 12.5576 5.75586c-9.49414 10.2158 -19.0195 20.3994 -28.4072 30.7109c-16.9912 18.6641 -0.664062 43.832 18.0312 52.2588c22.5342 10.1572 49.9854 5.30371 67.1787 -12.1123z" />
    <glyph glyph-name="R" unicode="R" horiz-adv-x="326" 
d="M320.648 506.142c-0.0957031 -60.5098 -28.7617 -123.662 -79.958 -157.682c-15.0107 -9.97168 -31.5508 -17.2725 -48.7812 -21.9873c29.3311 -54.3184 68.2461 -104.076 103.12 -154.503c3.08984 -4.4707 8.0918 -13.5127 6.80664 -24.2969
c-1.68848 -14.166 -12.7861 -15.8281 -18.7539 -29.9629c-10.1836 -24.1172 10.5566 -46.6621 0.000976562 -56.5811c-4.61426 -4.33789 -13.6992 -4.82617 -19.8799 -1.5293c-18.0479 9.62109 -2.41602 46.667 -22.9385 64.2266
c-10.2051 8.73438 -16.4385 1.60352 -32.0273 9.58887c-21.9189 11.2354 -25.3916 33.4463 -41.374 63.8184c-7.83203 14.8828 -21.0107 36.1748 -43.3438 59.3359c12.5049 -33.8916 22.5938 -79.2051 0.37793 -112.449
c-7.31641 -10.9434 -10.0723 -8.5166 -18.207 -20.2881c-33.2441 -48.0791 -2.19824 -110.171 -25.2314 -122.336c-3.86035 -2.03906 -9.77539 -2.96289 -14.5273 -0.764648c-18.7168 8.64453 -6.91309 52.79 -26.7607 122.337
c-2.69727 9.44043 -2.91504 8.60645 -5.35254 17.585c-10.5557 38.9043 -10.6191 70.0723 -10.7041 87.1641c-0.174805 34.1523 -1.82129 68.2988 -1.5293 102.456c0 0 0.610352 71.7979 -3.05859 149.861c0 0 -4.3916 93.4092 12.2334 178.917
c1.59863 8.23535 5.02832 23.1182 16.5029 29.2773c5.33105 2.86719 9.72754 2.40527 23.9365 4.34863c10.7783 1.47656 19.5127 3.28223 25.3105 4.60449c11.6123 1.84766 88.0986 12.7061 154.062 -41.7773c6.63672 -5.48535 70.2207 -59.5596 70.0771 -149.363z
M123.021 403.093c59.2305 -25.4072 97.1367 50.0986 97.1211 103.053c-0.0107422 35.1182 -12.9131 72.7217 -39.1436 97.0293c-18.6055 17.2402 -37.9219 18.748 -58.6777 10.0928c0.233398 -70.0566 0.466797 -140.118 0.700195 -210.175z" />
    <glyph glyph-name="S" unicode="S" horiz-adv-x="334" 
d="M230.909 415.026c21.1543 -15.4297 126.408 -136.119 94.9424 -202.862c-15.5469 -32.9844 -52.6299 -26.8145 -87.9766 -83.7559c-9.98242 -16.083 -20.7188 -38.6338 -34.4072 -37.6357c-13.2158 0.966797 -16.9756 23.0078 -25.9971 22.3438
c-18.1221 -1.33789 -14.2881 -91.168 -45.1113 -99.3984c-10.6143 -2.83496 -21.1377 5.12402 -24.4668 7.64648c-27.5469 20.835 -8.46387 61.5713 -20.6973 109.757c-18.8818 74.373 -75.6592 88.4062 -82.8428 129.515c-4.33789 24.8174 32.2988 38.1924 50.2559 38.1924
c24.8232 0 45.9238 -13.4072 50.2568 -38.1934c5.44824 -31.1895 26.002 -63.6582 56.1826 -75.7959c9.93945 -3.99805 19.5449 -4.92773 25.5557 -2.9209c14.5703 4.87402 25.9541 17.2881 33.7168 30.3711c39.5576 66.6367 -30.3926 131.458 -83.3408 163.73
c-58.2266 35.4902 -112.97 82.5029 -128.145 152.867c-17.9365 83.1719 47.8936 155.575 128.564 166.619c81.9609 11.2139 163.322 -39.4463 182.814 -121.115c12.6797 -53.1025 -85.71 -67.2686 -96.9189 -20.3037c-7.10938 29.793 -28.5391 69.5361 -64.959 66.9082
c-33.1436 -2.39453 -55.5137 -39.2012 -52.5352 -69.7373c6.96094 -71.4209 75.1807 -99.7959 125.108 -136.231z" />
    <glyph glyph-name="T" unicode="T" horiz-adv-x="376" 
d="M339.455 695.295c21.1484 -0.154297 50.6416 -12.9062 50.2539 -38.1963c-0.381836 -24.9717 -28.332 -38.3525 -50.2559 -38.1934c-39.5312 0.28125 -73.0781 -6.66895 -96.8018 0.69043c3.27637 -91.3486 4.70996 -172.248 5.21484 -240.394
c2.25684 -304.46 -15.626 -123.451 -13.5654 -242.277c0.472656 -27.1748 2.29883 -88.125 -23.1348 -98.2236c-6.59473 -2.6123 -15.6904 -2.08691 -22.4287 2.03906c-21.9824 13.46 -11.2783 60.5996 -22.4287 63.207c-6.40332 1.49707 -11.209 -13.7363 -16.3115 -13.168
c-17.8457 1.98633 -10.3965 193.954 -8.15625 335.32c1.34375 84.6846 0.849609 152.936 0.313477 194.214c-27.2227 4.70996 -39.8545 -0.743164 -46.1895 -7.64551c-12.3877 -13.5078 -5.73438 -38.0439 -18.7432 -43.5498
c-5.72363 -2.4209 -11.8506 0.282227 -12.8594 0.728516c-19.7363 8.72363 -14.7402 49.4541 -25.9229 51.2119c-6.53613 1.03027 -11.7295 -12.3555 -17.915 -10.4277c-5.64453 1.7627 -2.87793 13.4014 -11.2139 19.3691
c-6.35547 4.55078 -11.8672 0.568359 -17.1074 4.79492c-6.75391 5.4375 -5.53223 18.4248 -4.01855 24.457c5.21387 20.8145 31.1787 38.3262 50.2568 38.1934z" />
    <glyph glyph-name="U" unicode="U" horiz-adv-x="370" 
d="M247.315 653.306c-3.57324 50.3096 96.9004 50.833 100.511 0.0136719c1.77832 -25.0352 24.4619 -41.124 3.16992 -225.68c-31.9482 -276.929 -42.2275 -208.343 -40.4326 -256.391c0.610352 -16.3857 3.4834 -69.2383 -20.3887 -80.4521
c-8.72949 -4.09863 -19.083 -1.71484 -26.5059 0c-31.752 7.32715 -40.46 32.1338 -50.9736 29.4785c-21.3818 -5.38965 0.759766 -111.457 -30.584 -124.376c-13.2051 -5.44238 -29.9941 8.08105 -32.6221 10.1943c-29.0654 23.4053 -14.373 64.333 -28.8262 109.481
c-15.4883 48.3721 -61.9004 40.5293 -79.5283 92.0918c-27.5098 80.458 -27.6367 173.129 -29.415 257.203c-1.33789 63.2871 -0.823242 126.68 1.70996 189.935c2.04395 50.9941 102.53 50.4844 100.513 -0.000976562
c-2.5332 -63.2549 -3.04785 -126.653 -1.70996 -189.935c1.57715 -74.5381 1.44434 -154.721 22.6562 -226.843c4.38574 -14.915 9.58887 -30.0693 18.7852 -42.7168c4.84766 -6.66406 9.61035 -12.207 17.957 -13.6299c3.39258 -0.579102 5.63281 1.76758 7.73535 2.6543
c10.1367 4.29004 23.0869 19.0938 31.8057 34.8428c6.4248 11.6074 11.209 24.457 15.2607 37.0625c24.3662 75.791 25.2373 160.062 25.6885 238.938c0.302734 52.7041 -1.06738 105.541 -4.80566 158.129z" />
    <glyph glyph-name="U" unicode="&#xdc;" horiz-adv-x="370" 
d="M247.315 653.306c-3.57324 50.3096 96.9004 50.833 100.511 0.0136719c1.77832 -25.0352 24.4619 -41.124 3.16992 -225.68c-31.9482 -276.929 -42.2275 -208.343 -40.4326 -256.391c0.610352 -16.3857 3.4834 -69.2383 -20.3887 -80.4521
c-8.72949 -4.09863 -19.083 -1.71484 -26.5059 0c-31.752 7.32715 -40.46 32.1338 -50.9736 29.4785c-21.3818 -5.38965 0.759766 -111.457 -30.584 -124.376c-13.2051 -5.44238 -29.9941 8.08105 -32.6221 10.1943c-29.0654 23.4053 -14.373 64.333 -28.8262 109.481
c-15.4883 48.3721 -61.9004 40.5293 -79.5283 92.0918c-27.5098 80.458 -27.6367 173.129 -29.415 257.203c-1.33789 63.2871 -0.823242 126.68 1.70996 189.935c2.04395 50.9941 102.53 50.4844 100.513 -0.000976562
c-2.5332 -63.2549 -3.04785 -126.653 -1.70996 -189.935c1.57715 -74.5381 1.44434 -154.721 22.6562 -226.843c4.38574 -14.915 9.58887 -30.0693 18.7852 -42.7168c4.84766 -6.66406 9.61035 -12.207 17.957 -13.6299c3.39258 -0.579102 5.63281 1.76758 7.73535 2.6543
c10.1367 4.29004 23.0869 19.0938 31.8057 34.8428c6.4248 11.6074 11.209 24.457 15.2607 37.0625c24.3662 75.791 25.2373 160.062 25.6885 238.938c0.302734 52.7041 -1.06738 105.541 -4.80566 158.129z" />
    <glyph glyph-name="U" unicode="&#xdb;" horiz-adv-x="370" 
d="M247.315 653.306c-3.57324 50.3096 96.9004 50.833 100.511 0.0136719c1.77832 -25.0352 24.4619 -41.124 3.16992 -225.68c-31.9482 -276.929 -42.2275 -208.343 -40.4326 -256.391c0.610352 -16.3857 3.4834 -69.2383 -20.3887 -80.4521
c-8.72949 -4.09863 -19.083 -1.71484 -26.5059 0c-31.752 7.32715 -40.46 32.1338 -50.9736 29.4785c-21.3818 -5.38965 0.759766 -111.457 -30.584 -124.376c-13.2051 -5.44238 -29.9941 8.08105 -32.6221 10.1943c-29.0654 23.4053 -14.373 64.333 -28.8262 109.481
c-15.4883 48.3721 -61.9004 40.5293 -79.5283 92.0918c-27.5098 80.458 -27.6367 173.129 -29.415 257.203c-1.33789 63.2871 -0.823242 126.68 1.70996 189.935c2.04395 50.9941 102.53 50.4844 100.513 -0.000976562
c-2.5332 -63.2549 -3.04785 -126.653 -1.70996 -189.935c1.57715 -74.5381 1.44434 -154.721 22.6562 -226.843c4.38574 -14.915 9.58887 -30.0693 18.7852 -42.7168c4.84766 -6.66406 9.61035 -12.207 17.957 -13.6299c3.39258 -0.579102 5.63281 1.76758 7.73535 2.6543
c10.1367 4.29004 23.0869 19.0938 31.8057 34.8428c6.4248 11.6074 11.209 24.457 15.2607 37.0625c24.3662 75.791 25.2373 160.062 25.6885 238.938c0.302734 52.7041 -1.06738 105.541 -4.80566 158.129z" />
    <glyph glyph-name="U" unicode="&#xda;" horiz-adv-x="370" 
d="M247.315 653.306c-3.57324 50.3096 96.9004 50.833 100.511 0.0136719c1.77832 -25.0352 24.4619 -41.124 3.16992 -225.68c-31.9482 -276.929 -42.2275 -208.343 -40.4326 -256.391c0.610352 -16.3857 3.4834 -69.2383 -20.3887 -80.4521
c-8.72949 -4.09863 -19.083 -1.71484 -26.5059 0c-31.752 7.32715 -40.46 32.1338 -50.9736 29.4785c-21.3818 -5.38965 0.759766 -111.457 -30.584 -124.376c-13.2051 -5.44238 -29.9941 8.08105 -32.6221 10.1943c-29.0654 23.4053 -14.373 64.333 -28.8262 109.481
c-15.4883 48.3721 -61.9004 40.5293 -79.5283 92.0918c-27.5098 80.458 -27.6367 173.129 -29.415 257.203c-1.33789 63.2871 -0.823242 126.68 1.70996 189.935c2.04395 50.9941 102.53 50.4844 100.513 -0.000976562
c-2.5332 -63.2549 -3.04785 -126.653 -1.70996 -189.935c1.57715 -74.5381 1.44434 -154.721 22.6562 -226.843c4.38574 -14.915 9.58887 -30.0693 18.7852 -42.7168c4.84766 -6.66406 9.61035 -12.207 17.957 -13.6299c3.39258 -0.579102 5.63281 1.76758 7.73535 2.6543
c10.1367 4.29004 23.0869 19.0938 31.8057 34.8428c6.4248 11.6074 11.209 24.457 15.2607 37.0625c24.3662 75.791 25.2373 160.062 25.6885 238.938c0.302734 52.7041 -1.06738 105.541 -4.80566 158.129z" />
    <glyph glyph-name="U" unicode="&#xd9;" horiz-adv-x="370" 
d="M247.315 653.306c-3.57324 50.3096 96.9004 50.833 100.511 0.0136719c1.77832 -25.0352 24.4619 -41.124 3.16992 -225.68c-31.9482 -276.929 -42.2275 -208.343 -40.4326 -256.391c0.610352 -16.3857 3.4834 -69.2383 -20.3887 -80.4521
c-8.72949 -4.09863 -19.083 -1.71484 -26.5059 0c-31.752 7.32715 -40.46 32.1338 -50.9736 29.4785c-21.3818 -5.38965 0.759766 -111.457 -30.584 -124.376c-13.2051 -5.44238 -29.9941 8.08105 -32.6221 10.1943c-29.0654 23.4053 -14.373 64.333 -28.8262 109.481
c-15.4883 48.3721 -61.9004 40.5293 -79.5283 92.0918c-27.5098 80.458 -27.6367 173.129 -29.415 257.203c-1.33789 63.2871 -0.823242 126.68 1.70996 189.935c2.04395 50.9941 102.53 50.4844 100.513 -0.000976562
c-2.5332 -63.2549 -3.04785 -126.653 -1.70996 -189.935c1.57715 -74.5381 1.44434 -154.721 22.6562 -226.843c4.38574 -14.915 9.58887 -30.0693 18.7852 -42.7168c4.84766 -6.66406 9.61035 -12.207 17.957 -13.6299c3.39258 -0.579102 5.63281 1.76758 7.73535 2.6543
c10.1367 4.29004 23.0869 19.0938 31.8057 34.8428c6.4248 11.6074 11.209 24.457 15.2607 37.0625c24.3662 75.791 25.2373 160.062 25.6885 238.938c0.302734 52.7041 -1.06738 105.541 -4.80566 158.129z" />
    <glyph glyph-name="V" unicode="V" horiz-adv-x="417" 
d="M325.883 668.868c30.2441 97.3164 98.0469 -17.291 96.916 -20.3125c-34.0615 -91.0566 -41.3887 -190.109 -67.9316 -283.63c-35.8936 -126.462 -44.9092 -200.83 -92.458 -232.434c-6.53613 -4.34375 -17.8721 -10.5879 -25.7998 -24.4678
c-24.1963 -42.377 15.7324 -99.3662 -2.03906 -112.142c-5.84082 -4.2002 -16.2266 -2.38965 -22.4287 2.03906c-30.3721 21.7061 -11.4111 107.41 -16.3115 108.063c-3.99805 0.53125 -11.1875 -58.9004 -28.46 -60.1484
c-2.08691 -0.154297 -3.69531 0.588867 -4.58691 1.01855c-22.3066 10.6562 -31.1152 108.817 -32.5166 123.19c-4.6084 47.251 -24.1748 36.4668 -46.5762 158.182c-29.416 159.817 -65.2568 283.698 -67.8428 283.236
c-1.75195 -0.313477 10.7686 -57.9082 6.6748 -58.9541c-5.17188 -1.32227 -48.1172 84.7109 -20.1191 116.367c20.0498 22.667 88.9863 27.5361 97.4873 0.520508c37.9219 -120.536 75.8438 -241.077 113.766 -361.618c37.4072 120.361 74.8193 240.728 112.227 361.089z
" />
    <glyph glyph-name="W" unicode="W" horiz-adv-x="520" 
d="M482.373 688.387c50.4316 -10.667 35.6484 -44.1494 35.0967 -46.9951c-9.77539 -50.6338 -48.1807 -370.316 -83.8145 -455.898c-8.96777 -21.5312 -19.1621 -31.6143 -20.415 -53.0068c-0.28125 -4.82617 -0.493164 -16.7891 -6.59961 -19.3691
c-4.81055 -2.02832 -8.80859 3.65332 -12.2334 2.29395c-11.5967 -4.60352 14.3994 -77.6758 -2.29395 -87.1641c-4.53418 -2.5752 -10.6885 0.40918 -12.998 1.5293c-22.9648 11.1396 -7.74219 49.2207 -34.4072 89.458c-8.44824 12.749 -10.5771 9.83398 -21.1543 25.4873
c-17.458 25.8369 -22.667 50.0654 -25.1201 60.4619c-5.89355 24.9395 -17.9258 63.3975 -45.0693 124.014c-46.2373 -130.126 -54.8818 -176.989 -49.96 -189.541c0.749023 -1.90625 6.06445 -13.8848 0.871094 -21.4404
c-3.30273 -4.80566 -9.61621 -6.01074 -10.1953 -6.11719c-7.99609 -1.41797 -11.2559 4.27441 -15.291 3.05859c-10.9482 -3.29199 0.260742 -48.9932 -15.291 -57.0908c-6.04199 -3.14844 -13.6191 0.679688 -14.2725 1.01953
c-15.2021 7.92773 -6.73828 33.3184 -22.4287 59.1289c-7.50781 12.3555 -16.6777 18.4355 -20.3145 21.4404c-43.5879 36.0322 -72.7383 350.873 -105.61 509.433c-11.0869 53.4639 87.1592 67.3916 96.918 20.3105c20.9844 -101.203 41.9629 -202.406 62.9414 -303.609
c12.5684 47.665 25.1309 95.3359 37.6934 143.001c0.339844 4.67773 1.78418 8.89941 4.00879 12.6855c8.75586 18.4404 32.6865 24.9287 54.5039 21.5195c18.1221 -1.7627 34.7783 -10.4863 40.1992 -27.4248c19.0039 -59.3682 38.002 -118.741 57.0059 -178.109
c22.1367 108.085 44.2734 216.17 66.4102 324.249c4.98535 24.335 42.6367 30.7383 61.8203 26.6768z" />
    <glyph glyph-name="X" unicode="X" horiz-adv-x="379" 
d="M341.145 696.081c18.5098 -3.91895 46.7295 -24.5654 35.1113 -46.9834c-42.5312 -82.0137 -106.253 -226.252 -129.643 -249.997c12.1592 -26.5645 30.8018 -63.6631 57.7061 -105.525c41.7295 -64.9219 80.873 -106.343 67.0674 -130.725
c-9.16504 -16.1895 -32.2998 -8.34668 -44.1299 -29.8457c-11.7607 -21.3721 0.770508 -47.8945 -12.998 -55.8164c-4.6084 -2.64941 -9.62109 -1.75195 -10.7041 -1.5293c-20.251 4.17383 -26.5859 52.0303 -29.0918 66.8818
c-5.9043 34.9482 -24.2393 86.1709 -81.1865 153.711c-29.0605 -45.3184 -43.7314 -79.6562 -51.8232 -103.608c-4.89062 -14.4795 -10.2744 -33.748 -27.8818 -50.1016c-15.7646 -14.6445 -24.5469 -11.3633 -33.2871 -24.8291
c-14.4424 -22.248 -2.10742 -49.1367 -15.291 -55.8164c-3.71191 -1.87988 -8.59668 -1.73145 -12.2334 0c-14.1934 6.75977 -4.19531 35.2627 -17.5869 69.5791c-7.93262 20.3252 -14.4268 17.9727 -18.5254 31.3691c-10.6777 34.9062 27.5098 70.2109 61.7314 119.05
c18.3984 26.2568 41.4111 64.6357 60.6797 117.011c-59.2617 124.848 -106.227 217.885 -113.458 214.821c-4.11523 -1.74121 5.07617 -34.4707 -5.71875 -39.5469c-2.91016 -1.37012 -7.06738 -0.631836 -9.94043 1.5293
c-12.8066 9.61621 9.62695 40.0039 -3.02051 73.3857c-3.73828 9.87109 -7.06738 10.832 -6.91895 17.6016c0.398438 17.8887 24.2607 37.3809 47.4062 38.2305c24.2656 0.886719 41.7881 -18.9395 56.4326 -35.5215c19.5879 -22.1787 28.0254 -43.0674 35.3154 -60.0527
c11.3154 -26.3682 28.3809 -63.1592 53.2305 -107.602c28.9756 55.8848 57.9561 111.77 86.9365 167.654c11.75 22.6621 36.9873 31.9326 61.8213 26.6758z" />
    <glyph glyph-name="Y" unicode="Y" horiz-adv-x="377" 
d="M353.86 659.253c2.67578 -86.7979 5.35059 -173.593 8.02637 -260.38c3.85449 -125.022 8.55371 -175.194 -31.9385 -220.349c-30.4033 -33.9082 -50.7451 -21.0645 -75.5732 -56.2471c-47.7236 -67.625 -5.16602 -161.272 -43.332 -179.395
c-11.8301 -5.61816 -24.6211 -0.749023 -26.5059 0c-52.1152 20.6973 -34.7471 167.469 -46.6836 168.148c-9.78027 0.557617 -18.2012 -98.1445 -42.0156 -99.334c-1.56641 -0.0800781 -3.74902 0.233398 -7.13672 2.54883
c-35.9414 24.5049 6.46191 127.365 -43.9277 187.174c-20.3252 24.127 -43.6133 26.835 -41.6543 39.3018c2.8457 18.1328 87.8652 63.4463 96.918 20.3105c8.09766 -38.5645 38.5117 -83.5859 83.3633 -80.0391c45.1963 3.57324 72.9551 45.7539 78.498 87.2705
c5.05469 37.8154 3.81738 77.3145 1.62402 116.537c-36.2549 -18.1436 -76.3223 -26.5381 -116.527 -19.5449c-12.5996 2.19336 -28.6406 19.6465 -41.9473 13.1631c-11.416 -5.55957 -12.7539 -22.54 -25.5186 -24.6904
c-5.84082 -0.982422 -10.7627 1.69922 -13.2529 3.05859c-25.248 13.7783 -27.2393 79.0186 -27.2393 79.0186c-4.10938 134.861 -36.1377 185.925 -24.1162 228.907c13.0986 46.8369 111.567 32.0596 96.918 -20.3105
c-9.73242 -34.7949 -12.5361 -72.2607 -6.36133 -108.021c5.65527 -32.7295 23.5859 -77.6338 46.3701 -90.1328c39.377 -21.5898 81.8711 13.2422 106.8 41.0439c-1.76855 57.3184 -3.53125 114.643 -5.2998 171.961c-1.56152 50.6973 98.9463 50.8516 100.513 0z" />
    <glyph glyph-name="Y" unicode="&#x178;" horiz-adv-x="377" 
d="M353.86 659.253c2.67578 -86.7979 5.35059 -173.593 8.02637 -260.38c3.85449 -125.022 8.55371 -175.194 -31.9385 -220.349c-30.4033 -33.9082 -50.7451 -21.0645 -75.5732 -56.2471c-47.7236 -67.625 -5.16602 -161.272 -43.332 -179.395
c-11.8301 -5.61816 -24.6211 -0.749023 -26.5059 0c-52.1152 20.6973 -34.7471 167.469 -46.6836 168.148c-9.78027 0.557617 -18.2012 -98.1445 -42.0156 -99.334c-1.56641 -0.0800781 -3.74902 0.233398 -7.13672 2.54883
c-35.9414 24.5049 6.46191 127.365 -43.9277 187.174c-20.3252 24.127 -43.6133 26.835 -41.6543 39.3018c2.8457 18.1328 87.8652 63.4463 96.918 20.3105c8.09766 -38.5645 38.5117 -83.5859 83.3633 -80.0391c45.1963 3.57324 72.9551 45.7539 78.498 87.2705
c5.05469 37.8154 3.81738 77.3145 1.62402 116.537c-36.2549 -18.1436 -76.3223 -26.5381 -116.527 -19.5449c-12.5996 2.19336 -28.6406 19.6465 -41.9473 13.1631c-11.416 -5.55957 -12.7539 -22.54 -25.5186 -24.6904
c-5.84082 -0.982422 -10.7627 1.69922 -13.2529 3.05859c-25.248 13.7783 -27.2393 79.0186 -27.2393 79.0186c-4.10938 134.861 -36.1377 185.925 -24.1162 228.907c13.0986 46.8369 111.567 32.0596 96.918 -20.3105
c-9.73242 -34.7949 -12.5361 -72.2607 -6.36133 -108.021c5.65527 -32.7295 23.5859 -77.6338 46.3701 -90.1328c39.377 -21.5898 81.8711 13.2422 106.8 41.0439c-1.76855 57.3184 -3.53125 114.643 -5.2998 171.961c-1.56152 50.6973 98.9463 50.8516 100.513 0z" />
    <glyph glyph-name="Y" unicode="&#xdd;" horiz-adv-x="377" 
d="M353.86 659.253c2.67578 -86.7979 5.35059 -173.593 8.02637 -260.38c3.85449 -125.022 8.55371 -175.194 -31.9385 -220.349c-30.4033 -33.9082 -50.7451 -21.0645 -75.5732 -56.2471c-47.7236 -67.625 -5.16602 -161.272 -43.332 -179.395
c-11.8301 -5.61816 -24.6211 -0.749023 -26.5059 0c-52.1152 20.6973 -34.7471 167.469 -46.6836 168.148c-9.78027 0.557617 -18.2012 -98.1445 -42.0156 -99.334c-1.56641 -0.0800781 -3.74902 0.233398 -7.13672 2.54883
c-35.9414 24.5049 6.46191 127.365 -43.9277 187.174c-20.3252 24.127 -43.6133 26.835 -41.6543 39.3018c2.8457 18.1328 87.8652 63.4463 96.918 20.3105c8.09766 -38.5645 38.5117 -83.5859 83.3633 -80.0391c45.1963 3.57324 72.9551 45.7539 78.498 87.2705
c5.05469 37.8154 3.81738 77.3145 1.62402 116.537c-36.2549 -18.1436 -76.3223 -26.5381 -116.527 -19.5449c-12.5996 2.19336 -28.6406 19.6465 -41.9473 13.1631c-11.416 -5.55957 -12.7539 -22.54 -25.5186 -24.6904
c-5.84082 -0.982422 -10.7627 1.69922 -13.2529 3.05859c-25.248 13.7783 -27.2393 79.0186 -27.2393 79.0186c-4.10938 134.861 -36.1377 185.925 -24.1162 228.907c13.0986 46.8369 111.567 32.0596 96.918 -20.3105
c-9.73242 -34.7949 -12.5361 -72.2607 -6.36133 -108.021c5.65527 -32.7295 23.5859 -77.6338 46.3701 -90.1328c39.377 -21.5898 81.8711 13.2422 106.8 41.0439c-1.76855 57.3184 -3.53125 114.643 -5.2998 171.961c-1.56152 50.6973 98.9463 50.8516 100.513 0z" />
    <glyph glyph-name="Z" unicode="Z" horiz-adv-x="343" 
d="M298.751 191.423c21.1543 0.334961 50.6406 -13.2744 50.2744 -38.1982c-0.276367 -17.9102 -31.3652 -32.9424 -50.2568 -38.1934c-28.2637 -7.85352 -63.9932 -3.68555 -76.5352 -2.22559c-15.9023 1.85352 -17.9941 3.44141 -22.1035 1.08398
c-25.0352 -14.3682 7.30664 -99.3555 -13.7627 -109.338c-4.67285 -2.21387 -10.0146 0.191406 -14.5283 2.29395c-43.6777 20.3789 -44.1074 105.945 -52.7305 105.355c-8.5752 -0.589844 -4.74121 -85.0254 -23.7285 -88.5352
c-3.24414 -0.599609 -6.06348 1.37012 -8.41016 3.05859c-25.9277 18.6689 -16.248 78.5684 -15.0107 85.7686c-31.0889 -1.7998 -64.5293 16.0674 -53.1719 47.4854c10.5342 29.1553 75.0898 208.269 164.166 454.204c-60.9082 16.0615 -83.3311 9.5625 -91.126 -1.67285
c-11.0068 -15.8652 1.74707 -48.9824 -13.2744 -56.6758c-0.860352 -0.44043 -3.7168 -1.90039 -7.13672 -1.27344c-13.6084 2.50586 -8.81348 33.1426 -25.1572 57.1162c-18.4199 27.0215 -50.4805 23.751 -50.2578 38.1934
c0.392578 25.3594 28.3379 37.7891 50.2568 38.1924c59.3418 1.08887 118.688 2.17773 178.03 3.27148c26.4375 11.9629 66.6426 3.36133 75.8389 -19.9482c3.52051 -5.04395 5.66602 -10.9326 5.55957 -17.6758c-0.174805 -11.124 -5.64355 -19.7578 -13.582 -25.9805
c-52.8848 -146.305 -105.765 -292.609 -158.645 -438.914c55.0986 0.871094 110.192 1.73633 165.291 2.60742z" />
    <glyph glyph-name="bracketleft" unicode="[" 
d="M173.101 568.569c21.4668 0.0322266 50.2559 -13.04 50.2559 -38.1924c0 -25.1045 -28.6191 -38.1611 -50.2559 -38.1934c-16.1631 -0.0263672 -32.3262 -0.0527344 -48.4893 -0.0742188c-0.148438 -165.133 -0.291992 -330.266 -0.435547 -495.403
c-0.0478516 -50.8936 -100.561 -50.75 -100.513 0c0.154297 175.115 0.308594 350.23 0.462891 525.34c-0.706055 2.5752 -1.12598 5.29395 -1.12598 8.1875c0 25.0986 28.6143 38.1602 50.2568 38.1924z" />
    <glyph glyph-name="backslash" unicode="\" horiz-adv-x="483" 
d="M430.34 6.5293c12.1699 -22.5186 -17.2627 -43.2119 -35.1035 -46.9922c-24.9131 -5.27246 -49.7305 4.30664 -61.8203 26.6768c-93.5205 173.012 -187.035 346.023 -280.55 519.035c-12.1699 22.5186 17.2617 43.2109 35.1025 46.9863
c24.9131 5.27832 49.7256 -4.30078 61.8213 -26.6758c93.5205 -173.007 187.035 -346.019 280.55 -519.03z" />
    <glyph glyph-name="bracketright" unicode="]" 
d="M250.36 529.687c0 -2.89941 -0.419922 -5.61816 -1.12598 -8.18262c0.154297 -175.115 0.308594 -350.225 0.462891 -525.334c0.0429688 -50.8828 -100.465 -50.7607 -100.513 0c-0.143555 165.133 -0.291992 330.266 -0.435547 495.403
c-16.1631 0.0214844 -32.3262 0.0478516 -48.4893 0.0693359c-21.4668 0.0322266 -50.2559 12.9883 -50.2559 38.1934c0 25.0566 28.6191 38.2246 50.2559 38.1924c33.2812 -0.0478516 66.5625 -0.100586 99.8438 -0.148438
c21.4619 -0.0322266 50.2568 -12.9883 50.2568 -38.1934z" />
    <glyph glyph-name="asciicircum" unicode="^" horiz-adv-x="270" 
d="M252.613 403.442c11.2402 -22.8906 -16.4609 -43.0352 -35.0928 -46.9854c-24.2178 -5.12891 -50.6494 3.92383 -61.8213 26.6758c-6.33984 12.9023 -12.6748 25.8105 -19.0098 38.7129c-8.03906 -15.9082 -16.0781 -31.8164 -24.1113 -47.7246
c-11.4951 -22.7578 -37.2051 -31.8848 -61.8213 -26.6758c-18.7012 3.95605 -46.4814 24.457 -35.1025 46.9863c24.4199 48.3447 48.8398 96.6846 73.2588 145.024c18.6475 36.9189 78.4619 37.5879 96.9189 0c22.2588 -45.334 44.5225 -90.6738 66.7812 -136.014z" />
    <glyph glyph-name="underscore" unicode="_" horiz-adv-x="446" 
d="M382.248 75.7949c21.1484 -0.0634766 50.6445 -12.9668 50.2568 -38.1934c-0.381836 -25.0352 -28.332 -38.2617 -50.2559 -38.1924c-106.327 0.329102 -212.66 0.664062 -318.987 0.993164c-21.1543 0.0634766 -50.6445 12.9717 -50.2568 38.1934
c0.381836 25.0352 28.332 38.2617 50.2559 38.1924c106.327 -0.329102 212.66 -0.664062 318.987 -0.993164z" />
    <glyph glyph-name="grave" unicode="`" horiz-adv-x="159" 
d="M131.972 545.186c15.7275 -55.9434 16.832 -155.771 -44.5586 -185.501c-19.3643 -9.38184 -46.2363 -0.546875 -49.7783 21.7061c-2.06543 12.9824 3.04785 24.3877 4.36426 37.2217c1.13086 11.0127 -0.552734 21.3936 -2.4375 32.1885
c-4.22656 24.2227 -16.2529 46.3428 -22.1523 70.3799c-15.3242 62.4688 99.0205 79.2949 114.562 24.0049z" />
    <glyph glyph-name="a" unicode="a" horiz-adv-x="380" 
d="M298.515 655.292c40.959 -48.207 44.8096 -101.742 52.7109 -184.404c11.5059 -120.388 34.8789 -315.351 -6.75488 -336.351c-3.13281 -1.57715 -12.9873 -5.37891 -22.1729 -15.292c-16.6885 -18.0107 -14.6074 -38.3096 -22.1738 -39.7588
c-4.54492 -0.871094 -12.3984 5.09668 -26.7617 37.5176c-2.86719 -23.6074 -9.53613 -43.4609 -23.7021 -48.9883c-6.46191 -2.52246 -8.96289 0.0957031 -14.5273 -3.05859c-17.4482 -9.88184 -7.5459 -43.8955 -22.1738 -51.2285
c-6.83398 -3.4248 -15.3457 0.801758 -18.3506 2.29395c-31.4287 15.6055 -28.2217 80.7031 -38.2783 80.6875c-5.23047 -0.0107422 -7.01465 -17.6387 -18.2979 -19.5186c-4.55566 -0.759766 -8.41016 1.42773 -9.93945 2.29297
c-14.0498 7.96973 -14.2783 31.6992 -15.9404 31.5244c-2.38965 -0.254883 8.53809 -47.793 -10.8213 -61.3438c-0.631836 -0.44043 -8.74023 -5.95215 -16.0566 -3.05859c-17.0703 6.74902 -0.753906 47.7246 -18.0957 96.585
c-10.5078 29.6016 -21.1484 27.6689 -38.4902 65.5117c-6.02148 13.1309 -19.5449 42.6475 -21.4561 76.4648c-4.07227 72.042 45.584 143.489 104.824 172.692c45.7324 22.5508 94.8105 22.6777 139.009 6.46191c-0.594727 10.9697 -1.18945 21.9453 -1.88477 32.9043
c-2.19336 34.5664 -5.13477 69.2334 -23.3096 99.8066c-10.3066 17.3311 -24.8447 38.7773 -43.71 31.9707c-22.7578 -8.20898 -40.2002 -32.459 -49.8213 -53.2734c-9.78027 -21.1484 -14.8828 -42.2383 -16.7197 -60.3447c-5.15527 -50.835 -105.557 -49.7734 -100.513 0
c6.1748 60.9346 30.9238 120.897 81.0264 158.586c63.7012 47.9307 149.841 43.1523 202.381 -18.6797zM240.247 198.249c4.99609 5.58594 11.0303 9.93945 17.625 13.083c-0.276367 50.9736 -1.00391 101.979 -2.55957 152.941
c-4.4707 2.72949 -8.66016 6.00586 -12.3984 9.86035c-66.2393 68.2246 -135.261 -19.5928 -135.171 -88.9697c0.0957031 -69.4355 67.667 -159.388 132.504 -86.915z" />
    <glyph glyph-name="a" unicode="&#xe5;" horiz-adv-x="380" 
d="M298.515 655.292c40.959 -48.207 44.8096 -101.742 52.7109 -184.404c11.5059 -120.388 34.8789 -315.351 -6.75488 -336.351c-3.13281 -1.57715 -12.9873 -5.37891 -22.1729 -15.292c-16.6885 -18.0107 -14.6074 -38.3096 -22.1738 -39.7588
c-4.54492 -0.871094 -12.3984 5.09668 -26.7617 37.5176c-2.86719 -23.6074 -9.53613 -43.4609 -23.7021 -48.9883c-6.46191 -2.52246 -8.96289 0.0957031 -14.5273 -3.05859c-17.4482 -9.88184 -7.5459 -43.8955 -22.1738 -51.2285
c-6.83398 -3.4248 -15.3457 0.801758 -18.3506 2.29395c-31.4287 15.6055 -28.2217 80.7031 -38.2783 80.6875c-5.23047 -0.0107422 -7.01465 -17.6387 -18.2979 -19.5186c-4.55566 -0.759766 -8.41016 1.42773 -9.93945 2.29297
c-14.0498 7.96973 -14.2783 31.6992 -15.9404 31.5244c-2.38965 -0.254883 8.53809 -47.793 -10.8213 -61.3438c-0.631836 -0.44043 -8.74023 -5.95215 -16.0566 -3.05859c-17.0703 6.74902 -0.753906 47.7246 -18.0957 96.585
c-10.5078 29.6016 -21.1484 27.6689 -38.4902 65.5117c-6.02148 13.1309 -19.5449 42.6475 -21.4561 76.4648c-4.07227 72.042 45.584 143.489 104.824 172.692c45.7324 22.5508 94.8105 22.6777 139.009 6.46191c-0.594727 10.9697 -1.18945 21.9453 -1.88477 32.9043
c-2.19336 34.5664 -5.13477 69.2334 -23.3096 99.8066c-10.3066 17.3311 -24.8447 38.7773 -43.71 31.9707c-22.7578 -8.20898 -40.2002 -32.459 -49.8213 -53.2734c-9.78027 -21.1484 -14.8828 -42.2383 -16.7197 -60.3447c-5.15527 -50.835 -105.557 -49.7734 -100.513 0
c6.1748 60.9346 30.9238 120.897 81.0264 158.586c63.7012 47.9307 149.841 43.1523 202.381 -18.6797zM240.247 198.249c4.99609 5.58594 11.0303 9.93945 17.625 13.083c-0.276367 50.9736 -1.00391 101.979 -2.55957 152.941
c-4.4707 2.72949 -8.66016 6.00586 -12.3984 9.86035c-66.2393 68.2246 -135.261 -19.5928 -135.171 -88.9697c0.0957031 -69.4355 67.667 -159.388 132.504 -86.915z" />
    <glyph glyph-name="a" unicode="&#xe4;" horiz-adv-x="380" 
d="M298.515 655.292c40.959 -48.207 44.8096 -101.742 52.7109 -184.404c11.5059 -120.388 34.8789 -315.351 -6.75488 -336.351c-3.13281 -1.57715 -12.9873 -5.37891 -22.1729 -15.292c-16.6885 -18.0107 -14.6074 -38.3096 -22.1738 -39.7588
c-4.54492 -0.871094 -12.3984 5.09668 -26.7617 37.5176c-2.86719 -23.6074 -9.53613 -43.4609 -23.7021 -48.9883c-6.46191 -2.52246 -8.96289 0.0957031 -14.5273 -3.05859c-17.4482 -9.88184 -7.5459 -43.8955 -22.1738 -51.2285
c-6.83398 -3.4248 -15.3457 0.801758 -18.3506 2.29395c-31.4287 15.6055 -28.2217 80.7031 -38.2783 80.6875c-5.23047 -0.0107422 -7.01465 -17.6387 -18.2979 -19.5186c-4.55566 -0.759766 -8.41016 1.42773 -9.93945 2.29297
c-14.0498 7.96973 -14.2783 31.6992 -15.9404 31.5244c-2.38965 -0.254883 8.53809 -47.793 -10.8213 -61.3438c-0.631836 -0.44043 -8.74023 -5.95215 -16.0566 -3.05859c-17.0703 6.74902 -0.753906 47.7246 -18.0957 96.585
c-10.5078 29.6016 -21.1484 27.6689 -38.4902 65.5117c-6.02148 13.1309 -19.5449 42.6475 -21.4561 76.4648c-4.07227 72.042 45.584 143.489 104.824 172.692c45.7324 22.5508 94.8105 22.6777 139.009 6.46191c-0.594727 10.9697 -1.18945 21.9453 -1.88477 32.9043
c-2.19336 34.5664 -5.13477 69.2334 -23.3096 99.8066c-10.3066 17.3311 -24.8447 38.7773 -43.71 31.9707c-22.7578 -8.20898 -40.2002 -32.459 -49.8213 -53.2734c-9.78027 -21.1484 -14.8828 -42.2383 -16.7197 -60.3447c-5.15527 -50.835 -105.557 -49.7734 -100.513 0
c6.1748 60.9346 30.9238 120.897 81.0264 158.586c63.7012 47.9307 149.841 43.1523 202.381 -18.6797zM240.247 198.249c4.99609 5.58594 11.0303 9.93945 17.625 13.083c-0.276367 50.9736 -1.00391 101.979 -2.55957 152.941
c-4.4707 2.72949 -8.66016 6.00586 -12.3984 9.86035c-66.2393 68.2246 -135.261 -19.5928 -135.171 -88.9697c0.0957031 -69.4355 67.667 -159.388 132.504 -86.915z" />
    <glyph glyph-name="a" unicode="&#xe3;" horiz-adv-x="380" 
d="M298.515 655.292c40.959 -48.207 44.8096 -101.742 52.7109 -184.404c11.5059 -120.388 34.8789 -315.351 -6.75488 -336.351c-3.13281 -1.57715 -12.9873 -5.37891 -22.1729 -15.292c-16.6885 -18.0107 -14.6074 -38.3096 -22.1738 -39.7588
c-4.54492 -0.871094 -12.3984 5.09668 -26.7617 37.5176c-2.86719 -23.6074 -9.53613 -43.4609 -23.7021 -48.9883c-6.46191 -2.52246 -8.96289 0.0957031 -14.5273 -3.05859c-17.4482 -9.88184 -7.5459 -43.8955 -22.1738 -51.2285
c-6.83398 -3.4248 -15.3457 0.801758 -18.3506 2.29395c-31.4287 15.6055 -28.2217 80.7031 -38.2783 80.6875c-5.23047 -0.0107422 -7.01465 -17.6387 -18.2979 -19.5186c-4.55566 -0.759766 -8.41016 1.42773 -9.93945 2.29297
c-14.0498 7.96973 -14.2783 31.6992 -15.9404 31.5244c-2.38965 -0.254883 8.53809 -47.793 -10.8213 -61.3438c-0.631836 -0.44043 -8.74023 -5.95215 -16.0566 -3.05859c-17.0703 6.74902 -0.753906 47.7246 -18.0957 96.585
c-10.5078 29.6016 -21.1484 27.6689 -38.4902 65.5117c-6.02148 13.1309 -19.5449 42.6475 -21.4561 76.4648c-4.07227 72.042 45.584 143.489 104.824 172.692c45.7324 22.5508 94.8105 22.6777 139.009 6.46191c-0.594727 10.9697 -1.18945 21.9453 -1.88477 32.9043
c-2.19336 34.5664 -5.13477 69.2334 -23.3096 99.8066c-10.3066 17.3311 -24.8447 38.7773 -43.71 31.9707c-22.7578 -8.20898 -40.2002 -32.459 -49.8213 -53.2734c-9.78027 -21.1484 -14.8828 -42.2383 -16.7197 -60.3447c-5.15527 -50.835 -105.557 -49.7734 -100.513 0
c6.1748 60.9346 30.9238 120.897 81.0264 158.586c63.7012 47.9307 149.841 43.1523 202.381 -18.6797zM240.247 198.249c4.99609 5.58594 11.0303 9.93945 17.625 13.083c-0.276367 50.9736 -1.00391 101.979 -2.55957 152.941
c-4.4707 2.72949 -8.66016 6.00586 -12.3984 9.86035c-66.2393 68.2246 -135.261 -19.5928 -135.171 -88.9697c0.0957031 -69.4355 67.667 -159.388 132.504 -86.915z" />
    <glyph glyph-name="a" unicode="&#xe2;" horiz-adv-x="380" 
d="M298.515 655.292c40.959 -48.207 44.8096 -101.742 52.7109 -184.404c11.5059 -120.388 34.8789 -315.351 -6.75488 -336.351c-3.13281 -1.57715 -12.9873 -5.37891 -22.1729 -15.292c-16.6885 -18.0107 -14.6074 -38.3096 -22.1738 -39.7588
c-4.54492 -0.871094 -12.3984 5.09668 -26.7617 37.5176c-2.86719 -23.6074 -9.53613 -43.4609 -23.7021 -48.9883c-6.46191 -2.52246 -8.96289 0.0957031 -14.5273 -3.05859c-17.4482 -9.88184 -7.5459 -43.8955 -22.1738 -51.2285
c-6.83398 -3.4248 -15.3457 0.801758 -18.3506 2.29395c-31.4287 15.6055 -28.2217 80.7031 -38.2783 80.6875c-5.23047 -0.0107422 -7.01465 -17.6387 -18.2979 -19.5186c-4.55566 -0.759766 -8.41016 1.42773 -9.93945 2.29297
c-14.0498 7.96973 -14.2783 31.6992 -15.9404 31.5244c-2.38965 -0.254883 8.53809 -47.793 -10.8213 -61.3438c-0.631836 -0.44043 -8.74023 -5.95215 -16.0566 -3.05859c-17.0703 6.74902 -0.753906 47.7246 -18.0957 96.585
c-10.5078 29.6016 -21.1484 27.6689 -38.4902 65.5117c-6.02148 13.1309 -19.5449 42.6475 -21.4561 76.4648c-4.07227 72.042 45.584 143.489 104.824 172.692c45.7324 22.5508 94.8105 22.6777 139.009 6.46191c-0.594727 10.9697 -1.18945 21.9453 -1.88477 32.9043
c-2.19336 34.5664 -5.13477 69.2334 -23.3096 99.8066c-10.3066 17.3311 -24.8447 38.7773 -43.71 31.9707c-22.7578 -8.20898 -40.2002 -32.459 -49.8213 -53.2734c-9.78027 -21.1484 -14.8828 -42.2383 -16.7197 -60.3447c-5.15527 -50.835 -105.557 -49.7734 -100.513 0
c6.1748 60.9346 30.9238 120.897 81.0264 158.586c63.7012 47.9307 149.841 43.1523 202.381 -18.6797zM240.247 198.249c4.99609 5.58594 11.0303 9.93945 17.625 13.083c-0.276367 50.9736 -1.00391 101.979 -2.55957 152.941
c-4.4707 2.72949 -8.66016 6.00586 -12.3984 9.86035c-66.2393 68.2246 -135.261 -19.5928 -135.171 -88.9697c0.0957031 -69.4355 67.667 -159.388 132.504 -86.915z" />
    <glyph glyph-name="a" unicode="&#xe1;" horiz-adv-x="380" 
d="M298.515 655.292c40.959 -48.207 44.8096 -101.742 52.7109 -184.404c11.5059 -120.388 34.8789 -315.351 -6.75488 -336.351c-3.13281 -1.57715 -12.9873 -5.37891 -22.1729 -15.292c-16.6885 -18.0107 -14.6074 -38.3096 -22.1738 -39.7588
c-4.54492 -0.871094 -12.3984 5.09668 -26.7617 37.5176c-2.86719 -23.6074 -9.53613 -43.4609 -23.7021 -48.9883c-6.46191 -2.52246 -8.96289 0.0957031 -14.5273 -3.05859c-17.4482 -9.88184 -7.5459 -43.8955 -22.1738 -51.2285
c-6.83398 -3.4248 -15.3457 0.801758 -18.3506 2.29395c-31.4287 15.6055 -28.2217 80.7031 -38.2783 80.6875c-5.23047 -0.0107422 -7.01465 -17.6387 -18.2979 -19.5186c-4.55566 -0.759766 -8.41016 1.42773 -9.93945 2.29297
c-14.0498 7.96973 -14.2783 31.6992 -15.9404 31.5244c-2.38965 -0.254883 8.53809 -47.793 -10.8213 -61.3438c-0.631836 -0.44043 -8.74023 -5.95215 -16.0566 -3.05859c-17.0703 6.74902 -0.753906 47.7246 -18.0957 96.585
c-10.5078 29.6016 -21.1484 27.6689 -38.4902 65.5117c-6.02148 13.1309 -19.5449 42.6475 -21.4561 76.4648c-4.07227 72.042 45.584 143.489 104.824 172.692c45.7324 22.5508 94.8105 22.6777 139.009 6.46191c-0.594727 10.9697 -1.18945 21.9453 -1.88477 32.9043
c-2.19336 34.5664 -5.13477 69.2334 -23.3096 99.8066c-10.3066 17.3311 -24.8447 38.7773 -43.71 31.9707c-22.7578 -8.20898 -40.2002 -32.459 -49.8213 -53.2734c-9.78027 -21.1484 -14.8828 -42.2383 -16.7197 -60.3447c-5.15527 -50.835 -105.557 -49.7734 -100.513 0
c6.1748 60.9346 30.9238 120.897 81.0264 158.586c63.7012 47.9307 149.841 43.1523 202.381 -18.6797zM240.247 198.249c4.99609 5.58594 11.0303 9.93945 17.625 13.083c-0.276367 50.9736 -1.00391 101.979 -2.55957 152.941
c-4.4707 2.72949 -8.66016 6.00586 -12.3984 9.86035c-66.2393 68.2246 -135.261 -19.5928 -135.171 -88.9697c0.0957031 -69.4355 67.667 -159.388 132.504 -86.915z" />
    <glyph glyph-name="a" unicode="&#xe0;" horiz-adv-x="380" 
d="M298.515 655.292c40.959 -48.207 44.8096 -101.742 52.7109 -184.404c11.5059 -120.388 34.8789 -315.351 -6.75488 -336.351c-3.13281 -1.57715 -12.9873 -5.37891 -22.1729 -15.292c-16.6885 -18.0107 -14.6074 -38.3096 -22.1738 -39.7588
c-4.54492 -0.871094 -12.3984 5.09668 -26.7617 37.5176c-2.86719 -23.6074 -9.53613 -43.4609 -23.7021 -48.9883c-6.46191 -2.52246 -8.96289 0.0957031 -14.5273 -3.05859c-17.4482 -9.88184 -7.5459 -43.8955 -22.1738 -51.2285
c-6.83398 -3.4248 -15.3457 0.801758 -18.3506 2.29395c-31.4287 15.6055 -28.2217 80.7031 -38.2783 80.6875c-5.23047 -0.0107422 -7.01465 -17.6387 -18.2979 -19.5186c-4.55566 -0.759766 -8.41016 1.42773 -9.93945 2.29297
c-14.0498 7.96973 -14.2783 31.6992 -15.9404 31.5244c-2.38965 -0.254883 8.53809 -47.793 -10.8213 -61.3438c-0.631836 -0.44043 -8.74023 -5.95215 -16.0566 -3.05859c-17.0703 6.74902 -0.753906 47.7246 -18.0957 96.585
c-10.5078 29.6016 -21.1484 27.6689 -38.4902 65.5117c-6.02148 13.1309 -19.5449 42.6475 -21.4561 76.4648c-4.07227 72.042 45.584 143.489 104.824 172.692c45.7324 22.5508 94.8105 22.6777 139.009 6.46191c-0.594727 10.9697 -1.18945 21.9453 -1.88477 32.9043
c-2.19336 34.5664 -5.13477 69.2334 -23.3096 99.8066c-10.3066 17.3311 -24.8447 38.7773 -43.71 31.9707c-22.7578 -8.20898 -40.2002 -32.459 -49.8213 -53.2734c-9.78027 -21.1484 -14.8828 -42.2383 -16.7197 -60.3447c-5.15527 -50.835 -105.557 -49.7734 -100.513 0
c6.1748 60.9346 30.9238 120.897 81.0264 158.586c63.7012 47.9307 149.841 43.1523 202.381 -18.6797zM240.247 198.249c4.99609 5.58594 11.0303 9.93945 17.625 13.083c-0.276367 50.9736 -1.00391 101.979 -2.55957 152.941
c-4.4707 2.72949 -8.66016 6.00586 -12.3984 9.86035c-66.2393 68.2246 -135.261 -19.5928 -135.171 -88.9697c0.0957031 -69.4355 67.667 -159.388 132.504 -86.915z" />
    <glyph glyph-name="b" unicode="b" horiz-adv-x="351" 
d="M277.946 395.928c13.168 -8.42676 79.1904 -65.4414 69.8721 -148.979c-8.13965 -72.9932 -69.0684 -123.686 -87.4883 -120.568c-1.65625 0.28125 -6.95508 1.67285 -11.7236 -1.01953c-9.53613 -5.38965 -7.60352 -21.8389 -11.7236 -22.4287
c-4.74121 -0.679688 -8.90918 20.8408 -13.2529 20.708c-10.3223 -0.318359 1.40723 -119.734 -42.3135 -140.495c-8.25098 -3.91309 -16.4014 -1.98535 -18.3496 -1.52832c-28.8262 6.8125 -46.2842 60.0742 -45.5088 134.214
c-11.5752 1.74121 -26.0918 2.04395 -33.2441 -6.44141c-5.0332 -5.97363 -4.20508 -13.1416 -2.29395 -31.4336c3.45703 -33.0635 5.82031 -58.1621 -6.11621 -67.2842c-3.91309 -2.98926 -10.1045 -4.82617 -15.292 -3.05762
c-18.3447 6.26562 -18.3496 55.6777 -18.3496 68.8145c0 18.3447 2.35742 25.5664 -1.83203 39.2705c-5.1875 16.9697 -17.3311 26.7451 -17.3311 29.6279c0.180664 174.711 0.361328 349.428 0.541992 524.145c0.0371094 35.9199 50.0762 46.3799 79.5234 31.6133
c49.2588 9.55176 101.645 -0.180664 143.836 -29.002c47.75 -32.6172 73.9854 -91.6826 63.3867 -148.672c-9.27637 -49.874 -39.4092 -84.9023 -78.584 -105.972c16.1631 -5.06055 31.7422 -12.2236 46.2432 -21.5107zM124.008 624.969
c-0.0527344 -52.1895 -0.107422 -104.378 -0.166016 -156.557c39.8867 -3.76465 75.2871 20.4102 85.9229 59.5322c15.8818 58.4072 -32.6543 107.602 -85.7568 97.0244zM247.383 249.678c7.0459 30.292 -4.2959 62.9521 -27.7061 83.0918
c-26.1396 22.4922 -58.0352 20.958 -87.1377 5.87305c-2.89355 -1.49707 -5.8457 -2.6709 -8.82422 -3.55762c-0.0478516 -47.5381 -0.100586 -95.0703 -0.148438 -142.608c1.8584 -0.546875 3.68457 -1.13672 5.44727 -1.81641
c52.0195 -20.0391 106.269 6.99316 118.369 59.0176z" />
    <glyph glyph-name="c" unicode="c" horiz-adv-x="359" 
d="M258.458 261.268c13.4336 46.7734 111.925 31.9316 96.9297 -20.2998c-7.77344 -27.0693 -17.7295 -78.3291 -61.4922 -101.937c-22.1309 -11.9365 -29.4902 -4.49219 -39.4355 -16.375c-18.5996 -22.2314 -0.349609 -57.2754 -20.9463 -72.2168
c-2.1875 -1.58789 -8.62793 -6.26074 -15.292 -4.58789c-23.6865 5.94141 -32.6338 69.3711 -35.1875 68.7715c-1.45508 -0.339844 4.49707 -20.7236 -4.07812 -27.1748c-0.419922 -0.318359 -3.19727 -2.34668 -6.61133 -1.8418
c-9.9082 1.45996 -12.3662 22.375 -15.1592 22.0303c-3.25 -0.398438 -2.45898 -29.0068 -2.17188 -47.5166c0.849609 -54.4668 -1.93848 -65.7979 -10.1953 -72.3818c-6 -4.78906 -16.8154 -8.5957 -24.4668 -4.58691c-21.3555 11.1934 -15.9609 82.1416 -8.15527 107.634
c1.44922 4.74121 4.5293 12.9551 1.17383 20.7285c-1.84277 4.26367 -6.33984 13.8535 -11.6865 18.5312v0.00488281c-5.50586 5.86719 -9.57324 7.69922 -15.3926 11.6445c-61.8262 41.9258 -73.5762 153.457 -77.0967 195.287
c-6.70117 79.6084 1.67188 165.021 29.0488 240.371c29.373 80.8301 92.7178 147.887 187.029 126.223c92.8887 -21.3398 121.742 -124.715 108.696 -208.513c-3.89746 -25.0195 -25.4766 -38.1934 -50.2568 -38.1934c-18.8125 0 -54.1064 13.4707 -50.2568 38.1924
c3.82324 24.5732 4.32812 51.4932 -0.174805 75.9395c-4.24805 23.0703 -19.917 68.7822 -51.1064 58.248c-3.30273 -1.10938 -13.2422 -10.4492 -13.8154 -11.1396c-5.78223 -6.9873 -14.3252 -19.168 -16.9961 -24c-13.625 -24.6211 -22.2959 -52.4551 -29.0127 -79.6465
c-14.915 -60.3613 -18.0957 -124.684 -11.8145 -186.446c4.7041 -46.2266 15.6523 -104.373 50.2295 -135.122c49.5293 -44.0498 85.6191 26.3252 97.6934 68.373z" />
    <glyph glyph-name="c" unicode="&#xe7;" horiz-adv-x="359" 
d="M258.458 261.268c13.4336 46.7734 111.925 31.9316 96.9297 -20.2998c-7.77344 -27.0693 -17.7295 -78.3291 -61.4922 -101.937c-22.1309 -11.9365 -29.4902 -4.49219 -39.4355 -16.375c-18.5996 -22.2314 -0.349609 -57.2754 -20.9463 -72.2168
c-2.1875 -1.58789 -8.62793 -6.26074 -15.292 -4.58789c-23.6865 5.94141 -32.6338 69.3711 -35.1875 68.7715c-1.45508 -0.339844 4.49707 -20.7236 -4.07812 -27.1748c-0.419922 -0.318359 -3.19727 -2.34668 -6.61133 -1.8418
c-9.9082 1.45996 -12.3662 22.375 -15.1592 22.0303c-3.25 -0.398438 -2.45898 -29.0068 -2.17188 -47.5166c0.849609 -54.4668 -1.93848 -65.7979 -10.1953 -72.3818c-6 -4.78906 -16.8154 -8.5957 -24.4668 -4.58691c-21.3555 11.1934 -15.9609 82.1416 -8.15527 107.634
c1.44922 4.74121 4.5293 12.9551 1.17383 20.7285c-1.84277 4.26367 -6.33984 13.8535 -11.6865 18.5312v0.00488281c-5.50586 5.86719 -9.57324 7.69922 -15.3926 11.6445c-61.8262 41.9258 -73.5762 153.457 -77.0967 195.287
c-6.70117 79.6084 1.67188 165.021 29.0488 240.371c29.373 80.8301 92.7178 147.887 187.029 126.223c92.8887 -21.3398 121.742 -124.715 108.696 -208.513c-3.89746 -25.0195 -25.4766 -38.1934 -50.2568 -38.1934c-18.8125 0 -54.1064 13.4707 -50.2568 38.1924
c3.82324 24.5732 4.32812 51.4932 -0.174805 75.9395c-4.24805 23.0703 -19.917 68.7822 -51.1064 58.248c-3.30273 -1.10938 -13.2422 -10.4492 -13.8154 -11.1396c-5.78223 -6.9873 -14.3252 -19.168 -16.9961 -24c-13.625 -24.6211 -22.2959 -52.4551 -29.0127 -79.6465
c-14.915 -60.3613 -18.0957 -124.684 -11.8145 -186.446c4.7041 -46.2266 15.6523 -104.373 50.2295 -135.122c49.5293 -44.0498 85.6191 26.3252 97.6934 68.373z" />
    <glyph glyph-name="d" unicode="d" horiz-adv-x="367" 
d="M62.8213 698.344c90.3613 18.9668 186.826 -7.14746 240.406 -85.6992c49.7256 -72.8975 63.7109 -169.146 57.127 -255.907c-4.78418 -63.0049 -10.0674 -130.321 -57.0371 -172.136c-20.1133 -17.9102 -40.5449 -24.6006 -48.9287 -50.3525
c-7.08301 -21.7646 -10.6562 -72.8018 -18.0527 -89.4268c-0.886719 -1.99121 -3.06348 -6.73242 -6.62598 -7.13574c-3.70605 -0.419922 -7.01953 4.06641 -8.15625 5.60645c-13.1201 17.7773 2.97852 66.6484 -11.7715 76.2803
c-4.29004 2.80371 -11.0488 2.19824 -15.2383 -0.461914c-17.7822 -11.3096 -2.44727 -68.3418 -13.2578 -73.7793c-3.78027 -1.90137 -7.64551 -1.5293 -7.64551 -1.5293s-3.42969 0.334961 -6.62598 2.54883c-10.0566 6.9668 -3.93945 63.999 -12.9873 66.6807
c-2.00684 0.594727 -4.18945 -1.64551 -7.90137 -5.45215c-11.6709 -11.9785 -9.14844 -24.7803 -18.8701 -29.623c-0.5625 -0.28125 -3.53027 -1.70996 -7.13574 -1.5293c-10.4336 0.525391 -20.0811 14.1875 -24.4404 34.168
c0.568359 -68.2197 -7.74707 -118.54 -19.9062 -124.392c-10.8213 -5.20312 -19.8799 -3.05762 -19.8799 -3.05762s-4.59863 1.08887 -8.5918 3.94043c-16.6836 11.9043 2.49512 75.2334 -14.8408 142.561c-1.90137 7.38574 -4.93848 10.959 -5.16699 17.0117
c-6.56836 171.558 -7.02539 343.269 -1.37012 514.857c0.583984 17.708 13.0986 29.1982 29.1025 34.5557c2.56445 0.950195 5.17676 1.71973 7.79492 2.27148zM126.531 184.287c107.963 -7.10938 136.2 125.745 134.756 215.41
c-1.45996 90.8867 -33.2598 223.248 -135.817 228.085c-4.17871 -147.812 -3.82324 -295.704 1.06152 -443.495z" />
    <glyph glyph-name="e" unicode="e" horiz-adv-x="307" 
d="M259.281 187.027c21.1543 0 50.6426 -13.0156 50.2607 -38.1836c-0.254883 -16.7578 -25.8955 -35.1299 -50.2568 -38.1934c-27.9932 -3.52539 -51.5576 13.4395 -60.9238 2.65527c-4.90137 -5.64453 -3.06445 -15.6113 -6.11719 -15.9727
c-3.65332 -0.429688 -6.41406 13.8213 -9.37207 13.625c-7.70996 -0.509766 1.35938 -97.8906 -22.2373 -104.357c-3.93457 -1.07812 -7.54004 0.710938 -8.15625 1.01855c-16.8584 8.38379 -2.59082 53.6328 -20.3887 62.6963
c-3.44629 1.75195 -4.24805 0.196289 -8.66602 2.03906c-12.7695 5.3252 -17.4795 23.1289 -19.4072 38.2881c-14.0703 -51.8018 -27.8223 -89.0811 -34.6504 -92.7344c-3.28125 -1.75781 -6.59961 -2.13965 -6.59961 -2.13965
c-2.62305 -1.7207 -4.99609 -2.30469 -7.13574 -2.03906c-9.80664 1.22168 -22.5762 21.2285 -28.2891 119.533c-0.148438 8.39453 -0.296875 16.7842 -0.44043 25.1787c-4.93262 167.904 -5.20312 335.888 -0.72168 503.808
c0.865234 32.5166 42.0586 44.0967 71.4375 35.1182c48.6533 -0.461914 97.3066 -0.918945 145.965 -1.37598c21.1484 -0.196289 50.6436 -12.8652 50.2559 -38.1924c-0.381836 -24.9395 -28.3379 -38.3994 -50.2568 -38.1924
c-39.2812 0.366211 -78.5625 0.738281 -117.844 1.10449l-2.13574 -232.471c22.1416 0.117188 44.2832 0.234375 66.4248 0.345703c21.4668 0.111328 50.2559 -13.0996 50.2559 -38.1934c0 -25.1572 -28.6143 -38.0811 -50.2568 -38.1924
c-21.9287 -0.117188 -43.8633 -0.234375 -65.792 -0.345703c0.801758 -41.6123 1.59863 -83.2197 2.40039 -124.827h132.647z" />
    <glyph glyph-name="e" unicode="&#xeb;" horiz-adv-x="307" 
d="M259.281 187.027c21.1543 0 50.6426 -13.0156 50.2607 -38.1836c-0.254883 -16.7578 -25.8955 -35.1299 -50.2568 -38.1934c-27.9932 -3.52539 -51.5576 13.4395 -60.9238 2.65527c-4.90137 -5.64453 -3.06445 -15.6113 -6.11719 -15.9727
c-3.65332 -0.429688 -6.41406 13.8213 -9.37207 13.625c-7.70996 -0.509766 1.35938 -97.8906 -22.2373 -104.357c-3.93457 -1.07812 -7.54004 0.710938 -8.15625 1.01855c-16.8584 8.38379 -2.59082 53.6328 -20.3887 62.6963
c-3.44629 1.75195 -4.24805 0.196289 -8.66602 2.03906c-12.7695 5.3252 -17.4795 23.1289 -19.4072 38.2881c-14.0703 -51.8018 -27.8223 -89.0811 -34.6504 -92.7344c-3.28125 -1.75781 -6.59961 -2.13965 -6.59961 -2.13965
c-2.62305 -1.7207 -4.99609 -2.30469 -7.13574 -2.03906c-9.80664 1.22168 -22.5762 21.2285 -28.2891 119.533c-0.148438 8.39453 -0.296875 16.7842 -0.44043 25.1787c-4.93262 167.904 -5.20312 335.888 -0.72168 503.808
c0.865234 32.5166 42.0586 44.0967 71.4375 35.1182c48.6533 -0.461914 97.3066 -0.918945 145.965 -1.37598c21.1484 -0.196289 50.6436 -12.8652 50.2559 -38.1924c-0.381836 -24.9395 -28.3379 -38.3994 -50.2568 -38.1924
c-39.2812 0.366211 -78.5625 0.738281 -117.844 1.10449l-2.13574 -232.471c22.1416 0.117188 44.2832 0.234375 66.4248 0.345703c21.4668 0.111328 50.2559 -13.0996 50.2559 -38.1934c0 -25.1572 -28.6143 -38.0811 -50.2568 -38.1924
c-21.9287 -0.117188 -43.8633 -0.234375 -65.792 -0.345703c0.801758 -41.6123 1.59863 -83.2197 2.40039 -124.827h132.647z" />
    <glyph glyph-name="e" unicode="&#xea;" horiz-adv-x="307" 
d="M259.281 187.027c21.1543 0 50.6426 -13.0156 50.2607 -38.1836c-0.254883 -16.7578 -25.8955 -35.1299 -50.2568 -38.1934c-27.9932 -3.52539 -51.5576 13.4395 -60.9238 2.65527c-4.90137 -5.64453 -3.06445 -15.6113 -6.11719 -15.9727
c-3.65332 -0.429688 -6.41406 13.8213 -9.37207 13.625c-7.70996 -0.509766 1.35938 -97.8906 -22.2373 -104.357c-3.93457 -1.07812 -7.54004 0.710938 -8.15625 1.01855c-16.8584 8.38379 -2.59082 53.6328 -20.3887 62.6963
c-3.44629 1.75195 -4.24805 0.196289 -8.66602 2.03906c-12.7695 5.3252 -17.4795 23.1289 -19.4072 38.2881c-14.0703 -51.8018 -27.8223 -89.0811 -34.6504 -92.7344c-3.28125 -1.75781 -6.59961 -2.13965 -6.59961 -2.13965
c-2.62305 -1.7207 -4.99609 -2.30469 -7.13574 -2.03906c-9.80664 1.22168 -22.5762 21.2285 -28.2891 119.533c-0.148438 8.39453 -0.296875 16.7842 -0.44043 25.1787c-4.93262 167.904 -5.20312 335.888 -0.72168 503.808
c0.865234 32.5166 42.0586 44.0967 71.4375 35.1182c48.6533 -0.461914 97.3066 -0.918945 145.965 -1.37598c21.1484 -0.196289 50.6436 -12.8652 50.2559 -38.1924c-0.381836 -24.9395 -28.3379 -38.3994 -50.2568 -38.1924
c-39.2812 0.366211 -78.5625 0.738281 -117.844 1.10449l-2.13574 -232.471c22.1416 0.117188 44.2832 0.234375 66.4248 0.345703c21.4668 0.111328 50.2559 -13.0996 50.2559 -38.1934c0 -25.1572 -28.6143 -38.0811 -50.2568 -38.1924
c-21.9287 -0.117188 -43.8633 -0.234375 -65.792 -0.345703c0.801758 -41.6123 1.59863 -83.2197 2.40039 -124.827h132.647z" />
    <glyph glyph-name="e" unicode="&#xe9;" horiz-adv-x="307" 
d="M259.281 187.027c21.1543 0 50.6426 -13.0156 50.2607 -38.1836c-0.254883 -16.7578 -25.8955 -35.1299 -50.2568 -38.1934c-27.9932 -3.52539 -51.5576 13.4395 -60.9238 2.65527c-4.90137 -5.64453 -3.06445 -15.6113 -6.11719 -15.9727
c-3.65332 -0.429688 -6.41406 13.8213 -9.37207 13.625c-7.70996 -0.509766 1.35938 -97.8906 -22.2373 -104.357c-3.93457 -1.07812 -7.54004 0.710938 -8.15625 1.01855c-16.8584 8.38379 -2.59082 53.6328 -20.3887 62.6963
c-3.44629 1.75195 -4.24805 0.196289 -8.66602 2.03906c-12.7695 5.3252 -17.4795 23.1289 -19.4072 38.2881c-14.0703 -51.8018 -27.8223 -89.0811 -34.6504 -92.7344c-3.28125 -1.75781 -6.59961 -2.13965 -6.59961 -2.13965
c-2.62305 -1.7207 -4.99609 -2.30469 -7.13574 -2.03906c-9.80664 1.22168 -22.5762 21.2285 -28.2891 119.533c-0.148438 8.39453 -0.296875 16.7842 -0.44043 25.1787c-4.93262 167.904 -5.20312 335.888 -0.72168 503.808
c0.865234 32.5166 42.0586 44.0967 71.4375 35.1182c48.6533 -0.461914 97.3066 -0.918945 145.965 -1.37598c21.1484 -0.196289 50.6436 -12.8652 50.2559 -38.1924c-0.381836 -24.9395 -28.3379 -38.3994 -50.2568 -38.1924
c-39.2812 0.366211 -78.5625 0.738281 -117.844 1.10449l-2.13574 -232.471c22.1416 0.117188 44.2832 0.234375 66.4248 0.345703c21.4668 0.111328 50.2559 -13.0996 50.2559 -38.1934c0 -25.1572 -28.6143 -38.0811 -50.2568 -38.1924
c-21.9287 -0.117188 -43.8633 -0.234375 -65.792 -0.345703c0.801758 -41.6123 1.59863 -83.2197 2.40039 -124.827h132.647z" />
    <glyph glyph-name="e" unicode="&#xe8;" horiz-adv-x="307" 
d="M259.281 187.027c21.1543 0 50.6426 -13.0156 50.2607 -38.1836c-0.254883 -16.7578 -25.8955 -35.1299 -50.2568 -38.1934c-27.9932 -3.52539 -51.5576 13.4395 -60.9238 2.65527c-4.90137 -5.64453 -3.06445 -15.6113 -6.11719 -15.9727
c-3.65332 -0.429688 -6.41406 13.8213 -9.37207 13.625c-7.70996 -0.509766 1.35938 -97.8906 -22.2373 -104.357c-3.93457 -1.07812 -7.54004 0.710938 -8.15625 1.01855c-16.8584 8.38379 -2.59082 53.6328 -20.3887 62.6963
c-3.44629 1.75195 -4.24805 0.196289 -8.66602 2.03906c-12.7695 5.3252 -17.4795 23.1289 -19.4072 38.2881c-14.0703 -51.8018 -27.8223 -89.0811 -34.6504 -92.7344c-3.28125 -1.75781 -6.59961 -2.13965 -6.59961 -2.13965
c-2.62305 -1.7207 -4.99609 -2.30469 -7.13574 -2.03906c-9.80664 1.22168 -22.5762 21.2285 -28.2891 119.533c-0.148438 8.39453 -0.296875 16.7842 -0.44043 25.1787c-4.93262 167.904 -5.20312 335.888 -0.72168 503.808
c0.865234 32.5166 42.0586 44.0967 71.4375 35.1182c48.6533 -0.461914 97.3066 -0.918945 145.965 -1.37598c21.1484 -0.196289 50.6436 -12.8652 50.2559 -38.1924c-0.381836 -24.9395 -28.3379 -38.3994 -50.2568 -38.1924
c-39.2812 0.366211 -78.5625 0.738281 -117.844 1.10449l-2.13574 -232.471c22.1416 0.117188 44.2832 0.234375 66.4248 0.345703c21.4668 0.111328 50.2559 -13.0996 50.2559 -38.1934c0 -25.1572 -28.6143 -38.0811 -50.2568 -38.1924
c-21.9287 -0.117188 -43.8633 -0.234375 -65.792 -0.345703c0.801758 -41.6123 1.59863 -83.2197 2.40039 -124.827h132.647z" />
    <glyph glyph-name="f" unicode="f" horiz-adv-x="311" 
d="M268.885 695.222c17.0654 -0.137695 46.1328 -16.2666 50.248 -38.1953c1.41211 -7.48145 0.169922 -18.2549 -6.53613 -25.5029c-12.9502 -14.002 -33.9922 -1.57227 -43.7139 -12.6963c-12.8066 -14.6553 13.668 -47.6973 0.898438 -60.7109
c-5.98438 -6.0957 -18.4678 -5.63379 -26.7617 -1.5293c-21.6162 10.6934 -12.0059 44.7021 -29.8574 62.6973c-11.1348 11.2246 -34.6357 17.9092 -88.0518 0.72168c-1.9541 -77.2725 -2.80371 -154.561 -2.49023 -231.844
c28.1465 0.132812 56.293 0.260742 84.4453 0.393555c20.373 0.0957031 51.4619 -22.1309 50.2568 -38.1924c-0.902344 -12.0527 -19.5977 -11.7236 -32.3623 -32.7451c-12.8916 -21.2393 -6.44043 -42.377 -13.2852 -43.9326
c-7.80566 -1.77344 -13.2002 26.3682 -35.1719 38.3418c-17.501 9.54199 -38.4482 4.9707 -53.1934 -0.243164c0.579102 -82.0137 -3.29199 -137.989 -6.45117 -171.133c-0.636719 -6.7168 -1.95312 -16.4551 -4.58691 -35.9365
c-11.3945 -84.3076 -18.2119 -102.308 -32.1123 -107.809c-2.28809 -0.908203 -8.70801 -3.44629 -14.5273 -0.764648c-14.4004 6.63672 -7.35938 37.0723 -18.085 87.207c0 0 -3.2334 21.584 -5.68652 21.3613c-1.15234 -0.100586 -0.875977 -6.34473 -4.52344 -15.541
c-1.64062 -4.1416 -3.25977 -8.22461 -4.58691 -8.15527c-5.07129 0.254883 -5.7666 58.1572 -5.7666 58.1572s-3.67969 12.7861 -4.87402 239.225c-0.499023 94.3809 0.701172 188.762 3.58398 283.115c0.998047 32.5059 42.1914 44.0859 71.5332 35.123
c57.2227 -0.472656 114.44 -0.945312 171.658 -1.41211z" />
    <glyph glyph-name="g" unicode="g" horiz-adv-x="381" 
d="M357.553 286.871c-0.106445 -5.3252 -0.34082 -10.6631 -0.75 -16.0156c25.5664 -69.6475 17.209 -108.7 4.11523 -131.691c-7.42285 -13.0244 -12.8867 -14.7871 -19.6143 -30.7588c-19.3701 -45.9873 1.125 -90.3125 -13.0781 -96.9766
c-5.98926 -2.80859 -14.0918 2.96875 -15.292 3.82324c-24.042 17.1348 1.59375 67.7842 -23.0967 92.1084c-7.1416 7.03516 -16.0986 9.50977 -22.0664 10.5342c-3.83398 -0.499023 -9.96094 -1.87402 -14.6816 -6.52539
c-22.7627 -22.4443 22.3115 -86.8037 -0.557617 -109.37c-4.92773 -4.86328 -13.4131 -8.17676 -20.3896 -6.11621c-28.752 8.49023 -20.7822 104.915 -33.0586 105.802c-7.01953 0.509766 -12.335 -30.791 -21.999 -30.3613
c-9.18555 0.40332 -8.88281 28.8691 -27.334 37.5244c-10.7363 5.03906 -20.4053 -0.116211 -27.7168 -0.822266c-33.499 -3.24414 -83.0127 80.4268 -104.74 180.318c-13.8848 63.8438 -22.5449 150.647 11.0176 254.219c25.4443 78.5146 79.3271 151.104 167.654 156.694
c93 5.88281 150.297 -73.3652 156.308 -158.342c3.55762 -50.3096 -96.918 -50.8301 -100.513 0c-1.2793 18.1006 -6.02051 39.7324 -17.3564 58.6299c-6.39844 10.6562 -15.7969 21.9395 -28.5293 23.6914c-3.33496 0.457031 -7.07324 -0.456055 -11.6289 -1.69824
c6.23926 1.62988 -5.77637 -2.32031 -7.88965 -3.46191c-45.6904 -24.7119 -63.6582 -94.9805 -73.1631 -141.685c-18.3613 -90.2227 -1.21582 -159.689 3.46777 -178.443c16.1572 -64.6729 46.1094 -114.717 71.75 -119.639
c11.3682 -2.18262 20.9102 1.07715 20.9102 1.07715c13.2051 4.51367 20.4424 15.5049 27.1963 26.4053c12.2334 19.7412 17.7871 42.4189 19.7412 65.3779c-0.0527344 0.727539 -0.126953 1.45508 -0.185547 2.18262
c-10.4922 -0.732422 -20.9785 -1.8584 -31.4648 -3.51465c-22.2588 -3.52539 -53.1562 2.1875 -61.8213 26.6758c-8.08691 22.8535 13.8105 43.6201 35.1025 46.9863c40.2002 6.35547 80.4961 8.89355 121.1 5.95703c21.4033 -1.54492 50.2568 -11.8301 50.2568 -38.1934
c0 -9.67969 -4.70996 -17.9893 -11.6924 -24.3926z" />
    <glyph glyph-name="h" unicode="h" horiz-adv-x="403" 
d="M365.163 693.204c21.9766 -14.2568 19.2441 -50.0635 16.3027 -108.072c-3.78027 -74.5908 -9.91797 -195.743 -6.80664 -279.329c0.457031 -12.1543 1.92285 -45.8232 1.69434 -92.4795c-0.100586 -20.623 -0.5625 -43.8369 -1.64551 -69.3818
c-3.37695 -79.6992 -13.917 -144.096 -21.791 -143.979s-13.6719 64.7158 -20.3887 64.2275c-5.56445 -0.40332 -0.801758 -44.6709 -21.4092 -54.0322c-4.90039 -2.22461 -11.6602 -2.66504 -17.3311 0c-11.4688 5.40039 -15.4932 22.1152 -18.3496 93.791
c-1.32715 33.2705 -1.24219 39.9922 -1.24219 39.9922c0.541992 44.5117 0.5 110.947 -0.0625 203.969c-49.752 0.132812 -99.5039 0.270508 -149.256 0.40332c-0.429688 -22.4492 -0.621094 -50.6758 0.0263672 -83.2881
c0.891602 -45.0801 2.91992 -75.8018 0.0371094 -121.083c-1.13672 -17.8145 -5.33105 -79.4336 -18.7275 -80.7715c-7.92188 -0.791016 -14.166 18.0156 -20.3887 16.3115c-10.2051 -2.79785 3.45117 -54.5947 -15.8018 -65.7559
c-7.09375 -4.10938 -16.9326 -1.69922 -22.9375 1.5293c-8.86719 4.77344 -23.4375 18.9082 -22.6514 128.687c0.207031 29.5225 1.24219 47.1719 1.24219 47.1719c2.46875 42.1914 1.01367 49.9541 -1.32812 228.871c-2.02344 154.858 -1.17383 145.216 -1.1582 147.568
c0.287109 41.3203 1.08887 66.6797 1.08398 94.6885c-0.015625 50.8887 100.497 50.7559 100.513 0c0.0263672 -79.1787 0.0527344 -158.357 0.0742188 -237.541c49.752 -0.132812 99.5039 -0.270508 149.256 -0.40332c0.891602 28.3701 2.64941 82.7998 5.41016 156.765
c2.1875 58.6299 3.76953 88.9326 26.5059 106.024c16.3008 12.2549 42.4463 16.9434 59.1299 6.11719z" />
    <glyph glyph-name="i" unicode="i" horiz-adv-x="149" 
d="M22 655.499c-0.015625 47.5752 100.493 47.4492 100.509 -0.0146484c0.0214844 -63.5146 6.7168 -155.474 5.74512 -291.153c-0.429688 -60.5791 -5.91504 -121.089 -5.58594 -181.668c0.111328 -20.6123 0.775391 -91.1045 -10.3701 -92.4004
c-2.01758 -0.233398 -4.41211 1.7998 -5.09668 2.38379c-6.42969 5.46387 -1.64062 14.4111 -5.25684 24.9561c-2.49023 7.26367 -8.94727 15.2178 -12.0537 14.5117c-11.2197 -2.54883 26.124 -116.889 -8.68652 -134.771
c-8.46875 -4.34863 -19.7256 -2.23047 -26.5059 1.90625c-12.0801 7.36426 -14.0234 23.6064 -12.7441 85.7725c0.68457 33.2393 2.18164 74.4424 -5.60742 75.7695c-2.68652 0.461914 -4.94824 -4.08887 -8.15527 -3.33496
c-6.62109 1.56152 -6.07422 23.1406 -6.03223 25.2168c1.3916 68.3945 -0.116211 346.194 -0.15918 472.826z" />
    <glyph glyph-name="i" unicode="&#xef;" horiz-adv-x="149" 
d="M22 655.499c-0.015625 47.5752 100.493 47.4492 100.509 -0.0146484c0.0214844 -63.5146 6.7168 -155.474 5.74512 -291.153c-0.429688 -60.5791 -5.91504 -121.089 -5.58594 -181.668c0.111328 -20.6123 0.775391 -91.1045 -10.3701 -92.4004
c-2.01758 -0.233398 -4.41211 1.7998 -5.09668 2.38379c-6.42969 5.46387 -1.64062 14.4111 -5.25684 24.9561c-2.49023 7.26367 -8.94727 15.2178 -12.0537 14.5117c-11.2197 -2.54883 26.124 -116.889 -8.68652 -134.771
c-8.46875 -4.34863 -19.7256 -2.23047 -26.5059 1.90625c-12.0801 7.36426 -14.0234 23.6064 -12.7441 85.7725c0.68457 33.2393 2.18164 74.4424 -5.60742 75.7695c-2.68652 0.461914 -4.94824 -4.08887 -8.15527 -3.33496
c-6.62109 1.56152 -6.07422 23.1406 -6.03223 25.2168c1.3916 68.3945 -0.116211 346.194 -0.15918 472.826z" />
    <glyph glyph-name="i" unicode="&#xee;" horiz-adv-x="149" 
d="M22 655.499c-0.015625 47.5752 100.493 47.4492 100.509 -0.0146484c0.0214844 -63.5146 6.7168 -155.474 5.74512 -291.153c-0.429688 -60.5791 -5.91504 -121.089 -5.58594 -181.668c0.111328 -20.6123 0.775391 -91.1045 -10.3701 -92.4004
c-2.01758 -0.233398 -4.41211 1.7998 -5.09668 2.38379c-6.42969 5.46387 -1.64062 14.4111 -5.25684 24.9561c-2.49023 7.26367 -8.94727 15.2178 -12.0537 14.5117c-11.2197 -2.54883 26.124 -116.889 -8.68652 -134.771
c-8.46875 -4.34863 -19.7256 -2.23047 -26.5059 1.90625c-12.0801 7.36426 -14.0234 23.6064 -12.7441 85.7725c0.68457 33.2393 2.18164 74.4424 -5.60742 75.7695c-2.68652 0.461914 -4.94824 -4.08887 -8.15527 -3.33496
c-6.62109 1.56152 -6.07422 23.1406 -6.03223 25.2168c1.3916 68.3945 -0.116211 346.194 -0.15918 472.826z" />
    <glyph glyph-name="i" unicode="&#xed;" horiz-adv-x="149" 
d="M22 655.499c-0.015625 47.5752 100.493 47.4492 100.509 -0.0146484c0.0214844 -63.5146 6.7168 -155.474 5.74512 -291.153c-0.429688 -60.5791 -5.91504 -121.089 -5.58594 -181.668c0.111328 -20.6123 0.775391 -91.1045 -10.3701 -92.4004
c-2.01758 -0.233398 -4.41211 1.7998 -5.09668 2.38379c-6.42969 5.46387 -1.64062 14.4111 -5.25684 24.9561c-2.49023 7.26367 -8.94727 15.2178 -12.0537 14.5117c-11.2197 -2.54883 26.124 -116.889 -8.68652 -134.771
c-8.46875 -4.34863 -19.7256 -2.23047 -26.5059 1.90625c-12.0801 7.36426 -14.0234 23.6064 -12.7441 85.7725c0.68457 33.2393 2.18164 74.4424 -5.60742 75.7695c-2.68652 0.461914 -4.94824 -4.08887 -8.15527 -3.33496
c-6.62109 1.56152 -6.07422 23.1406 -6.03223 25.2168c1.3916 68.3945 -0.116211 346.194 -0.15918 472.826z" />
    <glyph glyph-name="i" unicode="&#xec;" horiz-adv-x="149" 
d="M22 655.499c-0.015625 47.5752 100.493 47.4492 100.509 -0.0146484c0.0214844 -63.5146 6.7168 -155.474 5.74512 -291.153c-0.429688 -60.5791 -5.91504 -121.089 -5.58594 -181.668c0.111328 -20.6123 0.775391 -91.1045 -10.3701 -92.4004
c-2.01758 -0.233398 -4.41211 1.7998 -5.09668 2.38379c-6.42969 5.46387 -1.64062 14.4111 -5.25684 24.9561c-2.49023 7.26367 -8.94727 15.2178 -12.0537 14.5117c-11.2197 -2.54883 26.124 -116.889 -8.68652 -134.771
c-8.46875 -4.34863 -19.7256 -2.23047 -26.5059 1.90625c-12.0801 7.36426 -14.0234 23.6064 -12.7441 85.7725c0.68457 33.2393 2.18164 74.4424 -5.60742 75.7695c-2.68652 0.461914 -4.94824 -4.08887 -8.15527 -3.33496
c-6.62109 1.56152 -6.07422 23.1406 -6.03223 25.2168c1.3916 68.3945 -0.116211 346.194 -0.15918 472.826z" />
    <glyph glyph-name="j" unicode="j" horiz-adv-x="327" 
d="M299.091 657.708c5.49023 -53.5117 9.59766 -107.172 12.0186 -160.917c2.30957 -51.2656 2.11816 6.84961 -2.41602 -200.007c-2.0127 -91.8057 -3.46191 -129.366 -31.5928 -152.06c-24.3242 -19.625 -42.5527 -7.12012 -61.6836 -28.8047
c-34.0195 -38.5645 -4.67773 -110.214 -29.0498 -120.037c-6.4248 -2.59082 -13.1738 0.494141 -14.2725 1.01953c-28.752 13.7363 -0.647461 95.6172 -31.6035 113.16c-4.6084 2.6123 -12.7637 5.07031 -17.7227 1.64551
c-11.3252 -7.82129 4.70508 -38.958 -9.80078 -51.6006c-0.801758 -0.701172 -6.62109 -5.63379 -12.2334 -4.07812c-13.625 3.78613 -6.36621 40.4072 -19.0244 73.9541c-11.9199 31.582 -40.6826 35.4102 -53.0703 60.249
c-34.2002 68.5645 -28.0352 152.464 -10.1787 224.501c11.6602 47.0605 110.018 32.5381 96.9189 -20.3096c-14.1396 -57.0371 -25.0029 -155.83 23.1455 -201.871c52.4922 -50.1982 67.71 81.9502 70.2852 111.063c9.39258 106.057 3.23828 213.993 -6.87695 320.119
l-116.49 -0.890625c-21.1592 -0.165039 -50.6387 13.1416 -50.2568 38.1934c0.387695 25.2002 28.333 38.0234 50.2568 38.1934c52.4229 0.40332 104.852 0.806641 157.28 1.20996c14.543 0.111328 33.0312 -6.14844 43.0352 -18.2119
c7.24219 -6.06934 12.2754 -14.2148 13.332 -24.5215z" />
    <glyph glyph-name="k" unicode="k" horiz-adv-x="344" 
d="M336.592 642.969c-14.5645 -44.8994 19.2637 -80.6562 1.07812 -99.6279c-1.38086 -1.44434 -6.71191 -6.58984 -13.2539 -6.11719c-18.0527 1.31152 -20.0703 43.6191 -33.4141 48.9824c-17.0127 6.83887 -60.0693 -43.2793 -151.2 -206.314
c164.776 -165.935 202.545 -222.34 192.77 -234.144c-4.53418 -5.47949 -18.5254 -0.40332 -32.623 -12.2334c-19.6885 -16.5234 -14.9043 -45.2969 -23.4473 -46.8955c-10.0137 -1.87402 -24.8174 36.1328 -28.4385 44.9844
c-14.75 36.0635 -46.8633 84.6318 -124.73 134.118c12.584 -36.3135 18.1592 -76.71 3.61621 -114.845c-7.0459 -18.4775 -11.3359 -16.7939 -19.6777 -38.7705c-21.2969 -56.0918 -6.8916 -102.652 -24.4668 -109.082c-5.88867 -2.15527 -12.1387 1.37598 -13.2539 2.04004
c-19.582 11.6338 0.897461 55.2158 -20.3896 108.063c-3.40918 8.45801 -6.41406 13.502 -8.54883 17.5215c-35.3682 66.6475 -18.3613 205.927 -19.5557 311.563c-1.48145 131.569 2.38379 161.197 3.97656 206.888c1.77832 50.9893 102.275 50.5322 100.513 0
c-1.60352 -46.0352 -2.67578 -92.0811 -3.31836 -138.133c42.5205 56.8516 85.0518 113.703 127.577 170.555c59.2939 79.2686 91.2744 -24.7168 86.7881 -38.5537z" />
    <glyph glyph-name="l" unicode="l" horiz-adv-x="347" 
d="M308.544 182.137c21.1484 0 50.6396 -13.0215 50.2578 -38.1953c-0.265625 -17.2461 -30.4141 -32.4375 -50.2568 -38.1934c-24.5254 -7.12012 -29.3574 1.24316 -40.9375 -4.85742c-39.2969 -20.7021 -4.95898 -128.171 -41.2881 -145.273
c-8.23047 -3.87598 -18.8662 -2.53223 -25.9971 1.5293c-37.1367 21.1484 4.25781 125.442 -33.6426 146.804c-5.95703 3.36133 -15.6367 5.66016 -22.9326 1.7998c-29.251 -15.4668 5.35254 -116.272 -19.8848 -127.194
c-5.68652 -2.45801 -12.0312 0.674805 -13.7627 1.5293c-32.3154 15.9717 -1.41797 108.499 -34.0352 125.665c-10.1523 5.3418 -18.6582 0.626953 -32.4902 9.24512c-9.83887 6.13281 -17.209 15.2656 -17.6709 27.3027c-0.8125 2.72363 -1.31738 5.63867 -1.43945 8.74512
c-6.77539 170.336 -7.24805 340.831 -1.41797 511.199c1.74707 50.9893 102.244 50.5381 100.513 0c-5.47461 -160.003 -5.31543 -320.118 0.323242 -480.105h184.662z" />
    <glyph glyph-name="m" unicode="m" horiz-adv-x="479" 
d="M453.986 662.243c-8.08105 -269.841 7.64648 -263.8 1.25879 -513.861c-1.1416 -44.6973 -3.97656 -119.464 -35.1445 -129.558c-1.84277 -0.594727 -10.0195 -3.24414 -17.3311 0.509766c-21.7754 11.1768 -1.17871 61.2529 -29.5645 107.044
c-7.48633 12.0742 -15.1484 18.6426 -18.4727 22.0039c-25.3916 25.6836 -39.0059 108.526 -4.51367 336.558c-22.8906 -71.5645 -51.9033 -105.191 -75.1973 -122.597c-13.1094 -9.79688 -34.1621 -21.749 -41.4893 -46.3438
c-6.25 -20.9785 0.647461 -40.5342 -11.2148 -48.4248c-5.94727 -3.9502 -15.0693 -3.95508 -21.4092 -0.508789c-20.2031 10.9805 -7.85254 54.5947 -12.6787 95.2783c-3.4834 29.3682 -17.4531 70.1201 -65.7559 116.325c-1.22656 -185.277 0 -302.171 4.53418 -334.725
c0.376953 -2.69727 5.4375 -38.2617 -5.61719 -43.0508c-2.19336 -0.950195 -5.33105 -0.828125 -6.88184 -0.764648c-10.917 0.429688 -14.6074 7.47559 -18.0957 6.37109c-8.40527 -2.6709 6.50977 -45.9873 -10.1943 -59.1289
c-7.61426 -5.99512 -18.4141 -3.66992 -18.8604 -3.56934c-6.97656 1.59863 -30.6104 10.96 -42.3076 124.376c-5.4375 52.71 -4.61426 81.3135 -2.71875 159.032c1.95898 80.2139 2.94141 120.318 -0.366211 158.002c-5.36816 61.2002 1.7998 122.873 3.28613 172.594
c0.583984 19.4971 15.6533 31.4492 33.9453 35.9834c5.11328 1.26855 15.9346 5.44238 29.2246 2.56445c24.0215 -5.19824 34.9805 -26.7979 36.5312 -29.9785c36.1436 -63.9453 72.2871 -127.896 108.436 -191.841c40.9219 66.7275 81.8438 133.449 122.771 200.171
c2.63379 3.12207 25.7627 29.7715 54.5732 25.3486c24.3291 -3.73828 43.6143 -25.7842 43.2529 -37.8105z" />
    <glyph glyph-name="n" unicode="n" horiz-adv-x="428" 
d="M405.044 662.243c-4.64062 -169.115 -4.31152 -338.312 0.950195 -507.41c-0.435547 -5.81934 -0.871094 -11.6387 -1.31152 -17.458c0.28125 -18.4199 0.860352 -104.305 -23.75 -110.167c-1.24219 -0.296875 -5.40527 -1.06641 -9.25 1.04199
c-18.7061 10.2637 6.74902 68.5059 -14.1445 82.5762c-7.16797 4.82617 -16.2744 2.08594 -17.7881 1.59766c-15.9502 -5.15039 -21.2012 -29.251 -26.1768 -52.0615c-3.14844 -14.4482 -4.20996 -26.6982 -4.58691 -35.1729
c-3.79688 -1.52344 -9.4834 -3.0791 -14.5273 -0.763672c-21.6104 9.92383 2.50684 75.3711 -3.41309 143.968c-4.13672 47.915 -27.3613 88.4492 -73.8105 169.519c-20.8779 36.4404 -51.3818 84.8496 -93.918 138.515
c12.7803 -219.419 3.59961 -302.129 -10.0674 -331.194c-3.35059 -7.12012 -11.1504 -19.9111 -16.8213 -41.2881c-10.3164 -38.8828 -3.87012 -69.2646 -17.585 -74.9297c-4.48633 -1.85352 -9.0791 -0.132812 -11.4688 0.764648
c-32.7773 12.2812 -39.3613 103.465 -40.3486 118.598c-10.2109 156.876 -4.35938 254.172 -4.35938 254.172c-0.211914 84.7324 0.823242 169.471 3.09082 254.188c-2.25684 7.51855 -0.132812 14.6924 4.27441 20.9688c5.63867 10.3008 16.4863 17.0869 28.9805 20.3369
c1.2959 0.40918 2.55957 0.753906 3.77051 1.00879c6.84375 1.44922 13.6562 1.74121 20.2031 0.992188c20.0977 -1.625 38.6816 -11.4854 42.627 -29.5273c58.6729 -107.75 117.351 -215.506 176.023 -323.256c-0.93457 104.994 0.015625 210.005 2.89355 314.983
c1.39648 50.9785 101.899 50.5908 100.514 0z" />
    <glyph glyph-name="n" unicode="&#xf1;" horiz-adv-x="428" 
d="M405.044 662.243c-4.64062 -169.115 -4.31152 -338.312 0.950195 -507.41c-0.435547 -5.81934 -0.871094 -11.6387 -1.31152 -17.458c0.28125 -18.4199 0.860352 -104.305 -23.75 -110.167c-1.24219 -0.296875 -5.40527 -1.06641 -9.25 1.04199
c-18.7061 10.2637 6.74902 68.5059 -14.1445 82.5762c-7.16797 4.82617 -16.2744 2.08594 -17.7881 1.59766c-15.9502 -5.15039 -21.2012 -29.251 -26.1768 -52.0615c-3.14844 -14.4482 -4.20996 -26.6982 -4.58691 -35.1729
c-3.79688 -1.52344 -9.4834 -3.0791 -14.5273 -0.763672c-21.6104 9.92383 2.50684 75.3711 -3.41309 143.968c-4.13672 47.915 -27.3613 88.4492 -73.8105 169.519c-20.8779 36.4404 -51.3818 84.8496 -93.918 138.515
c12.7803 -219.419 3.59961 -302.129 -10.0674 -331.194c-3.35059 -7.12012 -11.1504 -19.9111 -16.8213 -41.2881c-10.3164 -38.8828 -3.87012 -69.2646 -17.585 -74.9297c-4.48633 -1.85352 -9.0791 -0.132812 -11.4688 0.764648
c-32.7773 12.2812 -39.3613 103.465 -40.3486 118.598c-10.2109 156.876 -4.35938 254.172 -4.35938 254.172c-0.211914 84.7324 0.823242 169.471 3.09082 254.188c-2.25684 7.51855 -0.132812 14.6924 4.27441 20.9688c5.63867 10.3008 16.4863 17.0869 28.9805 20.3369
c1.2959 0.40918 2.55957 0.753906 3.77051 1.00879c6.84375 1.44922 13.6562 1.74121 20.2031 0.992188c20.0977 -1.625 38.6816 -11.4854 42.627 -29.5273c58.6729 -107.75 117.351 -215.506 176.023 -323.256c-0.93457 104.994 0.015625 210.005 2.89355 314.983
c1.39648 50.9785 101.899 50.5908 100.514 0z" />
    <glyph glyph-name="o" unicode="o" horiz-adv-x="412" 
d="M214.553 695.296c7.17871 -1.15234 158.448 -72.6494 188.379 -245.55c19.9541 -115.274 -23.1875 -222.6 -57.0635 -257.861c-7.15723 -7.44922 -18.6953 -16.6719 -28.8525 -35.4043c-19.2109 -35.4375 -14.2568 -71.082 -33.0801 -75.8447
c-1.49707 -0.381836 -5.78711 -1.46484 -10.7041 0.000976562c-19.8633 5.91504 -15.3867 43.1465 -36.7002 51.2227c-1.24805 0.477539 -10.54 3.85938 -16.5557 -0.5c-11.1396 -8.07031 -0.456055 -35.0068 -12.8809 -43.0771
c-0.976562 -0.636719 -2.83984 -1.84766 -5.22363 -1.65625c-9.1377 0.72168 -11.2773 20.8984 -15.9072 20.9727c-8.71289 0.132812 -6.03711 -71.2939 -35.0654 -82.1416c-1.44434 -0.541992 -9.23926 -3.45703 -16.3115 0
c-22.7471 11.1182 2.60156 68.3838 -24.3936 118.349c-11.1504 20.6338 -28.0615 28.0039 -35.7656 38.3848c-65.2354 87.8711 -84.9287 207.106 -60.0098 312.431c21.4834 90.8232 79.6406 191.475 180.558 200.771c3.29199 0.499023 6.5625 0.727539 9.70605 0.610352
c3.14355 0.100586 6.4834 -0.165039 9.87109 -0.707031zM262.325 236.836c38.7715 66.1592 53.1543 152.906 37.4531 227.911c-7.75781 37.0781 -20.7402 75.3135 -41.5654 107.172c-8.7666 13.4072 -18.5576 26.501 -31.0781 36.5732
c-4.96484 3.99316 -9.30273 6.97168 -14.9258 9.31348c-2.19336 0.913086 -6.62695 1.51855 -7.74707 1.72559c-1.34375 -0.361328 -9.03711 -2.08691 -12.1328 -3.75977c-5.1084 -2.76074 -11.751 -7.86328 -16.6514 -12.4346
c-12.5625 -11.7188 -22.9805 -26.793 -31.4756 -41.6709c-20.6816 -36.2334 -34.1631 -79.3799 -38.6445 -120.79c-8.44824 -78.0049 11.7129 -166.518 61.8477 -228.18c7.74121 -9.52539 18.6045 -20.5107 27.541 -25.7041
c7.18945 -4.17871 8.17676 -2.93652 12.7002 -4.98047c-3.25488 1.47656 0.541992 0.197266 0.97168 0.292969c3.78027 0.828125 15.3398 6.94531 23.7822 14.8779c11.835 11.1133 21.7695 25.7363 29.9248 39.6533z" />
    <glyph glyph-name="o" unicode="&#xf8;" horiz-adv-x="412" 
d="M214.553 695.296c7.17871 -1.15234 158.448 -72.6494 188.379 -245.55c19.9541 -115.274 -23.1875 -222.6 -57.0635 -257.861c-7.15723 -7.44922 -18.6953 -16.6719 -28.8525 -35.4043c-19.2109 -35.4375 -14.2568 -71.082 -33.0801 -75.8447
c-1.49707 -0.381836 -5.78711 -1.46484 -10.7041 0.000976562c-19.8633 5.91504 -15.3867 43.1465 -36.7002 51.2227c-1.24805 0.477539 -10.54 3.85938 -16.5557 -0.5c-11.1396 -8.07031 -0.456055 -35.0068 -12.8809 -43.0771
c-0.976562 -0.636719 -2.83984 -1.84766 -5.22363 -1.65625c-9.1377 0.72168 -11.2773 20.8984 -15.9072 20.9727c-8.71289 0.132812 -6.03711 -71.2939 -35.0654 -82.1416c-1.44434 -0.541992 -9.23926 -3.45703 -16.3115 0
c-22.7471 11.1182 2.60156 68.3838 -24.3936 118.349c-11.1504 20.6338 -28.0615 28.0039 -35.7656 38.3848c-65.2354 87.8711 -84.9287 207.106 -60.0098 312.431c21.4834 90.8232 79.6406 191.475 180.558 200.771c3.29199 0.499023 6.5625 0.727539 9.70605 0.610352
c3.14355 0.100586 6.4834 -0.165039 9.87109 -0.707031zM262.325 236.836c38.7715 66.1592 53.1543 152.906 37.4531 227.911c-7.75781 37.0781 -20.7402 75.3135 -41.5654 107.172c-8.7666 13.4072 -18.5576 26.501 -31.0781 36.5732
c-4.96484 3.99316 -9.30273 6.97168 -14.9258 9.31348c-2.19336 0.913086 -6.62695 1.51855 -7.74707 1.72559c-1.34375 -0.361328 -9.03711 -2.08691 -12.1328 -3.75977c-5.1084 -2.76074 -11.751 -7.86328 -16.6514 -12.4346
c-12.5625 -11.7188 -22.9805 -26.793 -31.4756 -41.6709c-20.6816 -36.2334 -34.1631 -79.3799 -38.6445 -120.79c-8.44824 -78.0049 11.7129 -166.518 61.8477 -228.18c7.74121 -9.52539 18.6045 -20.5107 27.541 -25.7041
c7.18945 -4.17871 8.17676 -2.93652 12.7002 -4.98047c-3.25488 1.47656 0.541992 0.197266 0.97168 0.292969c3.78027 0.828125 15.3398 6.94531 23.7822 14.8779c11.835 11.1133 21.7695 25.7363 29.9248 39.6533z" />
    <glyph glyph-name="o" unicode="&#xf6;" horiz-adv-x="412" 
d="M214.553 695.296c7.17871 -1.15234 158.448 -72.6494 188.379 -245.55c19.9541 -115.274 -23.1875 -222.6 -57.0635 -257.861c-7.15723 -7.44922 -18.6953 -16.6719 -28.8525 -35.4043c-19.2109 -35.4375 -14.2568 -71.082 -33.0801 -75.8447
c-1.49707 -0.381836 -5.78711 -1.46484 -10.7041 0.000976562c-19.8633 5.91504 -15.3867 43.1465 -36.7002 51.2227c-1.24805 0.477539 -10.54 3.85938 -16.5557 -0.5c-11.1396 -8.07031 -0.456055 -35.0068 -12.8809 -43.0771
c-0.976562 -0.636719 -2.83984 -1.84766 -5.22363 -1.65625c-9.1377 0.72168 -11.2773 20.8984 -15.9072 20.9727c-8.71289 0.132812 -6.03711 -71.2939 -35.0654 -82.1416c-1.44434 -0.541992 -9.23926 -3.45703 -16.3115 0
c-22.7471 11.1182 2.60156 68.3838 -24.3936 118.349c-11.1504 20.6338 -28.0615 28.0039 -35.7656 38.3848c-65.2354 87.8711 -84.9287 207.106 -60.0098 312.431c21.4834 90.8232 79.6406 191.475 180.558 200.771c3.29199 0.499023 6.5625 0.727539 9.70605 0.610352
c3.14355 0.100586 6.4834 -0.165039 9.87109 -0.707031zM262.325 236.836c38.7715 66.1592 53.1543 152.906 37.4531 227.911c-7.75781 37.0781 -20.7402 75.3135 -41.5654 107.172c-8.7666 13.4072 -18.5576 26.501 -31.0781 36.5732
c-4.96484 3.99316 -9.30273 6.97168 -14.9258 9.31348c-2.19336 0.913086 -6.62695 1.51855 -7.74707 1.72559c-1.34375 -0.361328 -9.03711 -2.08691 -12.1328 -3.75977c-5.1084 -2.76074 -11.751 -7.86328 -16.6514 -12.4346
c-12.5625 -11.7188 -22.9805 -26.793 -31.4756 -41.6709c-20.6816 -36.2334 -34.1631 -79.3799 -38.6445 -120.79c-8.44824 -78.0049 11.7129 -166.518 61.8477 -228.18c7.74121 -9.52539 18.6045 -20.5107 27.541 -25.7041
c7.18945 -4.17871 8.17676 -2.93652 12.7002 -4.98047c-3.25488 1.47656 0.541992 0.197266 0.97168 0.292969c3.78027 0.828125 15.3398 6.94531 23.7822 14.8779c11.835 11.1133 21.7695 25.7363 29.9248 39.6533z" />
    <glyph glyph-name="o" unicode="&#xf5;" horiz-adv-x="412" 
d="M214.553 695.296c7.17871 -1.15234 158.448 -72.6494 188.379 -245.55c19.9541 -115.274 -23.1875 -222.6 -57.0635 -257.861c-7.15723 -7.44922 -18.6953 -16.6719 -28.8525 -35.4043c-19.2109 -35.4375 -14.2568 -71.082 -33.0801 -75.8447
c-1.49707 -0.381836 -5.78711 -1.46484 -10.7041 0.000976562c-19.8633 5.91504 -15.3867 43.1465 -36.7002 51.2227c-1.24805 0.477539 -10.54 3.85938 -16.5557 -0.5c-11.1396 -8.07031 -0.456055 -35.0068 -12.8809 -43.0771
c-0.976562 -0.636719 -2.83984 -1.84766 -5.22363 -1.65625c-9.1377 0.72168 -11.2773 20.8984 -15.9072 20.9727c-8.71289 0.132812 -6.03711 -71.2939 -35.0654 -82.1416c-1.44434 -0.541992 -9.23926 -3.45703 -16.3115 0
c-22.7471 11.1182 2.60156 68.3838 -24.3936 118.349c-11.1504 20.6338 -28.0615 28.0039 -35.7656 38.3848c-65.2354 87.8711 -84.9287 207.106 -60.0098 312.431c21.4834 90.8232 79.6406 191.475 180.558 200.771c3.29199 0.499023 6.5625 0.727539 9.70605 0.610352
c3.14355 0.100586 6.4834 -0.165039 9.87109 -0.707031zM262.325 236.836c38.7715 66.1592 53.1543 152.906 37.4531 227.911c-7.75781 37.0781 -20.7402 75.3135 -41.5654 107.172c-8.7666 13.4072 -18.5576 26.501 -31.0781 36.5732
c-4.96484 3.99316 -9.30273 6.97168 -14.9258 9.31348c-2.19336 0.913086 -6.62695 1.51855 -7.74707 1.72559c-1.34375 -0.361328 -9.03711 -2.08691 -12.1328 -3.75977c-5.1084 -2.76074 -11.751 -7.86328 -16.6514 -12.4346
c-12.5625 -11.7188 -22.9805 -26.793 -31.4756 -41.6709c-20.6816 -36.2334 -34.1631 -79.3799 -38.6445 -120.79c-8.44824 -78.0049 11.7129 -166.518 61.8477 -228.18c7.74121 -9.52539 18.6045 -20.5107 27.541 -25.7041
c7.18945 -4.17871 8.17676 -2.93652 12.7002 -4.98047c-3.25488 1.47656 0.541992 0.197266 0.97168 0.292969c3.78027 0.828125 15.3398 6.94531 23.7822 14.8779c11.835 11.1133 21.7695 25.7363 29.9248 39.6533z" />
    <glyph glyph-name="o" unicode="&#xf4;" horiz-adv-x="412" 
d="M214.553 695.296c7.17871 -1.15234 158.448 -72.6494 188.379 -245.55c19.9541 -115.274 -23.1875 -222.6 -57.0635 -257.861c-7.15723 -7.44922 -18.6953 -16.6719 -28.8525 -35.4043c-19.2109 -35.4375 -14.2568 -71.082 -33.0801 -75.8447
c-1.49707 -0.381836 -5.78711 -1.46484 -10.7041 0.000976562c-19.8633 5.91504 -15.3867 43.1465 -36.7002 51.2227c-1.24805 0.477539 -10.54 3.85938 -16.5557 -0.5c-11.1396 -8.07031 -0.456055 -35.0068 -12.8809 -43.0771
c-0.976562 -0.636719 -2.83984 -1.84766 -5.22363 -1.65625c-9.1377 0.72168 -11.2773 20.8984 -15.9072 20.9727c-8.71289 0.132812 -6.03711 -71.2939 -35.0654 -82.1416c-1.44434 -0.541992 -9.23926 -3.45703 -16.3115 0
c-22.7471 11.1182 2.60156 68.3838 -24.3936 118.349c-11.1504 20.6338 -28.0615 28.0039 -35.7656 38.3848c-65.2354 87.8711 -84.9287 207.106 -60.0098 312.431c21.4834 90.8232 79.6406 191.475 180.558 200.771c3.29199 0.499023 6.5625 0.727539 9.70605 0.610352
c3.14355 0.100586 6.4834 -0.165039 9.87109 -0.707031zM262.325 236.836c38.7715 66.1592 53.1543 152.906 37.4531 227.911c-7.75781 37.0781 -20.7402 75.3135 -41.5654 107.172c-8.7666 13.4072 -18.5576 26.501 -31.0781 36.5732
c-4.96484 3.99316 -9.30273 6.97168 -14.9258 9.31348c-2.19336 0.913086 -6.62695 1.51855 -7.74707 1.72559c-1.34375 -0.361328 -9.03711 -2.08691 -12.1328 -3.75977c-5.1084 -2.76074 -11.751 -7.86328 -16.6514 -12.4346
c-12.5625 -11.7188 -22.9805 -26.793 -31.4756 -41.6709c-20.6816 -36.2334 -34.1631 -79.3799 -38.6445 -120.79c-8.44824 -78.0049 11.7129 -166.518 61.8477 -228.18c7.74121 -9.52539 18.6045 -20.5107 27.541 -25.7041
c7.18945 -4.17871 8.17676 -2.93652 12.7002 -4.98047c-3.25488 1.47656 0.541992 0.197266 0.97168 0.292969c3.78027 0.828125 15.3398 6.94531 23.7822 14.8779c11.835 11.1133 21.7695 25.7363 29.9248 39.6533z" />
    <glyph glyph-name="o" unicode="&#xf3;" horiz-adv-x="412" 
d="M214.553 695.296c7.17871 -1.15234 158.448 -72.6494 188.379 -245.55c19.9541 -115.274 -23.1875 -222.6 -57.0635 -257.861c-7.15723 -7.44922 -18.6953 -16.6719 -28.8525 -35.4043c-19.2109 -35.4375 -14.2568 -71.082 -33.0801 -75.8447
c-1.49707 -0.381836 -5.78711 -1.46484 -10.7041 0.000976562c-19.8633 5.91504 -15.3867 43.1465 -36.7002 51.2227c-1.24805 0.477539 -10.54 3.85938 -16.5557 -0.5c-11.1396 -8.07031 -0.456055 -35.0068 -12.8809 -43.0771
c-0.976562 -0.636719 -2.83984 -1.84766 -5.22363 -1.65625c-9.1377 0.72168 -11.2773 20.8984 -15.9072 20.9727c-8.71289 0.132812 -6.03711 -71.2939 -35.0654 -82.1416c-1.44434 -0.541992 -9.23926 -3.45703 -16.3115 0
c-22.7471 11.1182 2.60156 68.3838 -24.3936 118.349c-11.1504 20.6338 -28.0615 28.0039 -35.7656 38.3848c-65.2354 87.8711 -84.9287 207.106 -60.0098 312.431c21.4834 90.8232 79.6406 191.475 180.558 200.771c3.29199 0.499023 6.5625 0.727539 9.70605 0.610352
c3.14355 0.100586 6.4834 -0.165039 9.87109 -0.707031zM262.325 236.836c38.7715 66.1592 53.1543 152.906 37.4531 227.911c-7.75781 37.0781 -20.7402 75.3135 -41.5654 107.172c-8.7666 13.4072 -18.5576 26.501 -31.0781 36.5732
c-4.96484 3.99316 -9.30273 6.97168 -14.9258 9.31348c-2.19336 0.913086 -6.62695 1.51855 -7.74707 1.72559c-1.34375 -0.361328 -9.03711 -2.08691 -12.1328 -3.75977c-5.1084 -2.76074 -11.751 -7.86328 -16.6514 -12.4346
c-12.5625 -11.7188 -22.9805 -26.793 -31.4756 -41.6709c-20.6816 -36.2334 -34.1631 -79.3799 -38.6445 -120.79c-8.44824 -78.0049 11.7129 -166.518 61.8477 -228.18c7.74121 -9.52539 18.6045 -20.5107 27.541 -25.7041
c7.18945 -4.17871 8.17676 -2.93652 12.7002 -4.98047c-3.25488 1.47656 0.541992 0.197266 0.97168 0.292969c3.78027 0.828125 15.3398 6.94531 23.7822 14.8779c11.835 11.1133 21.7695 25.7363 29.9248 39.6533z" />
    <glyph glyph-name="o" unicode="&#xf2;" horiz-adv-x="412" 
d="M214.553 695.296c7.17871 -1.15234 158.448 -72.6494 188.379 -245.55c19.9541 -115.274 -23.1875 -222.6 -57.0635 -257.861c-7.15723 -7.44922 -18.6953 -16.6719 -28.8525 -35.4043c-19.2109 -35.4375 -14.2568 -71.082 -33.0801 -75.8447
c-1.49707 -0.381836 -5.78711 -1.46484 -10.7041 0.000976562c-19.8633 5.91504 -15.3867 43.1465 -36.7002 51.2227c-1.24805 0.477539 -10.54 3.85938 -16.5557 -0.5c-11.1396 -8.07031 -0.456055 -35.0068 -12.8809 -43.0771
c-0.976562 -0.636719 -2.83984 -1.84766 -5.22363 -1.65625c-9.1377 0.72168 -11.2773 20.8984 -15.9072 20.9727c-8.71289 0.132812 -6.03711 -71.2939 -35.0654 -82.1416c-1.44434 -0.541992 -9.23926 -3.45703 -16.3115 0
c-22.7471 11.1182 2.60156 68.3838 -24.3936 118.349c-11.1504 20.6338 -28.0615 28.0039 -35.7656 38.3848c-65.2354 87.8711 -84.9287 207.106 -60.0098 312.431c21.4834 90.8232 79.6406 191.475 180.558 200.771c3.29199 0.499023 6.5625 0.727539 9.70605 0.610352
c3.14355 0.100586 6.4834 -0.165039 9.87109 -0.707031zM262.325 236.836c38.7715 66.1592 53.1543 152.906 37.4531 227.911c-7.75781 37.0781 -20.7402 75.3135 -41.5654 107.172c-8.7666 13.4072 -18.5576 26.501 -31.0781 36.5732
c-4.96484 3.99316 -9.30273 6.97168 -14.9258 9.31348c-2.19336 0.913086 -6.62695 1.51855 -7.74707 1.72559c-1.34375 -0.361328 -9.03711 -2.08691 -12.1328 -3.75977c-5.1084 -2.76074 -11.751 -7.86328 -16.6514 -12.4346
c-12.5625 -11.7188 -22.9805 -26.793 -31.4756 -41.6709c-20.6816 -36.2334 -34.1631 -79.3799 -38.6445 -120.79c-8.44824 -78.0049 11.7129 -166.518 61.8477 -228.18c7.74121 -9.52539 18.6045 -20.5107 27.541 -25.7041
c7.18945 -4.17871 8.17676 -2.93652 12.7002 -4.98047c-3.25488 1.47656 0.541992 0.197266 0.97168 0.292969c3.78027 0.828125 15.3398 6.94531 23.7822 14.8779c11.835 11.1133 21.7695 25.7363 29.9248 39.6533z" />
    <glyph glyph-name="p" unicode="p" horiz-adv-x="362" 
d="M264.858 669.177c53.4004 -30.5098 108.314 -99.1826 99.2451 -164.259c-8.07617 -57.9824 -59.0283 -56.1562 -68.4746 -124.296c-5.88867 -42.5254 8.01172 -85.9961 -14.9531 -100.29c-1.48145 -0.923828 -7.95898 -4.74121 -16.3115 -4.07715
c-30.4834 2.40527 -45.9189 61.2578 -54.3027 58.5869c-6.14844 -1.96484 -0.366211 -34.3965 -7.63477 -36.165c-1.03027 -0.25 -2.07129 0.174805 -3.31348 1.01953c-12.4297 8.40527 -9.68457 33.9189 -19.1992 41.6602
c-6.1543 5.00684 -20.2676 4.90039 -55.0674 -17.1035c-2.33105 -44.4854 -1.40723 -79.9492 -0.154297 -104.082c2.21973 -42.6367 6.49902 -69.3291 -11.0068 -89.8887c-12.0049 -14.0977 -20.4316 -9.07422 -29.7715 -23.2725
c-18.7383 -28.4814 3.02148 -67.1523 -12.2334 -76.46c-5.70801 -3.48828 -13.1787 -0.769531 -15.292 0c-30.6689 11.1553 -30.9561 88.9531 -31.3174 113.394c-2.12402 142.89 -1.67773 415.539 -2.07031 510.637c-0.143555 35.251 48.0635 46.0088 77.7559 32.4053
c54.5996 15.2705 114.143 10.7363 164.102 -17.8086zM124.523 405.047c65.75 -27.2285 138.473 24.377 139.067 99.8604c0.594727 75.4727 -69.3506 133.259 -139.906 106.359c0.28125 -68.7344 0.5625 -137.479 0.838867 -206.22z" />
    <glyph glyph-name="q" unicode="q" horiz-adv-x="428" 
d="M418.111 452.88c13.3857 -87.7754 -8.75586 -192.108 -63.2441 -265.553c7.66699 -8.03906 15.2754 -16.1367 23.0117 -24.1123c17.665 -18.2119 0.0683594 -44.0918 -18.0322 -52.2529c-23.7402 -10.6992 -51.0537 -4.56152 -68.7617 13.6982
c-0.780273 0.806641 -1.43848 1.48633 -1.89551 1.99121c-6.39258 -94.9434 -13.2744 -130.636 -20.0977 -130.769c-9.74902 -0.191406 -22.668 72.2012 -28.5459 108.079c0.324219 -7.25879 -0.658203 -14.4268 -5.0918 -17.3467
c-3.44629 -2.27246 -7.93262 -1.29004 -9.1748 -1.01953c-12.7695 2.78809 -14.5273 20.6553 -19.8955 20.8037c-12.1963 0.339844 -12.9238 -91.6357 -45.3506 -100.322c-8.07617 -2.16602 -15.4092 1.56641 -16.3115 2.03906
c-28.6992 15.1006 2.08691 82.1416 -31.9004 137.251c-11.0547 17.9258 -25.168 23.6074 -33.7383 34.2217c-68.1289 84.4141 -90.6523 203.294 -66.9707 307.778c21.6475 95.501 85.1943 199.067 190.571 208.062c3.1748 0.461914 6.3291 0.673828 9.36133 0.567383
c2.99512 0.0957031 6.16016 -0.143555 9.37793 -0.631836c118.37 -10.4072 180.542 -136.636 196.688 -242.485zM287.715 259.088c32.3896 63.9658 42.7422 142.863 26.0166 211.826c-8.85645 36.4883 -22.7676 72.9287 -44.5957 103.688
c-9.24414 13.0352 -19.4707 25.5977 -32.6602 34.8418c-10.46 7.33301 -17.1553 9.9082 -24.4297 10.1631c-8.99512 -0.28125 -20.915 -6.21777 -32.6016 -16.2588c-14.3418 -12.3242 -25.9385 -28.5508 -35.5439 -44.7559
c-21.4092 -36.1172 -35.3896 -79.4814 -39.6797 -121.205c-8.08105 -78.5684 14.9688 -167.421 68.2891 -227.07c9.29199 -10.3916 20.6338 -20.2568 32.9844 -25.5615c3.32422 -1.42285 9.86035 -2.68652 6.22852 -2.37305
c6.5625 -0.5625 2.28809 -1.19922 6.63184 0.0966797c4.2373 1.25879 8.4375 3.23438 12.5576 5.75098c-9.49414 10.2158 -19.0195 20.3994 -28.4072 30.7109c-16.9912 18.6641 -0.664062 43.832 18.0312 52.2588c22.5342 10.1572 49.9854 5.29883 67.1787 -12.1113z" />
    <glyph glyph-name="r" unicode="r" horiz-adv-x="326" 
d="M320.648 506.137c-0.0957031 -60.5039 -28.7617 -123.661 -79.958 -157.681c-15.0107 -9.97168 -31.5508 -17.2725 -48.7812 -21.9873c29.3311 -54.3184 68.2461 -104.076 103.12 -154.503c3.08984 -4.4707 8.0918 -13.5078 6.80664 -24.2969
c-1.68848 -14.166 -12.7861 -15.8281 -18.7539 -29.9629c-10.1836 -24.1172 10.5566 -46.6621 0.000976562 -56.5811c-4.61426 -4.33789 -13.6992 -4.82617 -19.8799 -1.5293c-18.0479 9.61621 -2.41602 46.668 -22.9385 64.2275
c-10.2051 8.73438 -16.4385 1.60352 -32.0273 9.58887c-21.9189 11.2354 -25.3916 33.4463 -41.374 63.8184c-7.83203 14.8779 -21.0107 36.1699 -43.3438 59.3311c12.5049 -33.8867 22.5938 -79.2002 0.37793 -112.444
c-7.31641 -10.9434 -10.0723 -8.52246 -18.207 -20.2891c-33.2441 -48.0801 -2.19824 -110.172 -25.2314 -122.337c-3.86035 -2.03906 -9.77539 -2.95801 -14.5273 -0.764648c-18.7168 8.64941 -6.91309 52.7949 -26.7607 122.336
c-2.69727 9.44043 -2.91504 8.60156 -5.35254 17.5859c-10.5557 38.9043 -10.6191 70.0723 -10.7041 87.1641c-0.174805 34.1572 -1.82129 68.2988 -1.5293 102.456c0 0 0.610352 71.7979 -3.05859 149.861c0 0 -4.3916 93.4092 12.2334 178.917
c1.59863 8.23535 5.02832 23.124 16.5029 29.2832c5.33105 2.86719 9.72754 2.40527 23.9365 4.34863c10.7783 1.47656 19.5127 3.27637 25.3105 4.60352c11.6123 1.84766 88.0986 12.7061 154.062 -41.7773c6.63672 -5.48535 70.2207 -59.5645 70.0771 -149.368z
M123.021 403.093c59.2305 -25.4072 97.1367 50.0986 97.1211 103.053c-0.0107422 35.1182 -12.9131 72.7217 -39.1436 97.0293c-18.6055 17.2402 -37.9219 18.748 -58.6777 10.0928c0.233398 -70.0566 0.466797 -140.118 0.700195 -210.175z" />
    <glyph glyph-name="s" unicode="s" horiz-adv-x="334" 
d="M230.909 415.032c21.1543 -15.4404 126.408 -136.124 94.9424 -202.852c-15.5469 -32.9844 -52.6299 -26.8193 -87.9766 -83.7559c-9.98242 -16.083 -20.7188 -38.6387 -34.4072 -37.6406c-13.2158 0.966797 -16.9756 23.0078 -25.9971 22.3438
c-18.1221 -1.33789 -14.2881 -91.168 -45.1113 -99.3984c-10.6143 -2.83496 -21.1377 5.12402 -24.4668 7.64648c-27.5469 20.835 -8.46387 61.5713 -20.6973 109.757c-18.8818 74.373 -75.6592 88.4062 -82.8428 129.515c-4.33789 24.8174 32.2988 38.1924 50.2559 38.1924
c24.8232 0 45.9238 -13.4072 50.2568 -38.1934c5.44824 -31.1895 26.002 -63.6582 56.1826 -75.7959c9.93945 -3.99805 19.5449 -4.92773 25.5557 -2.9209c14.5703 4.87402 25.9541 17.2939 33.7168 30.3721c39.5576 66.6367 -30.3926 131.458 -83.3408 163.73
c-58.2266 35.4902 -112.97 82.5029 -128.145 152.867c-17.9365 83.1719 47.8936 155.575 128.564 166.619c81.9609 11.2139 163.322 -39.4463 182.814 -121.115c12.6797 -53.1074 -85.71 -67.2734 -96.9189 -20.3086c-7.10938 29.7979 -28.5391 69.541 -64.959 66.9072
c-33.1436 -2.39453 -55.5137 -39.2012 -52.5352 -69.7373c6.96094 -71.4268 75.1807 -99.7969 125.108 -136.232z" />
    <glyph glyph-name="t" unicode="t" horiz-adv-x="377" 
d="M339.455 695.296c21.1484 -0.154297 50.6416 -12.9072 50.2539 -38.1924c-0.381836 -24.9717 -28.332 -38.3467 -50.2559 -38.1924c-39.5312 0.28125 -73.0781 -6.66406 -96.8018 0.689453c3.27637 -91.3428 4.70996 -172.242 5.21484 -240.388
c2.25684 -304.46 -15.626 -123.451 -13.5654 -242.277c0.472656 -27.1699 2.29883 -88.126 -23.1348 -98.2246c-6.59473 -2.61816 -15.6904 -2.08691 -22.4287 2.03906c-21.9824 13.46 -11.2783 60.5996 -22.4287 63.207
c-6.40332 1.50293 -11.209 -13.7305 -16.3115 -13.168c-17.8457 1.98535 -10.3965 193.959 -8.15625 335.32c1.34375 84.6846 0.849609 152.936 0.313477 194.214c-27.2227 4.7041 -39.8545 -0.744141 -46.1895 -7.65234
c-12.3877 -13.5029 -5.73438 -38.0449 -18.7432 -43.5508c-5.72363 -2.4209 -11.8506 0.287109 -12.8594 0.733398c-19.7363 8.71875 -14.7402 49.4492 -25.9229 51.207c-6.53613 1.02441 -11.7295 -12.3564 -17.915 -10.4287
c-5.64453 1.7627 -2.87793 13.4014 -11.2139 19.3691c-6.35547 4.55078 -11.8672 0.568359 -17.1074 4.79492c-6.75391 5.44238 -5.53223 18.4248 -4.01855 24.457c5.21387 20.8145 31.1787 38.3311 50.2568 38.1934z" />
    <glyph glyph-name="u" unicode="u" horiz-adv-x="371" 
d="M248.315 653.307c-3.57324 50.3047 96.9004 50.8311 100.511 0.00585938c1.77832 -25.0352 24.4619 -41.124 3.16992 -225.68c-31.9482 -276.924 -42.2275 -208.344 -40.4326 -256.392c0.610352 -16.3857 3.4834 -69.2383 -20.3887 -80.4521
c-8.72949 -4.09863 -19.083 -1.70898 -26.5059 0.000976562c-31.752 7.33301 -40.46 32.1348 -50.9736 29.4854c-21.3818 -5.38965 0.759766 -111.457 -30.584 -124.376c-13.2051 -5.44238 -29.9941 8.08105 -32.6221 10.1943
c-29.0654 23.4053 -14.373 64.3379 -28.8262 109.481c-15.4883 48.3721 -61.9004 40.5293 -79.5283 92.0918c-27.5098 80.458 -27.6367 173.129 -29.415 257.203c-1.33789 63.2871 -0.823242 126.686 1.70996 189.935c2.04395 50.9951 102.53 50.4902 100.513 0
c-2.5332 -63.2549 -3.04785 -126.653 -1.70996 -189.935c1.57715 -74.5381 1.44434 -154.721 22.6562 -226.843c4.38574 -14.915 9.58887 -30.0693 18.7852 -42.7168c4.84766 -6.66406 9.61035 -12.207 17.957 -13.6299c3.39258 -0.579102 5.63281 1.76758 7.73535 2.6543
c10.1367 4.2959 23.0869 19.0938 31.8057 34.8428c6.4248 11.6123 11.209 24.4619 15.2607 37.0674c24.3662 75.7861 25.2373 160.057 25.6885 238.933c0.302734 52.71 -1.06738 105.547 -4.80566 158.129z" />
    <glyph glyph-name="u" unicode="&#xfc;" horiz-adv-x="371" 
d="M248.315 653.307c-3.57324 50.3047 96.9004 50.8311 100.511 0.00585938c1.77832 -25.0352 24.4619 -41.124 3.16992 -225.68c-31.9482 -276.924 -42.2275 -208.344 -40.4326 -256.392c0.610352 -16.3857 3.4834 -69.2383 -20.3887 -80.4521
c-8.72949 -4.09863 -19.083 -1.70898 -26.5059 0.000976562c-31.752 7.33301 -40.46 32.1348 -50.9736 29.4854c-21.3818 -5.38965 0.759766 -111.457 -30.584 -124.376c-13.2051 -5.44238 -29.9941 8.08105 -32.6221 10.1943
c-29.0654 23.4053 -14.373 64.3379 -28.8262 109.481c-15.4883 48.3721 -61.9004 40.5293 -79.5283 92.0918c-27.5098 80.458 -27.6367 173.129 -29.415 257.203c-1.33789 63.2871 -0.823242 126.686 1.70996 189.935c2.04395 50.9951 102.53 50.4902 100.513 0
c-2.5332 -63.2549 -3.04785 -126.653 -1.70996 -189.935c1.57715 -74.5381 1.44434 -154.721 22.6562 -226.843c4.38574 -14.915 9.58887 -30.0693 18.7852 -42.7168c4.84766 -6.66406 9.61035 -12.207 17.957 -13.6299c3.39258 -0.579102 5.63281 1.76758 7.73535 2.6543
c10.1367 4.2959 23.0869 19.0938 31.8057 34.8428c6.4248 11.6123 11.209 24.4619 15.2607 37.0674c24.3662 75.7861 25.2373 160.057 25.6885 238.933c0.302734 52.71 -1.06738 105.547 -4.80566 158.129z" />
    <glyph glyph-name="u" unicode="&#xfb;" horiz-adv-x="371" 
d="M248.315 653.307c-3.57324 50.3047 96.9004 50.8311 100.511 0.00585938c1.77832 -25.0352 24.4619 -41.124 3.16992 -225.68c-31.9482 -276.924 -42.2275 -208.344 -40.4326 -256.392c0.610352 -16.3857 3.4834 -69.2383 -20.3887 -80.4521
c-8.72949 -4.09863 -19.083 -1.70898 -26.5059 0.000976562c-31.752 7.33301 -40.46 32.1348 -50.9736 29.4854c-21.3818 -5.38965 0.759766 -111.457 -30.584 -124.376c-13.2051 -5.44238 -29.9941 8.08105 -32.6221 10.1943
c-29.0654 23.4053 -14.373 64.3379 -28.8262 109.481c-15.4883 48.3721 -61.9004 40.5293 -79.5283 92.0918c-27.5098 80.458 -27.6367 173.129 -29.415 257.203c-1.33789 63.2871 -0.823242 126.686 1.70996 189.935c2.04395 50.9951 102.53 50.4902 100.513 0
c-2.5332 -63.2549 -3.04785 -126.653 -1.70996 -189.935c1.57715 -74.5381 1.44434 -154.721 22.6562 -226.843c4.38574 -14.915 9.58887 -30.0693 18.7852 -42.7168c4.84766 -6.66406 9.61035 -12.207 17.957 -13.6299c3.39258 -0.579102 5.63281 1.76758 7.73535 2.6543
c10.1367 4.2959 23.0869 19.0938 31.8057 34.8428c6.4248 11.6123 11.209 24.4619 15.2607 37.0674c24.3662 75.7861 25.2373 160.057 25.6885 238.933c0.302734 52.71 -1.06738 105.547 -4.80566 158.129z" />
    <glyph glyph-name="u" unicode="&#xfa;" horiz-adv-x="371" 
d="M248.315 653.307c-3.57324 50.3047 96.9004 50.8311 100.511 0.00585938c1.77832 -25.0352 24.4619 -41.124 3.16992 -225.68c-31.9482 -276.924 -42.2275 -208.344 -40.4326 -256.392c0.610352 -16.3857 3.4834 -69.2383 -20.3887 -80.4521
c-8.72949 -4.09863 -19.083 -1.70898 -26.5059 0.000976562c-31.752 7.33301 -40.46 32.1348 -50.9736 29.4854c-21.3818 -5.38965 0.759766 -111.457 -30.584 -124.376c-13.2051 -5.44238 -29.9941 8.08105 -32.6221 10.1943
c-29.0654 23.4053 -14.373 64.3379 -28.8262 109.481c-15.4883 48.3721 -61.9004 40.5293 -79.5283 92.0918c-27.5098 80.458 -27.6367 173.129 -29.415 257.203c-1.33789 63.2871 -0.823242 126.686 1.70996 189.935c2.04395 50.9951 102.53 50.4902 100.513 0
c-2.5332 -63.2549 -3.04785 -126.653 -1.70996 -189.935c1.57715 -74.5381 1.44434 -154.721 22.6562 -226.843c4.38574 -14.915 9.58887 -30.0693 18.7852 -42.7168c4.84766 -6.66406 9.61035 -12.207 17.957 -13.6299c3.39258 -0.579102 5.63281 1.76758 7.73535 2.6543
c10.1367 4.2959 23.0869 19.0938 31.8057 34.8428c6.4248 11.6123 11.209 24.4619 15.2607 37.0674c24.3662 75.7861 25.2373 160.057 25.6885 238.933c0.302734 52.71 -1.06738 105.547 -4.80566 158.129z" />
    <glyph glyph-name="u" unicode="&#xf9;" horiz-adv-x="371" 
d="M248.315 653.307c-3.57324 50.3047 96.9004 50.8311 100.511 0.00585938c1.77832 -25.0352 24.4619 -41.124 3.16992 -225.68c-31.9482 -276.924 -42.2275 -208.344 -40.4326 -256.392c0.610352 -16.3857 3.4834 -69.2383 -20.3887 -80.4521
c-8.72949 -4.09863 -19.083 -1.70898 -26.5059 0.000976562c-31.752 7.33301 -40.46 32.1348 -50.9736 29.4854c-21.3818 -5.38965 0.759766 -111.457 -30.584 -124.376c-13.2051 -5.44238 -29.9941 8.08105 -32.6221 10.1943
c-29.0654 23.4053 -14.373 64.3379 -28.8262 109.481c-15.4883 48.3721 -61.9004 40.5293 -79.5283 92.0918c-27.5098 80.458 -27.6367 173.129 -29.415 257.203c-1.33789 63.2871 -0.823242 126.686 1.70996 189.935c2.04395 50.9951 102.53 50.4902 100.513 0
c-2.5332 -63.2549 -3.04785 -126.653 -1.70996 -189.935c1.57715 -74.5381 1.44434 -154.721 22.6562 -226.843c4.38574 -14.915 9.58887 -30.0693 18.7852 -42.7168c4.84766 -6.66406 9.61035 -12.207 17.957 -13.6299c3.39258 -0.579102 5.63281 1.76758 7.73535 2.6543
c10.1367 4.2959 23.0869 19.0938 31.8057 34.8428c6.4248 11.6123 11.209 24.4619 15.2607 37.0674c24.3662 75.7861 25.2373 160.057 25.6885 238.933c0.302734 52.71 -1.06738 105.547 -4.80566 158.129z" />
    <glyph glyph-name="v" unicode="v" horiz-adv-x="417" 
d="M325.883 668.869c30.2441 97.3115 98.0469 -17.293 96.916 -20.3037c-34.0615 -91.0566 -41.3887 -190.109 -67.9316 -283.63c-35.8936 -126.467 -44.9092 -200.835 -92.458 -232.438c-6.53613 -4.34375 -17.8721 -10.5879 -25.7998 -24.4678
c-24.1963 -42.377 15.7324 -99.3662 -2.03906 -112.142c-5.84082 -4.2002 -16.2266 -2.39453 -22.4287 2.03906c-30.3721 21.7061 -11.4111 107.41 -16.3115 108.063c-3.99805 0.53125 -11.1875 -58.9004 -28.46 -60.1484
c-2.08691 -0.148438 -3.69531 0.594727 -4.58691 1.01953c-22.3066 10.6514 -31.1152 108.817 -32.5166 123.19c-4.6084 47.2461 -24.1748 36.4619 -46.5762 158.182c-29.416 159.817 -65.2568 283.698 -67.8428 283.236
c-1.75195 -0.313477 10.7686 -57.9082 6.6748 -58.9541c-5.17188 -1.32227 -48.1172 84.7109 -20.1191 116.367c20.0498 22.667 88.9863 27.5361 97.4873 0.520508l113.766 -361.623c37.4072 120.361 74.8193 240.728 112.227 361.089z" />
    <glyph glyph-name="w" unicode="w" horiz-adv-x="521" 
d="M482.373 688.388c50.4316 -10.6729 35.6484 -44.1465 35.0967 -46.9873c-9.77539 -50.6338 -48.1807 -370.316 -83.8145 -455.898c-8.96777 -21.5361 -19.1621 -31.6191 -20.415 -53.0117c-0.28125 -4.82617 -0.493164 -16.7891 -6.59961 -19.3691
c-4.81055 -2.0332 -8.80859 3.65332 -12.2334 2.29395c-11.5967 -4.60352 14.3994 -77.6758 -2.29395 -87.1641c-4.53418 -2.5752 -10.6885 0.40918 -12.998 1.5293c-22.9648 11.1396 -7.74219 49.2207 -34.4072 89.458c-8.44824 12.749 -10.5771 9.83398 -21.1543 25.4873
c-17.458 25.832 -22.667 50.0605 -25.1201 60.457c-5.89355 24.9346 -17.9258 63.3984 -45.0693 124.015c-46.2373 -130.126 -54.8818 -176.984 -49.96 -189.542c0.749023 -1.90625 6.06445 -13.8799 0.871094 -21.4414
c-3.30273 -4.81055 -9.61621 -6.01074 -10.1953 -6.11719c-7.99609 -1.41797 -11.2559 4.27441 -15.291 3.05859c-10.9482 -3.29199 0.260742 -48.9932 -15.291 -57.0908c-6.04199 -3.14844 -13.6191 0.679688 -14.2725 1.01953
c-15.2021 7.93262 -6.73828 33.3184 -22.4287 59.1289c-7.50781 12.3555 -16.6777 18.4355 -20.3145 21.4404c-43.5879 36.0371 -72.7383 350.872 -105.61 509.437c-11.0869 53.4639 87.1592 67.3857 96.918 20.3096c20.9844 -101.203 41.9629 -202.406 62.9414 -303.609
c12.5684 47.665 25.1309 95.3301 37.6934 143.001c0.339844 4.67285 1.78418 8.89453 4.00879 12.6807c8.75586 18.4404 32.6865 24.9287 54.5039 21.5195c18.1221 -1.75781 34.7783 -10.4873 40.1992 -27.4199c19.0039 -59.3682 38.002 -118.736 57.0059 -178.109
c22.1367 108.085 44.2734 216.17 66.4102 324.249c4.98535 24.335 42.6367 30.7334 61.8203 26.6768z" />
    <glyph glyph-name="x" unicode="x" horiz-adv-x="381" 
d="M342.145 696.082c18.5098 -3.91895 46.7295 -24.5605 35.1113 -46.9785c-42.5312 -82.0195 -106.253 -226.258 -129.643 -250.003c12.1592 -26.5645 30.8018 -63.6582 57.7061 -105.525c41.7295 -64.9219 80.873 -106.338 67.0674 -130.726
c-9.16504 -16.1836 -32.2998 -8.34082 -44.1299 -29.8398c-11.7607 -21.3721 0.770508 -47.8945 -12.998 -55.8164c-4.6084 -2.64941 -9.62109 -1.75195 -10.7041 -1.5293c-20.251 4.16797 -26.5859 52.0303 -29.0918 66.8818
c-5.9043 34.9482 -24.2393 86.1709 -81.1865 153.711c-29.0605 -45.3242 -43.7314 -79.6572 -51.8232 -103.609c-4.89062 -14.4795 -10.2744 -33.748 -27.8818 -50.1016c-15.7646 -14.6445 -24.5469 -11.3633 -33.2871 -24.8291
c-14.4424 -22.248 -2.10742 -49.1367 -15.291 -55.8164c-3.71191 -1.87988 -8.59668 -1.73145 -12.2334 0c-14.1934 6.75977 -4.19531 35.2627 -17.5869 69.5791c-7.93262 20.3252 -14.4268 17.9785 -18.5254 31.3701c-10.6777 34.9062 27.5098 70.2109 61.7314 119.05
c18.3984 26.2568 41.4111 64.6406 60.6797 117.011c-59.2617 124.848 -106.227 217.885 -113.458 214.821c-4.11523 -1.74121 5.07617 -34.4707 -5.71875 -39.5469c-2.91016 -1.37012 -7.06738 -0.626953 -9.94043 1.52832
c-12.8066 9.61035 9.62695 40.0029 -3.02051 73.3848c-3.73828 9.87109 -7.06738 10.832 -6.91895 17.6016c0.398438 17.8887 24.2607 37.3857 47.4062 38.2305c24.2656 0.886719 41.7881 -18.9453 56.4326 -35.5225c19.5879 -22.1738 28.0254 -43.0625 35.3154 -60.0537
c11.3154 -26.3682 28.3809 -63.1592 53.2305 -107.602c28.9756 55.8848 57.9561 111.77 86.9365 167.654c11.75 22.6621 36.9873 31.9326 61.8213 26.6758z" />
    <glyph glyph-name="y" unicode="y" horiz-adv-x="378" 
d="M354.86 659.248c2.67578 -86.793 5.35059 -173.587 8.02637 -260.374c3.85449 -125.028 8.55371 -175.2 -31.9385 -220.354c-30.4033 -33.9023 -50.7451 -21.0586 -75.5732 -56.2412c-47.7236 -67.625 -5.16602 -161.272 -43.332 -179.395
c-11.8301 -5.61816 -24.6211 -0.749023 -26.5059 0c-52.1152 20.6973 -34.7471 167.469 -46.6836 168.148c-9.78027 0.557617 -18.2012 -98.1445 -42.0156 -99.334c-1.56641 -0.0800781 -3.74902 0.238281 -7.13672 2.54785
c-35.9414 24.5039 6.46191 127.364 -43.9277 187.173c-20.3252 24.127 -43.6133 26.8301 -41.6543 39.3027c2.8457 18.1328 87.8652 63.4463 96.918 20.3047c8.09766 -38.5596 38.5117 -83.5859 83.3633 -80.0391c45.1963 3.5791 72.9551 45.7598 78.498 87.2764
c5.05469 37.8154 3.81738 77.3145 1.62402 116.537c-36.2549 -18.1436 -76.3223 -26.5381 -116.527 -19.5449c-12.5996 2.19336 -28.6406 19.6465 -41.9473 13.1631c-11.416 -5.55957 -12.7539 -22.54 -25.5186 -24.6904
c-5.84082 -0.987305 -10.7627 1.69922 -13.2529 3.05859c-25.248 13.7783 -27.2393 79.0137 -27.2393 79.0137c-4.10938 134.861 -36.1377 185.931 -24.1162 228.907c13.0986 46.8369 111.567 32.0596 96.918 -20.3105
c-9.73242 -34.7891 -12.5361 -72.2549 -6.36133 -108.016c5.65527 -32.7295 23.5859 -77.6396 46.3701 -90.1338c39.377 -21.5947 81.8711 13.2373 106.8 41.0391c-1.76855 57.3184 -3.53125 114.643 -5.2998 171.961c-1.56152 50.6973 98.9463 50.8516 100.513 0z" />
    <glyph glyph-name="y" unicode="&#xff;" horiz-adv-x="378" 
d="M354.86 659.248c2.67578 -86.793 5.35059 -173.587 8.02637 -260.374c3.85449 -125.028 8.55371 -175.2 -31.9385 -220.354c-30.4033 -33.9023 -50.7451 -21.0586 -75.5732 -56.2412c-47.7236 -67.625 -5.16602 -161.272 -43.332 -179.395
c-11.8301 -5.61816 -24.6211 -0.749023 -26.5059 0c-52.1152 20.6973 -34.7471 167.469 -46.6836 168.148c-9.78027 0.557617 -18.2012 -98.1445 -42.0156 -99.334c-1.56641 -0.0800781 -3.74902 0.238281 -7.13672 2.54785
c-35.9414 24.5039 6.46191 127.364 -43.9277 187.173c-20.3252 24.127 -43.6133 26.8301 -41.6543 39.3027c2.8457 18.1328 87.8652 63.4463 96.918 20.3047c8.09766 -38.5596 38.5117 -83.5859 83.3633 -80.0391c45.1963 3.5791 72.9551 45.7598 78.498 87.2764
c5.05469 37.8154 3.81738 77.3145 1.62402 116.537c-36.2549 -18.1436 -76.3223 -26.5381 -116.527 -19.5449c-12.5996 2.19336 -28.6406 19.6465 -41.9473 13.1631c-11.416 -5.55957 -12.7539 -22.54 -25.5186 -24.6904
c-5.84082 -0.987305 -10.7627 1.69922 -13.2529 3.05859c-25.248 13.7783 -27.2393 79.0137 -27.2393 79.0137c-4.10938 134.861 -36.1377 185.931 -24.1162 228.907c13.0986 46.8369 111.567 32.0596 96.918 -20.3105
c-9.73242 -34.7891 -12.5361 -72.2549 -6.36133 -108.016c5.65527 -32.7295 23.5859 -77.6396 46.3701 -90.1338c39.377 -21.5947 81.8711 13.2373 106.8 41.0391c-1.76855 57.3184 -3.53125 114.643 -5.2998 171.961c-1.56152 50.6973 98.9463 50.8516 100.513 0z" />
    <glyph glyph-name="y" unicode="&#xfd;" horiz-adv-x="378" 
d="M354.86 659.248c2.67578 -86.793 5.35059 -173.587 8.02637 -260.374c3.85449 -125.028 8.55371 -175.2 -31.9385 -220.354c-30.4033 -33.9023 -50.7451 -21.0586 -75.5732 -56.2412c-47.7236 -67.625 -5.16602 -161.272 -43.332 -179.395
c-11.8301 -5.61816 -24.6211 -0.749023 -26.5059 0c-52.1152 20.6973 -34.7471 167.469 -46.6836 168.148c-9.78027 0.557617 -18.2012 -98.1445 -42.0156 -99.334c-1.56641 -0.0800781 -3.74902 0.238281 -7.13672 2.54785
c-35.9414 24.5039 6.46191 127.364 -43.9277 187.173c-20.3252 24.127 -43.6133 26.8301 -41.6543 39.3027c2.8457 18.1328 87.8652 63.4463 96.918 20.3047c8.09766 -38.5596 38.5117 -83.5859 83.3633 -80.0391c45.1963 3.5791 72.9551 45.7598 78.498 87.2764
c5.05469 37.8154 3.81738 77.3145 1.62402 116.537c-36.2549 -18.1436 -76.3223 -26.5381 -116.527 -19.5449c-12.5996 2.19336 -28.6406 19.6465 -41.9473 13.1631c-11.416 -5.55957 -12.7539 -22.54 -25.5186 -24.6904
c-5.84082 -0.987305 -10.7627 1.69922 -13.2529 3.05859c-25.248 13.7783 -27.2393 79.0137 -27.2393 79.0137c-4.10938 134.861 -36.1377 185.931 -24.1162 228.907c13.0986 46.8369 111.567 32.0596 96.918 -20.3105
c-9.73242 -34.7891 -12.5361 -72.2549 -6.36133 -108.016c5.65527 -32.7295 23.5859 -77.6396 46.3701 -90.1338c39.377 -21.5947 81.8711 13.2373 106.8 41.0391c-1.76855 57.3184 -3.53125 114.643 -5.2998 171.961c-1.56152 50.6973 98.9463 50.8516 100.513 0z" />
    <glyph glyph-name="z" unicode="z" horiz-adv-x="344" 
d="M299.751 191.424c21.1543 0.334961 50.6406 -13.2725 50.2744 -38.1914c-0.276367 -17.9102 -31.3652 -32.9424 -50.2568 -38.1934c-28.2637 -7.8584 -63.9932 -3.69043 -76.5352 -2.23047c-15.9023 1.85352 -17.9941 3.44141 -22.1035 1.08398
c-25.0352 -14.3682 7.30664 -99.3555 -13.7627 -109.338c-4.67285 -2.21387 -10.0146 0.191406 -14.5283 2.29395c-43.6777 20.3789 -44.1074 105.945 -52.7305 105.355c-8.5752 -0.589844 -4.74121 -85.0195 -23.7285 -88.5342
c-3.24414 -0.599609 -6.06348 1.37012 -8.41016 3.05859c-25.9277 18.6689 -16.248 78.5684 -15.0107 85.7686c-31.0889 -1.7998 -64.5293 16.0674 -53.1719 47.4854c10.5342 29.1553 75.0898 208.269 164.166 454.204c-60.9082 16.0566 -83.3311 9.5625 -91.126 -1.67285
c-11.0068 -15.8711 1.74707 -48.9883 -13.2744 -56.6816c-0.860352 -0.44043 -3.7168 -1.90625 -7.13672 -1.27441c-13.6084 2.50586 -8.81348 33.1377 -25.1572 57.1162c-18.4199 27.0215 -50.4805 23.751 -50.2578 38.1934
c0.392578 25.3643 28.3379 37.7891 50.2568 38.1924c59.3418 1.08887 118.688 2.18262 178.03 3.27148c26.4375 11.9678 66.6426 3.36035 75.8389 -19.9443c3.52051 -5.04395 5.66602 -10.9326 5.55957 -17.6758c-0.174805 -11.124 -5.64355 -19.7578 -13.582 -25.9805
c-52.8848 -146.305 -105.765 -292.609 -158.645 -438.914c55.0986 0.865234 110.192 1.73633 165.291 2.60742z" />
    <glyph glyph-name="braceleft" unicode="{" horiz-adv-x="205" 
d="M182.755 22.7559c14.4902 -19.8848 2.47754 -42.916 -18.0283 -52.2607c-29.6973 -13.5234 -68.9307 -16.4277 -96.2334 4.53516c-23.7402 18.2285 -26.6875 47.2305 -27.5742 75.0059c-2.04395 63.8496 17.416 141.175 -17.0918 199.576
c-12.5146 21.1855 -4.125 42.1592 18.0322 52.2578c14.251 6.49902 7.49707 54.8652 6.25977 71.5381c-2.32031 31.2793 -5.00195 62.5537 -7.01465 93.8545c-1.82129 28.29 2.74023 53.3359 29.2627 68.5537c22.4336 12.876 51.1807 13.8154 75.6426 6.36621
c20.2617 -6.16504 44.0332 -21.8555 35.1025 -46.9814c-5.29883 -14.915 -21.4775 -24.6846 -38.0488 -27.6104c1.2959 -10.248 0.239258 -22.9014 0.892578 -31.6143c2.04395 -27.3613 4.60352 -54.7432 6.10645 -82.1416
c1.93848 -35.3682 -3.88086 -69.5947 -25.2686 -94.1836c13.71 -33.2285 18.9502 -68.4219 19.0195 -105.468c0.0527344 -26.0605 -2.08691 -52.0566 -2.52734 -78.1064c-0.185547 -10.8955 1.90625 -23.416 1.07227 -34.4766
c15.7383 -0.621094 31.4707 -6.59473 40.3965 -18.8447z" />
    <glyph glyph-name="verticalbar" unicode="|" horiz-adv-x="147" 
d="M123.513 518.238c0.154297 -177.531 0.313477 -355.062 0.467773 -532.588c0.0429688 -50.8828 -100.465 -50.7607 -100.513 0c-0.154297 177.531 -0.313477 355.057 -0.467773 532.588c-0.0419922 50.8828 100.471 50.7607 100.513 0z" />
    <glyph glyph-name="braceright" unicode="}" horiz-adv-x="210" 
d="M165.64 303.333c14.7979 -5.74512 31.7832 -26.3291 23.0967 -43.1445c-32.3359 -62.5645 -13.2314 -132.562 -10.1514 -199.312c1.40137 -30.3398 2.15039 -65.5273 -24.4775 -86.0811c-27.9609 -21.5791 -65.2031 -18.6113 -96.2598 -6.56934
c-21.2021 8.22461 -32.2305 33.0479 -18.0322 52.2588c9.45703 12.791 24.8926 18.2656 40.5352 18.6006c0.65332 14.6865 -2.88281 32.9834 -3.66895 42.5732c-1.98535 24.2334 -5.16602 48.3604 -6.49316 72.6475c-1.91699 35.1084 0.446289 71.4805 12.335 104.72
c-21.6748 22.9541 -29.5654 56.3418 -29.8154 89.6553c-0.191406 25.4863 0.806641 51.0205 1.26855 76.502c0.239258 13.2852 0.600586 26.5811 0.727539 39.8662c-14.1982 1.03516 -27.8232 6.46191 -36.4785 18.3398c-13.7783 18.9131 -3.3291 44.3896 18.0322 52.2588
c53.6602 19.7686 118.046 5.42188 119.103 -60.875c0.541992 -33.8916 -1.23145 -67.9639 -1.82129 -101.861c-0.265625 -15.25 -6.80176 -62.2412 12.1006 -69.5791z" />
    <glyph glyph-name="asciitilde" unicode="~" horiz-adv-x="516" 
d="M402.47 315.519c16.0723 46.0889 114.733 30.752 96.9248 -20.3115c-27.4199 -78.6162 -112.763 -122.618 -193.391 -108.483c-44.124 7.73633 -81.627 32.7402 -123.951 45.4893c-22.7412 6.84961 -55.5234 10.8691 -68.4902 -14.9414
c-11.4424 -22.7734 -37.248 -31.874 -61.8213 -26.6758c-18.7383 3.9668 -46.4336 24.4355 -35.1025 46.9863c41.0127 81.6318 138.553 87.6211 216.144 60.5947c33.1807 -11.5596 74.6279 -42.5527 110.894 -37.8008c28.9805 3.79688 49.7783 29.2891 58.7939 55.1426z" />
    <glyph glyph-name="nonbreakingspace" unicode="&#xa0;" horiz-adv-x="227" 
 />
    <glyph glyph-name="softhyphen" unicode="&#xad;" horiz-adv-x="0" 
 />
    <glyph glyph-name="quoteright" unicode="&#x2019;" horiz-adv-x="159" 
d="M132.483 519.879c16.2002 -48.4727 14.0586 -140.815 -44.5557 -161.247c-20.1396 -7.01953 -45.748 -2.21387 -49.7783 21.7119c-3.31836 19.6777 6.98828 37.1523 1.93848 57.9082c-4.83691 19.8799 -16.3486 37.6299 -22.168 57.6211
c-18.0264 61.9062 96.3984 78.3506 114.563 24.0059z" />
    <glyph glyph-name="quotedblright" unicode="&#x201d;" horiz-adv-x="285" 
d="M17.9209 495.874c-18.0264 61.9004 96.3916 78.3496 114.562 24.0049c16.2051 -48.4727 14.0654 -140.809 -44.5537 -161.246c-20.1396 -7.01953 -45.748 -2.21387 -49.7783 21.7119c-3.31836 19.6777 6.98828 37.1523 1.93848 57.9082
c-4.83691 19.8799 -16.3486 37.6299 -22.168 57.6211zM259.13 523.192c16.2002 -48.4727 14.0586 -140.808 -44.5557 -161.245c-20.1396 -7.02441 -45.748 -2.21387 -49.7783 21.7061c-3.31836 19.6777 6.98828 37.1572 1.93848 57.9072
c-4.83691 19.8848 -16.3486 37.6348 -22.168 57.626c-18.0264 61.9062 96.3984 78.3506 114.563 24.0059z" />
    </font>
</defs>
</svg>
